G04 #@! TF.GenerationSoftware,KiCad,Pcbnew,(7.0.0)*
G04 #@! TF.CreationDate,2023-02-27T14:14:18+01:00*
G04 #@! TF.ProjectId,Belja80,42656c6a-6138-4302-9e6b-696361645f70,1.0*
G04 #@! TF.SameCoordinates,Original*
G04 #@! TF.FileFunction,Paste,Bot*
G04 #@! TF.FilePolarity,Positive*
%FSLAX46Y46*%
G04 Gerber Fmt 4.6, Leading zero omitted, Abs format (unit mm)*
G04 Created by KiCad (PCBNEW (7.0.0)) date 2023-02-27 14:14:18*
%MOMM*%
%LPD*%
G01*
G04 APERTURE LIST*
G04 Aperture macros list*
%AMRoundRect*
0 Rectangle with rounded corners*
0 $1 Rounding radius*
0 $2 $3 $4 $5 $6 $7 $8 $9 X,Y pos of 4 corners*
0 Add a 4 corners polygon primitive as box body*
4,1,4,$2,$3,$4,$5,$6,$7,$8,$9,$2,$3,0*
0 Add four circle primitives for the rounded corners*
1,1,$1+$1,$2,$3*
1,1,$1+$1,$4,$5*
1,1,$1+$1,$6,$7*
1,1,$1+$1,$8,$9*
0 Add four rect primitives between the rounded corners*
20,1,$1+$1,$2,$3,$4,$5,0*
20,1,$1+$1,$4,$5,$6,$7,0*
20,1,$1+$1,$6,$7,$8,$9,0*
20,1,$1+$1,$8,$9,$2,$3,0*%
%AMRotRect*
0 Rectangle, with rotation*
0 The origin of the aperture is its center*
0 $1 length*
0 $2 width*
0 $3 Rotation angle, in degrees counterclockwise*
0 Add horizontal line*
21,1,$1,$2,0,0,$3*%
G04 Aperture macros list end*
%ADD10C,0.100000*%
%ADD11RoundRect,0.140000X0.021213X-0.219203X0.219203X-0.021213X-0.021213X0.219203X-0.219203X0.021213X0*%
%ADD12R,1.100000X1.100000*%
%ADD13RoundRect,0.140000X0.140000X0.170000X-0.140000X0.170000X-0.140000X-0.170000X0.140000X-0.170000X0*%
%ADD14R,1.000000X0.750000*%
%ADD15RoundRect,0.218750X-0.256250X0.218750X-0.256250X-0.218750X0.256250X-0.218750X0.256250X0.218750X0*%
%ADD16RoundRect,0.140000X-0.170000X0.140000X-0.170000X-0.140000X0.170000X-0.140000X0.170000X0.140000X0*%
%ADD17RoundRect,0.140000X-0.140000X-0.170000X0.140000X-0.170000X0.140000X0.170000X-0.140000X0.170000X0*%
%ADD18RoundRect,0.200000X0.275000X-0.200000X0.275000X0.200000X-0.275000X0.200000X-0.275000X-0.200000X0*%
%ADD19RoundRect,0.135000X0.185000X-0.135000X0.185000X0.135000X-0.185000X0.135000X-0.185000X-0.135000X0*%
%ADD20RotRect,1.487399X0.532600X135.000000*%
%ADD21RoundRect,0.250000X0.375000X0.625000X-0.375000X0.625000X-0.375000X-0.625000X0.375000X-0.625000X0*%
%ADD22RoundRect,0.218750X-0.218750X-0.256250X0.218750X-0.256250X0.218750X0.256250X-0.218750X0.256250X0*%
%ADD23RoundRect,0.200000X-0.275000X0.200000X-0.275000X-0.200000X0.275000X-0.200000X0.275000X0.200000X0*%
%ADD24RoundRect,0.135000X0.035355X-0.226274X0.226274X-0.035355X-0.035355X0.226274X-0.226274X0.035355X0*%
%ADD25RoundRect,0.250000X0.450000X0.425000X-0.450000X0.425000X-0.450000X-0.425000X0.450000X-0.425000X0*%
%ADD26R,0.807999X0.178600*%
%ADD27R,0.178600X0.807999*%
%ADD28RoundRect,0.135000X0.135000X0.185000X-0.135000X0.185000X-0.135000X-0.185000X0.135000X-0.185000X0*%
%ADD29RoundRect,0.200000X0.335876X0.053033X0.053033X0.335876X-0.335876X-0.053033X-0.053033X-0.335876X0*%
%ADD30RoundRect,0.140000X0.170000X-0.140000X0.170000X0.140000X-0.170000X0.140000X-0.170000X-0.140000X0*%
%ADD31R,0.600000X1.160000*%
%ADD32R,0.300000X1.160000*%
%ADD33R,2.000000X1.500000*%
%ADD34R,2.000000X3.800000*%
%ADD35R,1.200000X1.400000*%
%ADD36RoundRect,0.135000X-0.185000X0.135000X-0.185000X-0.135000X0.185000X-0.135000X0.185000X0.135000X0*%
G04 APERTURE END LIST*
G36*
X245111400Y-61031450D02*
G01*
X243711200Y-61031450D01*
X243711200Y-59631250D01*
X245111400Y-59631250D01*
X245111400Y-61031450D01*
G37*
D10*
X245111400Y-61031450D02*
X243711200Y-61031450D01*
X243711200Y-59631250D01*
X245111400Y-59631250D01*
X245111400Y-61031450D01*
G36*
X245111400Y-59431250D02*
G01*
X243711200Y-59431250D01*
X243711200Y-58031050D01*
X245111400Y-58031050D01*
X245111400Y-59431250D01*
G37*
X245111400Y-59431250D02*
X243711200Y-59431250D01*
X243711200Y-58031050D01*
X245111400Y-58031050D01*
X245111400Y-59431250D01*
G36*
X243511200Y-61031450D02*
G01*
X242111000Y-61031450D01*
X242111000Y-59631250D01*
X243511200Y-59631250D01*
X243511200Y-61031450D01*
G37*
X243511200Y-61031450D02*
X242111000Y-61031450D01*
X242111000Y-59631250D01*
X243511200Y-59631250D01*
X243511200Y-61031450D01*
G36*
X243511200Y-59431250D02*
G01*
X242111000Y-59431250D01*
X242111000Y-58031050D01*
X243511200Y-58031050D01*
X243511200Y-59431250D01*
G37*
X243511200Y-59431250D02*
X242111000Y-59431250D01*
X242111000Y-58031050D01*
X243511200Y-58031050D01*
X243511200Y-59431250D01*
D11*
X248529789Y-47481811D03*
X249208611Y-46802989D03*
D12*
X198437499Y-98237499D03*
X198437499Y-95437499D03*
X160337499Y-98237499D03*
X160337499Y-95437499D03*
D13*
X238669516Y-60546613D03*
X237709516Y-60546613D03*
D12*
X105568749Y-145443749D03*
X105568749Y-148243749D03*
X346074999Y-145443749D03*
X346074999Y-148243749D03*
D14*
X265127999Y-56290999D03*
X265127999Y-60040999D03*
X259127999Y-56290999D03*
X259127999Y-60040999D03*
D12*
X346074999Y-88293749D03*
X346074999Y-91093749D03*
D15*
X238125000Y-49218750D03*
X238125000Y-50793750D03*
D12*
X146049999Y-107343749D03*
X146049999Y-110143749D03*
X203199999Y-117287499D03*
X203199999Y-114487499D03*
X241299999Y-107343749D03*
X241299999Y-110143749D03*
X93662499Y-69243749D03*
X93662499Y-72043749D03*
X150812499Y-79187499D03*
X150812499Y-76387499D03*
X382587499Y-145443749D03*
X382587499Y-148243749D03*
D16*
X241750000Y-65920000D03*
X241750000Y-66880000D03*
D12*
X60324999Y-88293749D03*
X60324999Y-91093749D03*
X141287499Y-88293749D03*
X141287499Y-91093749D03*
X255587499Y-88293749D03*
X255587499Y-91093749D03*
X150812499Y-40668749D03*
X150812499Y-43468749D03*
D17*
X244345000Y-64490600D03*
X245305000Y-64490600D03*
D12*
X274637499Y-88293749D03*
X274637499Y-91093749D03*
X131762499Y-40668749D03*
X131762499Y-43468749D03*
X84137499Y-88293749D03*
X84137499Y-91093749D03*
X131762499Y-69243749D03*
X131762499Y-72043749D03*
X265112499Y-40668749D03*
X265112499Y-43468749D03*
X112712499Y-69243749D03*
X112712499Y-72043749D03*
X165099999Y-117287499D03*
X165099999Y-114487499D03*
D18*
X230600000Y-67525000D03*
X230600000Y-65875000D03*
D19*
X241909600Y-54662800D03*
X241909600Y-53642800D03*
D12*
X103187499Y-88293749D03*
X103187499Y-91093749D03*
D13*
X240002000Y-55295800D03*
X239042000Y-55295800D03*
D12*
X284162499Y-69243749D03*
X284162499Y-72043749D03*
D20*
X254732951Y-53690274D03*
X253834926Y-54588300D03*
X252936900Y-55486326D03*
X252038874Y-56384351D03*
X246866247Y-51211724D03*
X247764272Y-50313698D03*
X248662298Y-49415672D03*
X249560324Y-48517647D03*
D12*
X62706249Y-107343749D03*
X62706249Y-110143749D03*
X269874999Y-126393749D03*
X269874999Y-129193749D03*
X55562499Y-40668749D03*
X55562499Y-43468749D03*
D21*
X236350000Y-50800000D03*
X233550000Y-50800000D03*
D12*
X265112499Y-72043749D03*
X265112499Y-69243749D03*
X303212499Y-40668749D03*
X303212499Y-43468749D03*
D22*
X226796500Y-64516000D03*
X228371500Y-64516000D03*
D23*
X245268750Y-47181000D03*
X245268750Y-48831000D03*
D12*
X272256249Y-145443749D03*
X272256249Y-148243749D03*
X155574999Y-136337499D03*
X155574999Y-133537499D03*
X177006249Y-145443749D03*
X177006249Y-148243749D03*
X236537499Y-88293749D03*
X236537499Y-91093749D03*
X215106249Y-40668749D03*
X215106249Y-43468749D03*
X312737499Y-69243749D03*
X312737499Y-72043749D03*
X346074999Y-40668749D03*
X346074999Y-43468749D03*
X234156249Y-40668749D03*
X234156249Y-43468749D03*
X174624999Y-136337499D03*
X174624999Y-133537499D03*
X365124999Y-145443749D03*
X365124999Y-148243749D03*
D14*
X214581999Y-56290999D03*
X214581999Y-60040999D03*
X208581999Y-56290999D03*
X208581999Y-60040999D03*
D12*
X81756249Y-145443749D03*
X81756249Y-148243749D03*
X188912499Y-69243749D03*
X188912499Y-72043749D03*
X122237499Y-88293749D03*
X122237499Y-91093749D03*
X184149999Y-117287499D03*
X184149999Y-114487499D03*
D24*
X254426776Y-57409024D03*
X255148024Y-56687776D03*
D12*
X248443749Y-145443749D03*
X248443749Y-148243749D03*
X169862499Y-69243749D03*
X169862499Y-72043749D03*
X198437499Y-40668749D03*
X198437499Y-43468749D03*
D25*
X231140000Y-62674500D03*
X228440000Y-62674500D03*
D12*
X322262499Y-40668749D03*
X322262499Y-43468749D03*
X74612499Y-69243749D03*
X74612499Y-72043749D03*
X55562499Y-69243749D03*
X55562499Y-72043749D03*
D26*
X247012399Y-56889649D03*
X247012399Y-57296049D03*
X247012399Y-57702449D03*
X247012399Y-58108849D03*
X247012399Y-58515249D03*
X247012399Y-58921649D03*
X247012399Y-59328049D03*
X247012399Y-59734449D03*
X247012399Y-60140849D03*
X247012399Y-60547249D03*
X247012399Y-60953649D03*
X247012399Y-61360049D03*
X247012399Y-61766449D03*
X247012399Y-62172849D03*
D27*
X246252799Y-62932449D03*
X245846399Y-62932449D03*
X245439999Y-62932449D03*
X245033599Y-62932449D03*
X244627199Y-62932449D03*
X244220799Y-62932449D03*
X243814399Y-62932449D03*
X243407999Y-62932449D03*
X243001599Y-62932449D03*
X242595199Y-62932449D03*
X242188799Y-62932449D03*
X241782399Y-62932449D03*
X241375999Y-62932449D03*
X240969599Y-62932449D03*
D26*
X240209999Y-62172849D03*
X240209999Y-61766449D03*
X240209999Y-61360049D03*
X240209999Y-60953649D03*
X240209999Y-60547249D03*
X240209999Y-60140849D03*
X240209999Y-59734449D03*
X240209999Y-59328049D03*
X240209999Y-58921649D03*
X240209999Y-58515249D03*
X240209999Y-58108849D03*
X240209999Y-57702449D03*
X240209999Y-57296049D03*
X240209999Y-56889649D03*
D27*
X240969599Y-56130049D03*
X241375999Y-56130049D03*
X241782399Y-56130049D03*
X242188799Y-56130049D03*
X242595199Y-56130049D03*
X243001599Y-56130049D03*
X243407999Y-56130049D03*
X243814399Y-56130049D03*
X244220799Y-56130049D03*
X244627199Y-56130049D03*
X245033599Y-56130049D03*
X245439999Y-56130049D03*
X245846399Y-56130049D03*
X246252799Y-56130049D03*
D28*
X230634000Y-64516000D03*
X229614000Y-64516000D03*
D12*
X227012499Y-79187499D03*
X227012499Y-76387499D03*
X346074999Y-69243749D03*
X346074999Y-72043749D03*
X231774999Y-136337499D03*
X231774999Y-133537499D03*
D25*
X229442000Y-53149500D03*
X226742000Y-53149500D03*
D12*
X222249999Y-117287499D03*
X222249999Y-114487499D03*
X319881249Y-107762499D03*
X319881249Y-104962499D03*
X91281249Y-40668749D03*
X91281249Y-43468749D03*
D13*
X239091200Y-56769000D03*
X238131200Y-56769000D03*
D12*
X279399999Y-107343749D03*
X279399999Y-110143749D03*
X207962499Y-69243749D03*
X207962499Y-72043749D03*
D17*
X248109800Y-56388000D03*
X249069800Y-56388000D03*
D12*
X57943749Y-145443749D03*
X57943749Y-148243749D03*
D29*
X254659563Y-50773763D03*
X253492837Y-49607037D03*
D12*
X284162499Y-40668749D03*
X284162499Y-43468749D03*
X126999999Y-107343749D03*
X126999999Y-110143749D03*
X293687499Y-88293749D03*
X293687499Y-91093749D03*
D16*
X240825000Y-65170000D03*
X240825000Y-66130000D03*
D12*
X88899999Y-107343749D03*
X88899999Y-110143749D03*
D30*
X243840000Y-54658200D03*
X243840000Y-53698200D03*
D12*
X179387499Y-88293749D03*
X179387499Y-91093749D03*
X98424999Y-126393749D03*
X98424999Y-129193749D03*
X381793749Y-91093749D03*
X381793749Y-88293749D03*
X117474999Y-126393749D03*
X117474999Y-129193749D03*
X381793749Y-43468749D03*
X381793749Y-40668749D03*
X365124999Y-69243749D03*
X365124999Y-72043749D03*
X319881249Y-145443749D03*
X319881249Y-148243749D03*
D31*
X239687499Y-45409999D03*
X240487499Y-45409999D03*
D32*
X241637499Y-45409999D03*
X242637499Y-45409999D03*
X243137499Y-45409999D03*
X244137499Y-45409999D03*
D31*
X245287499Y-45409999D03*
X246087499Y-45409999D03*
X246087499Y-45409999D03*
X245287499Y-45409999D03*
D32*
X244637499Y-45409999D03*
X243637499Y-45409999D03*
X242137499Y-45409999D03*
X241137499Y-45409999D03*
D31*
X240487499Y-45409999D03*
X239687499Y-45409999D03*
D12*
X296068749Y-107343749D03*
X296068749Y-110143749D03*
X362743749Y-40668749D03*
X362743749Y-43468749D03*
D19*
X242900200Y-54662800D03*
X242900200Y-53642800D03*
D12*
X250824999Y-126393749D03*
X250824999Y-129193749D03*
D30*
X243128800Y-68983800D03*
X243128800Y-68023800D03*
D12*
X193674999Y-136337499D03*
X193674999Y-133537499D03*
X365124999Y-126393749D03*
X365124999Y-129193749D03*
X381793749Y-72043749D03*
X381793749Y-69243749D03*
X217487499Y-98237499D03*
X217487499Y-95437499D03*
X365124999Y-88293749D03*
X365124999Y-91093749D03*
D33*
X224941999Y-60211999D03*
X224941999Y-57911999D03*
D34*
X231241999Y-57911999D03*
D33*
X224941999Y-55611999D03*
D17*
X248306478Y-60546907D03*
X249266478Y-60546907D03*
D12*
X112712499Y-40668749D03*
X112712499Y-43468749D03*
D30*
X240911200Y-54980000D03*
X240911200Y-54020000D03*
D12*
X317499999Y-97443749D03*
X317499999Y-94643749D03*
X212724999Y-136337499D03*
X212724999Y-133537499D03*
X136524999Y-126393749D03*
X136524999Y-129193749D03*
D35*
X246137799Y-65955999D03*
X246137799Y-68155999D03*
X244437799Y-68155999D03*
X244437799Y-65955999D03*
D23*
X240563400Y-47155600D03*
X240563400Y-48805600D03*
D30*
X245008400Y-54099400D03*
X245008400Y-53139400D03*
D36*
X243103400Y-66139600D03*
X243103400Y-67159600D03*
D12*
X246062499Y-79981249D03*
X246062499Y-77181249D03*
X79374999Y-126393749D03*
X79374999Y-129193749D03*
X296068749Y-145443749D03*
X296068749Y-148243749D03*
X260349999Y-107343749D03*
X260349999Y-110143749D03*
X107949999Y-107343749D03*
X107949999Y-110143749D03*
X305593749Y-126393749D03*
X305593749Y-129193749D03*
X58549999Y-125599999D03*
X58549999Y-128399999D03*
X179387499Y-40668749D03*
X179387499Y-43468749D03*
D16*
X215798400Y-60045600D03*
X215798400Y-61005600D03*
M02*
