M48
; DRILL file {KiCad (7.0.0)} date Mon Feb 27 14:14:32 2023
; FORMAT={-:-/ absolute / metric / decimal}
; #@! TF.CreationDate,2023-02-27T14:14:32+01:00
; #@! TF.GenerationSoftware,Kicad,Pcbnew,(7.0.0)
; #@! TF.FileFunction,NonPlated,1,2,NPTH
FMAT,2
METRIC
; #@! TA.AperFunction,NonPlated,NPTH,ComponentDrill
T1C0.600
; #@! TA.AperFunction,NonPlated,NPTH,ComponentDrill
T2C1.700
; #@! TA.AperFunction,NonPlated,NPTH,ComponentDrill
T3C3.050
; #@! TA.AperFunction,NonPlated,NPTH,ComponentDrill
T4C4.000
%
G90
G05
T1
X239.998Y-44.35
X245.777Y-44.35
T2
X42.545Y-47.625
X42.545Y-76.2
X44.926Y-114.3
X44.926Y-133.35
X44.926Y-152.4
X47.307Y-95.25
X49.689Y-114.3
X52.705Y-47.625
X52.705Y-76.2
X54.451Y-133.35
X55.086Y-114.3
X55.086Y-133.35
X55.086Y-152.4
X57.467Y-95.25
X59.849Y-114.3
X61.595Y-76.2
X64.611Y-133.35
X66.358Y-133.35
X68.739Y-152.4
X71.12Y-95.25
X71.755Y-76.2
X75.882Y-114.3
X76.517Y-133.35
X78.899Y-152.4
X80.645Y-47.625
X80.645Y-76.2
X81.28Y-95.25
X85.407Y-133.35
X86.042Y-114.3
X90.17Y-95.25
X90.805Y-47.625
X90.805Y-76.2
X92.551Y-152.4
X94.932Y-114.3
X95.567Y-133.35
X99.695Y-47.625
X99.695Y-76.2
X100.33Y-95.25
X102.711Y-152.4
X104.457Y-133.35
X105.093Y-114.3
X109.22Y-95.25
X109.855Y-47.625
X109.855Y-76.2
X113.983Y-114.3
X114.617Y-133.35
X118.745Y-47.625
X118.745Y-76.2
X119.38Y-95.25
X123.507Y-133.35
X124.142Y-114.3
X128.27Y-95.25
X128.905Y-47.625
X128.905Y-76.2
X133.032Y-114.3
X133.667Y-133.35
X137.795Y-47.625
X137.795Y-76.2
X138.43Y-95.25
X142.558Y-133.35
X143.192Y-114.3
X147.32Y-95.25
X147.955Y-47.625
X147.955Y-76.2
X152.082Y-114.3
X152.718Y-133.35
X156.845Y-76.2
X157.48Y-95.25
X161.607Y-133.35
X162.243Y-114.3
X163.989Y-152.4
X166.37Y-47.625
X166.37Y-95.25
X167.005Y-76.2
X171.132Y-114.3
X171.767Y-133.35
X174.149Y-152.4
X175.895Y-76.2
X176.53Y-47.625
X176.53Y-95.25
X180.657Y-133.35
X181.292Y-114.3
X185.42Y-47.625
X185.42Y-95.25
X186.055Y-76.2
X190.183Y-114.3
X190.817Y-133.35
X194.945Y-76.2
X195.58Y-47.625
X195.58Y-95.25
X199.707Y-133.35
X200.343Y-114.3
X204.47Y-47.625
X204.47Y-95.25
X205.105Y-76.2
X209.232Y-114.3
X209.867Y-133.35
X213.995Y-76.2
X214.63Y-47.625
X214.63Y-95.25
X218.757Y-133.35
X219.392Y-114.3
X223.52Y-47.625
X223.52Y-95.25
X224.155Y-76.2
X228.282Y-114.3
X228.917Y-133.35
X233.045Y-76.2
X233.68Y-47.625
X233.68Y-95.25
X235.426Y-152.4
X237.807Y-133.35
X238.442Y-114.3
X242.57Y-95.25
X243.205Y-76.2
X245.586Y-152.4
X247.332Y-114.3
X247.968Y-133.35
X252.095Y-47.625
X252.095Y-76.2
X252.73Y-95.25
X256.858Y-133.35
X257.493Y-114.3
X259.239Y-152.4
X261.62Y-95.25
X262.255Y-47.625
X262.255Y-76.2
X266.382Y-114.3
X267.017Y-133.35
X269.399Y-152.4
X271.145Y-47.625
X271.145Y-76.2
X271.78Y-95.25
X276.542Y-114.3
X280.67Y-95.25
X281.305Y-47.625
X281.305Y-76.2
X283.051Y-152.4
X285.433Y-114.3
X290.195Y-47.625
X290.83Y-95.25
X292.576Y-133.35
X293.211Y-152.4
X295.592Y-114.3
X297.339Y-114.3
X299.72Y-76.2
X300.355Y-47.625
X302.736Y-133.35
X304.482Y-95.25
X306.864Y-104.775
X306.864Y-152.4
X307.499Y-114.3
X309.245Y-47.625
X309.88Y-76.2
X314.642Y-95.25
X317.024Y-104.775
X317.024Y-152.4
X319.405Y-47.625
X333.058Y-47.625
X333.058Y-76.2
X333.058Y-95.25
X333.058Y-152.4
X343.217Y-47.625
X343.217Y-76.2
X343.217Y-95.25
X343.217Y-152.4
X352.107Y-47.625
X352.107Y-76.2
X352.107Y-95.25
X352.107Y-133.35
X352.107Y-152.4
X362.267Y-47.625
X362.267Y-76.2
X362.267Y-95.25
X362.267Y-133.35
X362.267Y-152.4
X371.157Y-47.625
X371.157Y-76.2
X371.157Y-95.25
X371.157Y-152.4
X381.317Y-47.625
X381.317Y-76.2
X381.317Y-95.25
X381.317Y-152.4
T3
X47.631Y-126.35
X71.431Y-126.35
X119.069Y-145.4
X219.069Y-145.4
X285.756Y-126.35
X290.519Y-107.3
X292.9Y-69.2
X304.944Y-92.875
X304.944Y-116.675
X309.556Y-126.35
X314.319Y-107.3
X316.7Y-69.2
T4
X47.625Y-47.625
X47.625Y-76.2
X47.631Y-141.59
X50.006Y-114.3
X50.006Y-133.35
X50.006Y-152.4
X52.387Y-95.25
X54.769Y-114.3
X59.531Y-133.35
X66.675Y-76.2
X71.431Y-141.59
X71.438Y-133.35
X73.819Y-152.4
X76.2Y-95.25
X80.962Y-114.3
X85.725Y-47.625
X85.725Y-76.2
X90.487Y-133.35
X95.25Y-95.25
X97.631Y-152.4
X100.012Y-114.3
X104.775Y-47.625
X104.775Y-76.2
X109.537Y-133.35
X114.3Y-95.25
X119.062Y-114.3
X119.069Y-160.64
X123.825Y-47.625
X123.825Y-76.2
X128.588Y-133.35
X133.35Y-95.25
X138.112Y-114.3
X142.875Y-47.625
X142.875Y-76.2
X147.637Y-133.35
X152.4Y-95.25
X157.162Y-114.3
X161.925Y-76.2
X166.688Y-133.35
X169.069Y-152.4
X171.45Y-47.625
X171.45Y-95.25
X176.213Y-114.3
X180.975Y-76.2
X185.737Y-133.35
X190.5Y-47.625
X190.5Y-95.25
X195.262Y-114.3
X200.025Y-76.2
X204.787Y-133.35
X209.55Y-47.625
X209.55Y-95.25
X214.312Y-114.3
X219.069Y-160.64
X219.075Y-76.2
X223.837Y-133.35
X228.6Y-47.625
X228.6Y-95.25
X233.362Y-114.3
X238.125Y-76.2
X240.506Y-152.4
X242.887Y-133.35
X247.65Y-95.25
X252.412Y-114.3
X257.175Y-47.625
X257.175Y-76.2
X261.938Y-133.35
X264.319Y-152.4
X266.7Y-95.25
X271.462Y-114.3
X276.225Y-47.625
X276.225Y-76.2
X285.75Y-95.25
X285.756Y-141.59
X288.131Y-152.4
X290.512Y-114.3
X290.519Y-122.54
X292.9Y-84.44
X295.275Y-47.625
X297.656Y-133.35
X302.419Y-114.3
X304.8Y-76.2
X309.556Y-141.59
X309.562Y-95.25
X311.944Y-104.775
X311.944Y-152.4
X314.319Y-122.54
X314.325Y-47.625
X316.7Y-84.44
X320.184Y-92.875
X320.184Y-116.675
X338.137Y-47.625
X338.137Y-76.2
X338.137Y-95.25
X338.137Y-152.4
X357.188Y-47.625
X357.188Y-76.2
X357.188Y-95.25
X357.188Y-133.35
X357.188Y-152.4
X376.238Y-47.625
X376.238Y-76.2
X376.238Y-95.25
X376.238Y-152.4
T0
M30
