M48
; DRILL file {KiCad (7.0.0)} date Mon Feb 27 14:14:32 2023
; FORMAT={-:-/ absolute / metric / decimal}
; #@! TF.CreationDate,2023-02-27T14:14:32+01:00
; #@! TF.GenerationSoftware,Kicad,Pcbnew,(7.0.0)
; #@! TF.FileFunction,Plated,1,2,PTH
FMAT,2
METRIC
; #@! TA.AperFunction,Plated,PTH,ViaDrill
T1C0.300
; #@! TA.AperFunction,Plated,PTH,ComponentDrill
T2C0.300
; #@! TA.AperFunction,Plated,PTH,ViaDrill
T3C0.500
; #@! TA.AperFunction,Plated,PTH,ComponentDrill
T4C0.600
; #@! TA.AperFunction,Plated,PTH,ComponentDrill
T5C1.500
; #@! TA.AperFunction,Plated,PTH,ComponentDrill
T6C3.200
%
G90
G05
T1
X211.582Y-56.261
X226.441Y-50.419
X226.441Y-51.562
X226.822Y-61.468
X226.822Y-62.23
X226.822Y-62.992
X227.711Y-65.532
X228.727Y-66.421
X229.362Y-59.563
X232.1Y-66.9
X232.283Y-63.627
X232.85Y-61.65
X232.918Y-64.262
X233.68Y-64.897
X234.188Y-65.532
X234.696Y-64.897
X234.696Y-66.167
X235.077Y-136.338
X236.087Y-58.922
X236.093Y-58.109
X236.093Y-59.734
X236.093Y-66.802
X237.1Y-60.5
X237.6Y-56.8
X238.4Y-55.3
X240.1Y-65.2
X240.24Y-66.22
X241.58Y-67.45
X242.422Y-65.488
X242.45Y-67.625
X242.45Y-69.4
X243.296Y-64.625
X244.05Y-69.425
X244.277Y-54.341
X244.3Y-53.1
X244.7Y-65.0
X245.364Y-61.849
X245.475Y-67.1
X245.65Y-69.425
X245.745Y-53.724
X245.999Y-61.214
X245.999Y-61.849
X246.3Y-48.5
X246.6Y-64.827
X247.25Y-66.225
X247.25Y-67.825
X247.25Y-69.425
X248.412Y-70.739
X248.802Y-57.112
X249.8Y-56.9
X249.9Y-60.5
X250.3Y-58.3
X250.8Y-58.9
X251.104Y-55.448
X251.3Y-59.5
X251.8Y-60.2
X251.8Y-63.1
X251.8Y-64.7
X251.8Y-66.3
X252.095Y-62.3
X252.095Y-63.9
X252.095Y-65.5
X252.095Y-67.1
X255.905Y-57.785
X256.667Y-58.547
X257.048Y-67.1
X257.175Y-63.119
X257.175Y-64.7
X257.429Y-59.309
X257.556Y-62.3
X257.556Y-63.881
X257.677Y-66.3
X258.286Y-65.5
X259.08Y-107.344
X259.588Y-126.394
X261.366Y-67.691
X263.144Y-67.691
X264.668Y-88.294
X264.922Y-67.691
T2
X242.341Y-59.531
X243.611Y-58.261
X243.611Y-59.531
X243.611Y-60.801
X244.881Y-59.531
T3
X50.006Y-129.381
X50.8Y-47.625
X50.8Y-76.2
X53.181Y-152.4
X55.562Y-95.25
X57.944Y-114.3
X69.85Y-76.2
X74.612Y-133.35
X76.994Y-152.4
X79.375Y-95.25
X84.138Y-114.3
X88.9Y-47.625
X88.9Y-76.2
X93.662Y-133.35
X98.425Y-95.25
X100.806Y-152.4
X103.188Y-114.3
X107.95Y-47.625
X107.95Y-76.2
X112.712Y-133.35
X117.475Y-95.25
X122.237Y-114.3
X127.0Y-47.625
X127.0Y-76.2
X131.762Y-133.35
X136.525Y-95.25
X141.287Y-114.3
X146.05Y-47.625
X146.05Y-76.2
X150.812Y-133.35
X155.575Y-95.25
X160.338Y-114.3
X165.1Y-76.2
X169.862Y-133.35
X172.244Y-152.4
X174.625Y-47.625
X174.625Y-95.25
X179.387Y-114.3
X184.15Y-76.2
X188.912Y-133.35
X193.675Y-47.625
X193.675Y-95.25
X198.438Y-114.3
X203.2Y-76.2
X207.962Y-133.35
X212.725Y-47.625
X212.725Y-95.25
X217.487Y-114.3
X222.25Y-76.2
X222.885Y-57.404
X226.949Y-60.212
X227.012Y-133.35
X228.092Y-60.452
X231.775Y-47.625
X231.775Y-95.25
X234.156Y-70.644
X236.537Y-114.3
X239.0Y-46.7
X240.5Y-53.0
X240.6Y-50.3
X241.3Y-76.2
X244.475Y-48.419
X246.062Y-71.438
X246.062Y-75.406
X246.062Y-133.35
X246.7Y-46.6
X250.031Y-46.831
X250.031Y-69.85
X250.825Y-52.387
X250.825Y-95.25
X251.619Y-81.756
X255.587Y-114.3
X260.35Y-47.625
X260.35Y-76.2
X262.255Y-56.261
X265.113Y-133.35
X269.875Y-95.25
X270.669Y-71.438
X274.637Y-114.3
X279.4Y-47.625
X279.4Y-76.2
X288.925Y-95.25
X291.306Y-152.4
X293.688Y-114.3
X298.45Y-47.625
X300.831Y-133.35
X305.594Y-114.3
X307.975Y-76.2
X312.738Y-95.25
X315.119Y-104.775
X315.119Y-152.4
X317.5Y-47.625
X333.375Y-90.487
X341.312Y-47.625
X341.312Y-76.2
X341.312Y-95.25
X341.312Y-152.4
X351.631Y-128.588
X354.012Y-101.6
X360.363Y-47.625
X360.363Y-76.2
X360.363Y-95.25
X360.363Y-133.35
X372.428Y-146.05
X373.062Y-101.6
X377.825Y-73.025
X377.825Y-92.075
T5
X43.815Y-45.085
X43.815Y-73.66
X46.196Y-111.76
X46.196Y-130.81
X46.196Y-149.86
X48.578Y-92.71
X50.165Y-42.545
X50.165Y-71.12
X50.959Y-111.76
X52.546Y-109.22
X52.546Y-128.27
X52.546Y-147.32
X54.927Y-90.17
X55.721Y-130.81
X57.309Y-109.22
X62.071Y-128.27
X62.865Y-73.66
X67.627Y-130.81
X69.215Y-71.12
X70.009Y-149.86
X72.39Y-92.71
X73.977Y-128.27
X76.359Y-147.32
X77.153Y-111.76
X78.74Y-90.17
X81.915Y-45.085
X81.915Y-73.66
X83.502Y-109.22
X86.677Y-130.81
X88.265Y-42.545
X88.265Y-71.12
X91.44Y-92.71
X93.027Y-128.27
X93.821Y-149.86
X96.203Y-111.76
X97.79Y-90.17
X100.171Y-147.32
X100.965Y-45.085
X100.965Y-73.66
X102.552Y-109.22
X105.727Y-130.81
X107.315Y-42.545
X107.315Y-71.12
X110.49Y-92.71
X112.078Y-128.27
X115.252Y-111.76
X116.84Y-90.17
X120.015Y-45.085
X120.015Y-73.66
X121.602Y-109.22
X124.777Y-130.81
X126.365Y-42.545
X126.365Y-71.12
X129.54Y-92.71
X131.127Y-128.27
X134.302Y-111.76
X135.89Y-90.17
X139.065Y-45.085
X139.065Y-73.66
X140.653Y-109.22
X143.827Y-130.81
X145.415Y-42.545
X145.415Y-71.12
X148.59Y-92.71
X150.177Y-128.27
X153.352Y-111.76
X154.94Y-90.17
X158.115Y-73.66
X159.702Y-109.22
X162.877Y-130.81
X164.465Y-71.12
X165.259Y-149.86
X167.64Y-45.085
X167.64Y-92.71
X169.227Y-128.27
X171.609Y-147.32
X172.403Y-111.76
X173.99Y-42.545
X173.99Y-90.17
X177.165Y-73.66
X178.752Y-109.22
X181.927Y-130.81
X183.515Y-71.12
X186.69Y-45.085
X186.69Y-92.71
X188.278Y-128.27
X191.452Y-111.76
X193.04Y-42.545
X193.04Y-90.17
X196.215Y-73.66
X197.802Y-109.22
X200.977Y-130.81
X202.565Y-71.12
X205.74Y-45.085
X205.74Y-92.71
X207.327Y-128.27
X210.502Y-111.76
X212.09Y-42.545
X212.09Y-90.17
X215.265Y-73.66
X216.852Y-109.22
X220.028Y-130.81
X221.615Y-71.12
X224.79Y-45.085
X224.79Y-92.71
X226.377Y-128.27
X229.552Y-111.76
X231.14Y-42.545
X231.14Y-90.17
X234.315Y-73.66
X235.903Y-109.22
X236.696Y-149.86
X239.077Y-130.81
X240.665Y-71.12
X243.046Y-147.32
X243.84Y-92.71
X245.427Y-128.27
X248.602Y-111.76
X250.19Y-90.17
X253.365Y-45.085
X253.365Y-73.66
X254.952Y-109.22
X258.127Y-130.81
X259.715Y-42.545
X259.715Y-71.12
X260.509Y-149.86
X262.89Y-92.71
X264.477Y-128.27
X266.859Y-147.32
X267.652Y-111.76
X269.24Y-90.17
X272.415Y-45.085
X272.415Y-73.66
X274.002Y-109.22
X278.765Y-42.545
X278.765Y-71.12
X281.94Y-92.71
X284.321Y-149.86
X286.702Y-111.76
X288.29Y-90.17
X290.671Y-147.32
X291.465Y-45.085
X293.053Y-109.22
X293.846Y-130.81
X297.815Y-42.545
X298.609Y-111.76
X300.196Y-128.27
X300.99Y-73.66
X304.959Y-109.22
X305.752Y-92.71
X307.34Y-71.12
X308.134Y-102.235
X308.134Y-149.86
X310.515Y-45.085
X312.102Y-90.17
X314.484Y-99.695
X314.484Y-147.32
X316.865Y-42.545
X334.327Y-45.085
X334.327Y-73.66
X334.327Y-92.71
X334.327Y-149.86
X340.678Y-42.545
X340.678Y-71.12
X340.678Y-90.17
X340.678Y-147.32
X353.377Y-45.085
X353.377Y-73.66
X353.377Y-92.71
X353.377Y-130.81
X353.377Y-149.86
X359.727Y-42.545
X359.727Y-71.12
X359.727Y-90.17
X359.727Y-128.27
X359.727Y-147.32
X372.428Y-45.085
X372.428Y-73.66
X372.428Y-92.71
X372.428Y-149.86
X378.777Y-42.545
X378.777Y-71.12
X378.777Y-90.17
X378.777Y-147.32
T6
X47.625Y-104.775
X95.25Y-45.244
X109.537Y-154.781
X161.925Y-104.775
X219.075Y-45.244
X252.412Y-154.781
X297.656Y-102.394
X366.712Y-45.244
X366.712Y-154.781
T4
X238.567Y-40.26G85X238.567Y-41.06
G05
X238.567Y-44.28G85X238.567Y-45.38
G05
X247.207Y-40.26G85X247.207Y-41.06
G05
X247.207Y-44.28G85X247.207Y-45.38
G05
T0
M30
