G04 #@! TF.GenerationSoftware,KiCad,Pcbnew,(7.0.0)*
G04 #@! TF.CreationDate,2023-02-27T14:32:52+01:00*
G04 #@! TF.ProjectId,Belja80_plate,42656c6a-6138-4305-9f70-6c6174652e6b,1.0*
G04 #@! TF.SameCoordinates,Original*
G04 #@! TF.FileFunction,Profile,NP*
%FSLAX46Y46*%
G04 Gerber Fmt 4.6, Leading zero omitted, Abs format (unit mm)*
G04 Created by KiCad (PCBNEW (7.0.0)) date 2023-02-27 14:32:52*
%MOMM*%
%LPD*%
G01*
G04 APERTURE LIST*
G04 #@! TA.AperFunction,Profile*
%ADD10C,0.100000*%
G04 #@! TD*
G04 APERTURE END LIST*
D10*
X262874915Y-87961500D02*
X262874915Y-73962500D01*
X303067915Y-154212300D02*
X304591915Y-154212300D01*
X143523915Y-87961500D02*
X129523215Y-87961500D01*
X267348915Y-121587400D02*
X267348915Y-135586700D01*
X162573915Y-102537400D02*
X162573915Y-116536700D01*
X313562915Y-124562400D02*
X312362915Y-124562400D01*
X205724915Y-116536700D02*
X205724915Y-102537400D01*
X169717915Y-178737400D02*
X155716915Y-178737400D01*
X257823915Y-87961500D02*
X243824915Y-87961500D01*
X124473915Y-73962500D02*
X124473915Y-87961500D01*
X36655825Y-173686900D02*
X39631005Y-173686900D01*
X288198915Y-117506900D02*
X288198915Y-116306700D01*
X258111915Y-154636700D02*
X258111915Y-140637400D01*
X74467715Y-192736860D02*
X60466915Y-192736860D01*
X243536915Y-173686900D02*
X229536915Y-173686900D01*
X291449915Y-107237900D02*
X289923915Y-107237900D01*
X84280915Y-192736860D02*
X84280915Y-178737400D01*
X227155915Y-192736860D02*
X227155915Y-178737400D01*
X172098915Y-121587400D02*
X172098915Y-135586700D01*
X253061915Y-140637400D02*
X253061915Y-154636700D01*
X129236415Y-173686900D02*
X115237115Y-173686900D01*
X91136415Y-159687500D02*
X91136415Y-173686900D01*
X186674915Y-116536700D02*
X186674915Y-102537400D01*
X304591915Y-154212300D02*
X304591915Y-154406700D01*
X53324615Y-116536700D02*
X53324615Y-102537400D01*
X298304915Y-168987800D02*
X299830915Y-168987800D01*
X343836915Y-116536700D02*
X343836915Y-102537400D01*
X138761915Y-140637400D02*
X138761915Y-154636700D01*
X308699915Y-116306700D02*
X308699915Y-117506900D01*
X314549915Y-110036800D02*
X314549915Y-107237900D01*
X100661415Y-140637400D02*
X100661415Y-154636700D01*
X281054915Y-174657000D02*
X281054915Y-173456700D01*
X324786915Y-87961500D02*
X324786915Y-73962500D01*
X243824915Y-73962500D02*
X257823915Y-73962500D01*
X295923915Y-87961500D02*
X281924915Y-87961500D01*
X95898915Y-135586700D02*
X81899615Y-135586700D01*
X313723915Y-110036800D02*
X314549915Y-110036800D01*
X34274565Y-116536700D02*
X34274565Y-102537400D01*
X72374615Y-102537400D02*
X86373915Y-102537400D01*
X277161915Y-140637400D02*
X277161915Y-154636700D01*
X76848915Y-135586700D02*
X62849615Y-135586700D01*
X295923915Y-73962500D02*
X295923915Y-87961500D01*
X357836915Y-135586700D02*
X343836915Y-135586700D01*
X105423915Y-73962500D02*
X105423915Y-87961500D01*
X53324615Y-102537400D02*
X67323915Y-102537400D01*
X282780915Y-164387900D02*
X282780915Y-161157700D01*
X282780915Y-161157700D02*
X276030915Y-161157700D01*
X324786915Y-192736860D02*
X324786915Y-178737400D01*
X216092915Y-180207700D02*
X209341915Y-180207700D01*
X257823915Y-73962500D02*
X257823915Y-87961500D01*
X219723915Y-102537400D02*
X219723915Y-116536700D01*
X105423915Y-87961500D02*
X91424615Y-87961500D01*
X191148915Y-121587400D02*
X191148915Y-135586700D01*
X196199915Y-87961500D02*
X196199915Y-73962500D01*
X362886915Y-87961500D02*
X362886915Y-73962500D01*
X277161915Y-154636700D02*
X282516915Y-154636700D01*
X310211915Y-122837300D02*
X310211915Y-121587400D01*
X36512500Y-71437500D02*
G75*
G03*
X31750000Y-76200000I0J-4762500D01*
G01*
X155716915Y-188037770D02*
X155716915Y-192736860D01*
X157811915Y-140637400D02*
X157811915Y-154636700D01*
X39631005Y-174657000D02*
X42930015Y-174657000D01*
X195911915Y-154636700D02*
X181911915Y-154636700D01*
X324786915Y-73962500D02*
X338786915Y-73962500D01*
X115237115Y-159687500D02*
X129236415Y-159687500D01*
X158099915Y-135586700D02*
X158099915Y-121587400D01*
X312166915Y-146637500D02*
X312166915Y-145111700D01*
X313562915Y-151661800D02*
X313562915Y-148362600D01*
X276030915Y-167186700D02*
X276030915Y-173456700D01*
X155716915Y-192736860D02*
X169717915Y-192736860D01*
X209341915Y-192506730D02*
X211066915Y-192506730D01*
X309617915Y-154406700D02*
X311342915Y-154406700D01*
X176861915Y-140637400D02*
X176861915Y-154636700D01*
X81611415Y-140637400D02*
X81611415Y-154636700D01*
X48274115Y-116536700D02*
X34274565Y-116536700D01*
X114948915Y-121587400D02*
X114948915Y-135586700D01*
X276873915Y-102537400D02*
X276873915Y-116536700D01*
X181623915Y-102537400D02*
X181623915Y-116536700D01*
X36512500Y-197643750D02*
X374650000Y-197643750D01*
X91424615Y-73962500D02*
X105423915Y-73962500D01*
X248586915Y-173686900D02*
X248586915Y-159687500D01*
X276030915Y-164387900D02*
X275204915Y-164387900D01*
X153336915Y-159687500D02*
X167336915Y-159687500D01*
X306974915Y-107237900D02*
X305448915Y-107237900D01*
X362886915Y-178737400D02*
X376886915Y-178737400D01*
X258111915Y-140637400D02*
X272111915Y-140637400D01*
X374650000Y-71437500D02*
X36512500Y-71437500D01*
X96187115Y-159687500D02*
X110186415Y-159687500D01*
X285815915Y-154636700D02*
X303067915Y-154636700D01*
X343836915Y-173686900D02*
X343836915Y-159687500D01*
X284304915Y-164387900D02*
X282780915Y-164387900D01*
X167336915Y-173686900D02*
X153336915Y-173686900D01*
X299830915Y-161157700D02*
X299830915Y-164387900D01*
X257823915Y-102537400D02*
X257823915Y-116536700D01*
X91424615Y-116536700D02*
X91424615Y-102537400D01*
X229536915Y-159687500D02*
X243536915Y-159687500D01*
X362886915Y-135586700D02*
X362886915Y-121587400D01*
X307405915Y-167186700D02*
X307405915Y-164387900D01*
X220011915Y-140637400D02*
X234011915Y-140637400D01*
X298591915Y-140637400D02*
X277161915Y-140637400D01*
X195911915Y-140637400D02*
X195911915Y-154636700D01*
X283174915Y-104007800D02*
X283174915Y-107237900D01*
X95898915Y-121587400D02*
X95898915Y-135586700D01*
X376886915Y-178737400D02*
X376886915Y-192736860D01*
X312592915Y-131112400D02*
X310211915Y-131112400D01*
X362886915Y-192736860D02*
X362886915Y-178737400D01*
X313723915Y-116306700D02*
X313723915Y-110036800D01*
X281924915Y-87961500D02*
X281924915Y-73962500D01*
X296211915Y-121587400D02*
X296211915Y-135586700D01*
X114948915Y-135586700D02*
X100949615Y-135586700D01*
X86373915Y-87961500D02*
X72374615Y-87961500D01*
X283174915Y-110036800D02*
X283174915Y-116306700D01*
X282348915Y-107237900D02*
X282348915Y-110036800D01*
X148572915Y-116536700D02*
X148572915Y-102537400D01*
X357836915Y-121587400D02*
X357836915Y-135586700D01*
X229536915Y-173686900D02*
X229536915Y-159687500D01*
X72374615Y-87961500D02*
X72374615Y-73962500D01*
X110474615Y-87961500D02*
X110474615Y-73962500D01*
X298304915Y-159687500D02*
X284304915Y-159687500D01*
X311998915Y-116306700D02*
X313723915Y-116306700D01*
X284304915Y-168987800D02*
X284304915Y-173686900D01*
X313723915Y-104007800D02*
X306974915Y-104007800D01*
X304591915Y-154406700D02*
X306316915Y-154406700D01*
X72374615Y-73962500D02*
X86373915Y-73962500D01*
X291449915Y-102537400D02*
X291449915Y-107237900D01*
X275204915Y-167186700D02*
X276030915Y-167186700D01*
X362886915Y-102537400D02*
X376886915Y-102537400D01*
X248298915Y-135586700D02*
X234299915Y-135586700D01*
X262874915Y-116536700D02*
X262874915Y-102537400D01*
X116093015Y-183437900D02*
X116093015Y-180207700D01*
X289923915Y-116306700D02*
X289923915Y-111837700D01*
X181911915Y-140637400D02*
X195911915Y-140637400D01*
X124762115Y-154636700D02*
X124762115Y-140637400D01*
X253349915Y-135586700D02*
X253349915Y-121587400D01*
X215249915Y-121587400D02*
X229248915Y-121587400D01*
X343836915Y-178737400D02*
X357836915Y-178737400D01*
X211066915Y-192506730D02*
X211066915Y-193707000D01*
X110474615Y-73962500D02*
X124473915Y-73962500D01*
X305448915Y-111837700D02*
X306974915Y-111837700D01*
X284304915Y-159687500D02*
X284304915Y-164387900D01*
X362886915Y-121587400D02*
X376886915Y-121587400D01*
X286398915Y-121587400D02*
X286398915Y-135586700D01*
X276873915Y-87961500D02*
X262874915Y-87961500D01*
X172098915Y-87961500D02*
X158099915Y-87961500D01*
X66730115Y-173686900D02*
X72086415Y-173686900D01*
X119711415Y-154636700D02*
X105712115Y-154636700D01*
X110186415Y-159687500D02*
X110186415Y-173686900D01*
X311342915Y-154406700D02*
X311342915Y-153386800D01*
X105712115Y-140637400D02*
X119711415Y-140637400D01*
X111066915Y-193707000D02*
X114367515Y-193707000D01*
X158099915Y-87961500D02*
X158099915Y-73962500D01*
X234011915Y-154636700D02*
X220011915Y-154636700D01*
X158099915Y-73962500D02*
X172098915Y-73962500D01*
X310211915Y-121587400D02*
X296211915Y-121587400D01*
X48274115Y-87961500D02*
X34274565Y-87961500D01*
X62849615Y-135586700D02*
X62849615Y-121587400D01*
X36655825Y-140637400D02*
X55417815Y-140637400D01*
X248586915Y-159687500D02*
X262586915Y-159687500D01*
X157811915Y-154636700D02*
X143811915Y-154636700D01*
X124473915Y-116536700D02*
X110474615Y-116536700D01*
X50655315Y-178737400D02*
X50655315Y-192736860D01*
X312592915Y-192736860D02*
X298591915Y-192736860D01*
X338786915Y-116536700D02*
X324786915Y-116536700D01*
X376886915Y-87961500D02*
X362886915Y-87961500D01*
X224486915Y-159687500D02*
X224486915Y-173686900D01*
X63429715Y-173686900D02*
X63429715Y-174657000D01*
X314973915Y-73962500D02*
X314973915Y-87961500D01*
X55417815Y-140637400D02*
X55417815Y-154636700D01*
X281054915Y-173456700D02*
X282780915Y-173456700D01*
X186386915Y-159687500D02*
X186386915Y-173686900D01*
X111066915Y-192506730D02*
X111066915Y-193707000D01*
X376886915Y-73962500D02*
X376886915Y-87961500D01*
X284304915Y-173686900D02*
X298304915Y-173686900D01*
X243824915Y-87961500D02*
X243824915Y-73962500D01*
X324786915Y-121587400D02*
X338786915Y-121587400D01*
X298591915Y-192736860D02*
X298591915Y-178737400D01*
X253349915Y-121587400D02*
X267348915Y-121587400D01*
X229248915Y-73962500D02*
X229248915Y-87961500D01*
X34274565Y-102537400D02*
X48274115Y-102537400D01*
X276030915Y-161157700D02*
X276030915Y-164387900D01*
X338786915Y-192736860D02*
X324786915Y-192736860D01*
X67323915Y-102537400D02*
X67323915Y-116536700D01*
X312166915Y-145111700D02*
X312592915Y-145111700D01*
X338786915Y-178737400D02*
X338786915Y-192736860D01*
X186386915Y-173686900D02*
X172386915Y-173686900D01*
X72086415Y-173686900D02*
X72086415Y-159687500D01*
X119999615Y-135586700D02*
X119999615Y-121587400D01*
X274780915Y-192736860D02*
X274780915Y-178737400D01*
X229248915Y-87961500D02*
X215249915Y-87961500D01*
X272111915Y-154636700D02*
X258111915Y-154636700D01*
X306579915Y-164387900D02*
X306579915Y-161157700D01*
X169717915Y-183437900D02*
X169717915Y-178737400D01*
X91424615Y-102537400D02*
X105423915Y-102537400D01*
X91424615Y-87961500D02*
X91424615Y-73962500D01*
X314549915Y-107237900D02*
X313723915Y-107237900D01*
X186674915Y-102537400D02*
X200673915Y-102537400D01*
X262874915Y-102537400D02*
X276873915Y-102537400D01*
X324786915Y-116536700D02*
X324786915Y-102537400D01*
X250966915Y-192736860D02*
X250966915Y-178737400D01*
X376886915Y-121587400D02*
X376886915Y-135586700D01*
X314973915Y-87961500D02*
X300974915Y-87961500D01*
X282348915Y-110036800D02*
X283174915Y-110036800D01*
X262586915Y-173686900D02*
X248586915Y-173686900D01*
X81899615Y-121587400D02*
X95898915Y-121587400D01*
X312362915Y-124562400D02*
X312362915Y-122837300D01*
X311342915Y-153386800D02*
X312362915Y-153386800D01*
X191436915Y-173686900D02*
X191436915Y-159687500D01*
X239061915Y-154636700D02*
X239061915Y-140637400D01*
X124473915Y-87961500D02*
X110474615Y-87961500D01*
X42930015Y-174657000D02*
X42930015Y-173686900D01*
X167624915Y-102537400D02*
X181623915Y-102537400D01*
X357836915Y-178737400D02*
X357836915Y-192736860D01*
X86373915Y-73962500D02*
X86373915Y-87961500D01*
X284897915Y-116306700D02*
X284897915Y-117506900D01*
X148286915Y-159687500D02*
X148286915Y-173686900D01*
X209341915Y-183437900D02*
X169717915Y-183437900D01*
X172098915Y-73962500D02*
X172098915Y-87961500D01*
X108517815Y-186236660D02*
X109341915Y-186236660D01*
X306579915Y-173456700D02*
X306579915Y-167186700D01*
X155716915Y-178737400D02*
X155716915Y-183437900D01*
X86662115Y-154636700D02*
X86662115Y-140637400D01*
X191436915Y-159687500D02*
X205436915Y-159687500D01*
X264967915Y-178737400D02*
X264967915Y-192736860D01*
X338786915Y-102537400D02*
X338786915Y-116536700D01*
X357836915Y-192736860D02*
X343836915Y-192736860D01*
X305448915Y-116536700D02*
X305448915Y-111837700D01*
X312592915Y-145111700D02*
X312592915Y-131112400D01*
X282780915Y-173456700D02*
X282780915Y-168987800D01*
X134286915Y-173686900D02*
X134286915Y-159687500D01*
X158099915Y-121587400D02*
X172098915Y-121587400D01*
X214961915Y-154636700D02*
X200961915Y-154636700D01*
X306579915Y-167186700D02*
X307405915Y-167186700D01*
X298591915Y-135586700D02*
X298591915Y-140637400D01*
X338786915Y-135586700D02*
X324786915Y-135586700D01*
X301555915Y-174657000D02*
X304854915Y-174657000D01*
X291449915Y-116536700D02*
X305448915Y-116536700D01*
X210486915Y-159687500D02*
X224486915Y-159687500D01*
X39037075Y-121587400D02*
X53036615Y-121587400D01*
X275204915Y-164387900D02*
X275204915Y-167186700D01*
X343836915Y-121587400D02*
X357836915Y-121587400D01*
X177149915Y-135586700D02*
X177149915Y-121587400D01*
X282516915Y-155606900D02*
X285815915Y-155606900D01*
X312362915Y-148362600D02*
X312362915Y-146637500D01*
X238773915Y-102537400D02*
X238773915Y-116536700D01*
X224774915Y-102537400D02*
X238773915Y-102537400D01*
X77137115Y-159687500D02*
X91136415Y-159687500D01*
X357836915Y-173686900D02*
X343836915Y-173686900D01*
X324786915Y-102537400D02*
X338786915Y-102537400D01*
X343836915Y-192736860D02*
X343836915Y-178737400D01*
X215249915Y-73962500D02*
X229248915Y-73962500D01*
X84280915Y-178737400D02*
X98280215Y-178737400D01*
X286398915Y-135586700D02*
X272399915Y-135586700D01*
X248298915Y-121587400D02*
X248298915Y-135586700D01*
X216916915Y-186236660D02*
X216916915Y-183437900D01*
X105712115Y-154636700D02*
X105712115Y-140637400D01*
X343836915Y-159687500D02*
X357836915Y-159687500D01*
X53036615Y-121587400D02*
X53036615Y-135586700D01*
X34274565Y-87961500D02*
X34274565Y-73962500D01*
X148286915Y-173686900D02*
X134286915Y-173686900D01*
X129523215Y-87961500D02*
X129523215Y-73962500D01*
X36655825Y-192736860D02*
X36655825Y-178737400D01*
X291449915Y-111837700D02*
X291449915Y-116536700D01*
X376886915Y-116536700D02*
X362886915Y-116536700D01*
X324786915Y-178737400D02*
X338786915Y-178737400D01*
X306316915Y-155606900D02*
X309617915Y-155606900D01*
X172386915Y-173686900D02*
X172386915Y-159687500D01*
X138761915Y-154636700D02*
X124762115Y-154636700D01*
X114367515Y-193707000D02*
X114367515Y-192506730D01*
X357836915Y-87961500D02*
X343836915Y-87961500D01*
X100661415Y-154636700D02*
X86662115Y-154636700D01*
X289923915Y-111837700D02*
X291449915Y-111837700D01*
X169717915Y-188037770D02*
X209341915Y-188037770D01*
X100949615Y-121587400D02*
X114948915Y-121587400D01*
X281924915Y-73962500D02*
X295923915Y-73962500D01*
X191148915Y-87961500D02*
X177149915Y-87961500D01*
X114367515Y-192506730D02*
X116093015Y-192506730D01*
X133998915Y-121587400D02*
X133998915Y-135586700D01*
X177149915Y-87961500D02*
X177149915Y-73962500D01*
X200961915Y-154636700D02*
X200961915Y-140637400D01*
X282780915Y-168987800D02*
X284304915Y-168987800D01*
X124473915Y-102537400D02*
X124473915Y-116536700D01*
X312362915Y-146637500D02*
X312166915Y-146637500D01*
X289923915Y-107237900D02*
X289923915Y-104007800D01*
X250966915Y-178737400D02*
X264967915Y-178737400D01*
X267348915Y-135586700D02*
X253349915Y-135586700D01*
X216916915Y-183437900D02*
X216092915Y-183437900D01*
X288779915Y-178737400D02*
X288779915Y-192736860D01*
X110474615Y-116536700D02*
X110474615Y-102537400D01*
X36655825Y-154636700D02*
X36655825Y-140637400D01*
X238773915Y-116536700D02*
X224774915Y-116536700D01*
X169717915Y-192736860D02*
X169717915Y-188037770D01*
X74467715Y-178737400D02*
X74467715Y-192736860D01*
X200673915Y-102537400D02*
X200673915Y-116536700D01*
X214961915Y-140637400D02*
X214961915Y-154636700D01*
X91136415Y-173686900D02*
X77137115Y-173686900D01*
X312362915Y-122837300D02*
X310211915Y-122837300D01*
X39037075Y-135586700D02*
X39037075Y-121587400D01*
X162861915Y-140637400D02*
X176861915Y-140637400D01*
X98280215Y-192736860D02*
X84280915Y-192736860D01*
X313562915Y-127861600D02*
X313562915Y-124562400D01*
X63429715Y-174657000D02*
X66730115Y-174657000D01*
X66730115Y-174657000D02*
X66730115Y-173686900D01*
X210198915Y-87961500D02*
X196199915Y-87961500D01*
X343836915Y-87961500D02*
X343836915Y-73962500D01*
X162861915Y-154636700D02*
X162861915Y-140637400D01*
X124762115Y-140637400D02*
X138761915Y-140637400D01*
X296211915Y-135586700D02*
X298591915Y-135586700D01*
X209341915Y-180207700D02*
X209341915Y-183437900D01*
X379412500Y-76200017D02*
G75*
G03*
X374650000Y-71437500I-4762600J-83D01*
G01*
X215249915Y-87961500D02*
X215249915Y-73962500D01*
X215249915Y-135586700D02*
X215249915Y-121587400D01*
X300974915Y-73962500D02*
X314973915Y-73962500D01*
X191148915Y-73962500D02*
X191148915Y-87961500D01*
X129236415Y-159687500D02*
X129236415Y-173686900D01*
X357836915Y-159687500D02*
X357836915Y-173686900D01*
X77137115Y-173686900D02*
X77137115Y-159687500D01*
X196199915Y-135586700D02*
X196199915Y-121587400D01*
X313723915Y-107237900D02*
X313723915Y-104007800D01*
X379412500Y-192881250D02*
X379412500Y-76200017D01*
X129523215Y-116536700D02*
X129523215Y-102537400D01*
X277755915Y-173456700D02*
X277755915Y-174657000D01*
X181911915Y-154636700D02*
X181911915Y-140637400D01*
X36655825Y-159687500D02*
X36655825Y-173686900D01*
X284897915Y-117506900D02*
X288198915Y-117506900D01*
X312592915Y-178737400D02*
X312592915Y-192736860D01*
X229248915Y-121587400D02*
X229248915Y-135586700D01*
X306579915Y-161157700D02*
X299830915Y-161157700D01*
X196199915Y-121587400D02*
X210198915Y-121587400D01*
X39631005Y-173686900D02*
X39631005Y-174657000D01*
X105423915Y-116536700D02*
X91424615Y-116536700D01*
X272111915Y-140637400D02*
X272111915Y-154636700D01*
X119711415Y-140637400D02*
X119711415Y-154636700D01*
X109341915Y-192506730D02*
X111066915Y-192506730D01*
X229248915Y-135586700D02*
X215249915Y-135586700D01*
X200673915Y-116536700D02*
X186674915Y-116536700D01*
X324786915Y-135586700D02*
X324786915Y-121587400D01*
X216092915Y-192506730D02*
X216092915Y-186236660D01*
X216092915Y-186236660D02*
X216916915Y-186236660D01*
X214367915Y-193707000D02*
X214367915Y-192506730D01*
X262874915Y-73962500D02*
X276873915Y-73962500D01*
X276873915Y-116536700D02*
X262874915Y-116536700D01*
X172098915Y-135586700D02*
X158099915Y-135586700D01*
X305448915Y-107237900D02*
X305448915Y-102537400D01*
X67612115Y-154636700D02*
X67612115Y-140637400D01*
X211066915Y-193707000D02*
X214367915Y-193707000D01*
X338786915Y-73962500D02*
X338786915Y-87961500D01*
X110186415Y-173686900D02*
X96187115Y-173686900D01*
X81899615Y-135586700D02*
X81899615Y-121587400D01*
X288779915Y-192736860D02*
X274780915Y-192736860D01*
X288198915Y-116306700D02*
X289923915Y-116306700D01*
X304854915Y-173456700D02*
X306579915Y-173456700D01*
X312362915Y-127861600D02*
X313562915Y-127861600D01*
X243536915Y-159687500D02*
X243536915Y-173686900D01*
X306316915Y-154406700D02*
X306316915Y-155606900D01*
X55417815Y-154636700D02*
X36655825Y-154636700D01*
X300974915Y-87961500D02*
X300974915Y-73962500D01*
X139049915Y-121587400D02*
X153048915Y-121587400D01*
X285815915Y-155606900D02*
X285815915Y-154636700D01*
X143811915Y-154636700D02*
X143811915Y-140637400D01*
X376886915Y-192736860D02*
X362886915Y-192736860D01*
X153048915Y-135586700D02*
X139049915Y-135586700D01*
X272399915Y-135586700D02*
X272399915Y-121587400D01*
X119999615Y-121587400D02*
X133998915Y-121587400D01*
X105423915Y-102537400D02*
X105423915Y-116536700D01*
X139049915Y-135586700D02*
X139049915Y-121587400D01*
X181623915Y-116536700D02*
X167624915Y-116536700D01*
X257823915Y-116536700D02*
X243824915Y-116536700D01*
X243824915Y-102537400D02*
X257823915Y-102537400D01*
X205724915Y-102537400D02*
X219723915Y-102537400D01*
X234299915Y-135586700D02*
X234299915Y-121587400D01*
X176861915Y-154636700D02*
X162861915Y-154636700D01*
X272399915Y-121587400D02*
X286398915Y-121587400D01*
X67323915Y-116536700D02*
X53324615Y-116536700D01*
X338786915Y-87961500D02*
X324786915Y-87961500D01*
X209341915Y-188037770D02*
X209341915Y-192506730D01*
X338786915Y-121587400D02*
X338786915Y-135586700D01*
X234299915Y-121587400D02*
X248298915Y-121587400D01*
X31750000Y-76200000D02*
X31750000Y-192881250D01*
X53036615Y-135586700D02*
X39037075Y-135586700D01*
X241154915Y-192736860D02*
X227155915Y-192736860D01*
X239061915Y-140637400D02*
X253061915Y-140637400D01*
X299830915Y-173456700D02*
X301555915Y-173456700D01*
X241154915Y-178737400D02*
X241154915Y-192736860D01*
X96187115Y-173686900D02*
X96187115Y-159687500D01*
X307405915Y-164387900D02*
X306579915Y-164387900D01*
X227155915Y-178737400D02*
X241154915Y-178737400D01*
X72374615Y-116536700D02*
X72374615Y-102537400D01*
X81611415Y-154636700D02*
X67612115Y-154636700D01*
X72086415Y-159687500D02*
X36655825Y-159687500D01*
X143523915Y-116536700D02*
X129523215Y-116536700D01*
X343836915Y-73962500D02*
X357836915Y-73962500D01*
X306974915Y-104007800D02*
X306974915Y-107237900D01*
X303067915Y-154636700D02*
X303067915Y-154212300D01*
X210198915Y-121587400D02*
X210198915Y-135586700D01*
X116093015Y-188037770D02*
X155716915Y-188037770D01*
X48274115Y-102537400D02*
X48274115Y-116536700D01*
X191148915Y-135586700D02*
X177149915Y-135586700D01*
X48274115Y-73962500D02*
X48274115Y-87961500D01*
X177149915Y-121587400D02*
X191148915Y-121587400D01*
X115237115Y-173686900D02*
X115237115Y-159687500D01*
X167624915Y-116536700D02*
X167624915Y-102537400D01*
X210198915Y-73962500D02*
X210198915Y-87961500D01*
X86373915Y-116536700D02*
X72374615Y-116536700D01*
X50655315Y-192736860D02*
X36655825Y-192736860D01*
X67612115Y-140637400D02*
X81611415Y-140637400D01*
X153048915Y-121587400D02*
X153048915Y-135586700D01*
X42930015Y-173686900D02*
X63429715Y-173686900D01*
X362886915Y-116536700D02*
X362886915Y-102537400D01*
X276873915Y-73962500D02*
X276873915Y-87961500D01*
X109341915Y-183437900D02*
X108517815Y-183437900D01*
X167336915Y-159687500D02*
X167336915Y-173686900D01*
X210198915Y-135586700D02*
X196199915Y-135586700D01*
X262586915Y-159687500D02*
X262586915Y-173686900D01*
X224774915Y-116536700D02*
X224774915Y-102537400D01*
X216092915Y-183437900D02*
X216092915Y-180207700D01*
X264967915Y-192736860D02*
X250966915Y-192736860D01*
X243824915Y-116536700D02*
X243824915Y-102537400D01*
X283174915Y-107237900D02*
X282348915Y-107237900D01*
X309617915Y-155606900D02*
X309617915Y-154406700D01*
X143523915Y-73962500D02*
X143523915Y-87961500D01*
X196199915Y-73962500D02*
X210198915Y-73962500D01*
X129523215Y-102537400D02*
X143523915Y-102537400D01*
X62849615Y-121587400D02*
X76848915Y-121587400D01*
X100949615Y-135586700D02*
X100949615Y-121587400D01*
X129523215Y-73962500D02*
X143523915Y-73962500D01*
X343836915Y-135586700D02*
X343836915Y-121587400D01*
X116093015Y-192506730D02*
X116093015Y-188037770D01*
X310211915Y-131112400D02*
X310211915Y-129587000D01*
X313562915Y-148362600D02*
X312362915Y-148362600D01*
X311998915Y-117506900D02*
X311998915Y-116306700D01*
X172386915Y-159687500D02*
X186386915Y-159687500D01*
X200961915Y-140637400D02*
X214961915Y-140637400D01*
X220011915Y-154636700D02*
X220011915Y-140637400D01*
X162573915Y-116536700D02*
X148572915Y-116536700D01*
X283174915Y-116306700D02*
X284897915Y-116306700D01*
X34274565Y-73962500D02*
X48274115Y-73962500D01*
X234011915Y-140637400D02*
X234011915Y-154636700D01*
X109341915Y-180207700D02*
X109341915Y-183437900D01*
X253061915Y-154636700D02*
X239061915Y-154636700D01*
X133998915Y-135586700D02*
X119999615Y-135586700D01*
X210486915Y-173686900D02*
X210486915Y-159687500D01*
X298591915Y-178737400D02*
X312592915Y-178737400D01*
X362886915Y-73962500D02*
X376886915Y-73962500D01*
X86662115Y-140637400D02*
X100661415Y-140637400D01*
X60466915Y-178737400D02*
X74467715Y-178737400D01*
X86373915Y-102537400D02*
X86373915Y-116536700D01*
X110474615Y-102537400D02*
X124473915Y-102537400D01*
X289923915Y-104007800D02*
X283174915Y-104007800D01*
X357836915Y-102537400D02*
X357836915Y-116536700D01*
X224486915Y-173686900D02*
X210486915Y-173686900D01*
X299830915Y-164387900D02*
X298304915Y-164387900D01*
X306974915Y-116306700D02*
X308699915Y-116306700D01*
X98280215Y-178737400D02*
X98280215Y-192736860D01*
X376886915Y-102537400D02*
X376886915Y-116536700D01*
X298304915Y-173686900D02*
X298304915Y-168987800D01*
X177149915Y-73962500D02*
X191148915Y-73962500D01*
X376886915Y-135586700D02*
X362886915Y-135586700D01*
X298304915Y-164387900D02*
X298304915Y-159687500D01*
X60466915Y-192736860D02*
X60466915Y-178737400D01*
X306974915Y-111837700D02*
X306974915Y-116306700D01*
X299830915Y-168987800D02*
X299830915Y-173456700D01*
X76848915Y-121587400D02*
X76848915Y-135586700D01*
X116093015Y-180207700D02*
X109341915Y-180207700D01*
X308699915Y-117506900D02*
X311998915Y-117506900D01*
X31750000Y-192881250D02*
G75*
G03*
X36512500Y-197643750I4762460J-40D01*
G01*
X143523915Y-102537400D02*
X143523915Y-116536700D01*
X343836915Y-102537400D02*
X357836915Y-102537400D01*
X219723915Y-116536700D02*
X205724915Y-116536700D01*
X312362915Y-129587000D02*
X312362915Y-127861600D01*
X109341915Y-186236660D02*
X109341915Y-192506730D01*
X134286915Y-159687500D02*
X148286915Y-159687500D01*
X357836915Y-116536700D02*
X343836915Y-116536700D01*
X148572915Y-102537400D02*
X162573915Y-102537400D01*
X276030915Y-173456700D02*
X277755915Y-173456700D01*
X153336915Y-173686900D02*
X153336915Y-159687500D01*
X304854915Y-174657000D02*
X304854915Y-173456700D01*
X155716915Y-183437900D02*
X116093015Y-183437900D01*
X312362915Y-151661800D02*
X313562915Y-151661800D01*
X357836915Y-73962500D02*
X357836915Y-87961500D01*
X274780915Y-178737400D02*
X288779915Y-178737400D01*
X301555915Y-173456700D02*
X301555915Y-174657000D01*
X305448915Y-102537400D02*
X291449915Y-102537400D01*
X143811915Y-140637400D02*
X157811915Y-140637400D01*
X36655825Y-178737400D02*
X50655315Y-178737400D01*
X282516915Y-154636700D02*
X282516915Y-155606900D01*
X312362915Y-153386800D02*
X312362915Y-151661800D01*
X310211915Y-129587000D02*
X312362915Y-129587000D01*
X374649983Y-197643800D02*
G75*
G03*
X379412500Y-192881250I17J4762500D01*
G01*
X214367915Y-192506730D02*
X216092915Y-192506730D01*
X108517815Y-183437900D02*
X108517815Y-186236660D01*
X205436915Y-159687500D02*
X205436915Y-173686900D01*
X277755915Y-174657000D02*
X281054915Y-174657000D01*
X205436915Y-173686900D02*
X191436915Y-173686900D01*
M02*
