G04 #@! TF.GenerationSoftware,KiCad,Pcbnew,(7.0.0)*
G04 #@! TF.CreationDate,2023-02-27T14:32:52+01:00*
G04 #@! TF.ProjectId,Belja80_plate,42656c6a-6138-4305-9f70-6c6174652e6b,1.0*
G04 #@! TF.SameCoordinates,Original*
G04 #@! TF.FileFunction,Copper,L1,Top*
G04 #@! TF.FilePolarity,Positive*
%FSLAX46Y46*%
G04 Gerber Fmt 4.6, Leading zero omitted, Abs format (unit mm)*
G04 Created by KiCad (PCBNEW (7.0.0)) date 2023-02-27 14:32:52*
%MOMM*%
%LPD*%
G01*
G04 APERTURE LIST*
G04 APERTURE END LIST*
G04 #@! TA.AperFunction,NonConductor*
G36*
X374651075Y-71438046D02*
G01*
X374844218Y-71446483D01*
X374844340Y-71446539D01*
X374844342Y-71446489D01*
X375069611Y-71456908D01*
X375073734Y-71457274D01*
X375282748Y-71484795D01*
X375282787Y-71484801D01*
X375493515Y-71514200D01*
X375497317Y-71514886D01*
X375705580Y-71561060D01*
X375705953Y-71561145D01*
X375910506Y-71609259D01*
X375914012Y-71610222D01*
X376118390Y-71674665D01*
X376119032Y-71674874D01*
X376313363Y-71740009D01*
X376317285Y-71741324D01*
X376320464Y-71742514D01*
X376518899Y-71824710D01*
X376519842Y-71825114D01*
X376710579Y-71909335D01*
X376713382Y-71910683D01*
X376904166Y-72010001D01*
X376905329Y-72010627D01*
X377087179Y-72111919D01*
X377089593Y-72113358D01*
X377224832Y-72199517D01*
X377271166Y-72229036D01*
X377272530Y-72229937D01*
X377444036Y-72347422D01*
X377446174Y-72348973D01*
X377617048Y-72480091D01*
X377618521Y-72481268D01*
X377778358Y-72613995D01*
X377780159Y-72615566D01*
X377938997Y-72761116D01*
X377940541Y-72762594D01*
X378087404Y-72909457D01*
X378088882Y-72911001D01*
X378234453Y-73069863D01*
X378236024Y-73071664D01*
X378368750Y-73231501D01*
X378369927Y-73232975D01*
X378501027Y-73403827D01*
X378502578Y-73405964D01*
X378620076Y-73577489D01*
X378620977Y-73578853D01*
X378736624Y-73760381D01*
X378738105Y-73762865D01*
X378839364Y-73944656D01*
X378840020Y-73945874D01*
X378939321Y-74136626D01*
X378940683Y-74139460D01*
X379024864Y-74330109D01*
X379025309Y-74331149D01*
X379107491Y-74529550D01*
X379108681Y-74532730D01*
X379175097Y-74730883D01*
X379175369Y-74731720D01*
X379239778Y-74935993D01*
X379240744Y-74939509D01*
X379288839Y-75143984D01*
X379288979Y-75144597D01*
X379335111Y-75352676D01*
X379335803Y-75356511D01*
X379365155Y-75566897D01*
X379365206Y-75567272D01*
X379392726Y-75776288D01*
X379393093Y-75780420D01*
X379403504Y-76005511D01*
X379403509Y-76005637D01*
X379411953Y-76198941D01*
X379412000Y-76201079D01*
X379412000Y-192880190D01*
X379411953Y-192882327D01*
X379403519Y-193075518D01*
X379403514Y-193075644D01*
X379393103Y-193300861D01*
X379392736Y-193304993D01*
X379365240Y-193513860D01*
X379365189Y-193514234D01*
X379335825Y-193724754D01*
X379335134Y-193728590D01*
X379289003Y-193936685D01*
X379288863Y-193937298D01*
X379240768Y-194141789D01*
X379239801Y-194145305D01*
X379175399Y-194349568D01*
X379175127Y-194350405D01*
X379108714Y-194548562D01*
X379107524Y-194551742D01*
X379025348Y-194750133D01*
X379024903Y-194751174D01*
X378940722Y-194941831D01*
X378939361Y-194944664D01*
X378840051Y-195135441D01*
X378839395Y-195136660D01*
X378738142Y-195318445D01*
X378736660Y-195320928D01*
X378621014Y-195502459D01*
X378620113Y-195503824D01*
X378502630Y-195675328D01*
X378501080Y-195677465D01*
X378369944Y-195848368D01*
X378368766Y-195849842D01*
X378236060Y-196009654D01*
X378234490Y-196011455D01*
X378088932Y-196170305D01*
X378087453Y-196171849D01*
X377940563Y-196318740D01*
X377939019Y-196320219D01*
X377780194Y-196465756D01*
X377778394Y-196467326D01*
X377618547Y-196600062D01*
X377617072Y-196601239D01*
X377446203Y-196732352D01*
X377444066Y-196733903D01*
X377272570Y-196851382D01*
X377271206Y-196852283D01*
X377089645Y-196967951D01*
X377087160Y-196969433D01*
X376905372Y-197070687D01*
X376904155Y-197071342D01*
X376713407Y-197170641D01*
X376710573Y-197172003D01*
X376519899Y-197256193D01*
X376518858Y-197256638D01*
X376320477Y-197338810D01*
X376317298Y-197340000D01*
X376119133Y-197406418D01*
X376118296Y-197406690D01*
X375914029Y-197471095D01*
X375910512Y-197472061D01*
X375706060Y-197520147D01*
X375705447Y-197520288D01*
X375497317Y-197566429D01*
X375493482Y-197567120D01*
X375283025Y-197596477D01*
X375282651Y-197596528D01*
X375073745Y-197624030D01*
X375069607Y-197624397D01*
X374833409Y-197635291D01*
X374833288Y-197635296D01*
X374652190Y-197643203D01*
X374650053Y-197643250D01*
X36513560Y-197643250D01*
X36511423Y-197643203D01*
X36318220Y-197634768D01*
X36318097Y-197634711D01*
X36318095Y-197634763D01*
X36092890Y-197624352D01*
X36088758Y-197623985D01*
X35879888Y-197596489D01*
X35879514Y-197596438D01*
X35669002Y-197567075D01*
X35665166Y-197566384D01*
X35457054Y-197520247D01*
X35456441Y-197520107D01*
X35251971Y-197472017D01*
X35248455Y-197471050D01*
X35044205Y-197406651D01*
X35043367Y-197406379D01*
X34845193Y-197339959D01*
X34842014Y-197338769D01*
X34643632Y-197256598D01*
X34642591Y-197256153D01*
X34451938Y-197171973D01*
X34449104Y-197170612D01*
X34258325Y-197071299D01*
X34257107Y-197070643D01*
X34075321Y-196969389D01*
X34072838Y-196967907D01*
X33891303Y-196852258D01*
X33889938Y-196851357D01*
X33718421Y-196733865D01*
X33716284Y-196732314D01*
X33545436Y-196601218D01*
X33543962Y-196600042D01*
X33491042Y-196556098D01*
X33384089Y-196467286D01*
X33382312Y-196465735D01*
X33223457Y-196320170D01*
X33221913Y-196318692D01*
X33075056Y-196171835D01*
X33073578Y-196170291D01*
X32964496Y-196051250D01*
X32928006Y-196011428D01*
X32926458Y-196009654D01*
X32807863Y-195866835D01*
X32793706Y-195849786D01*
X32792530Y-195848312D01*
X32661434Y-195677464D01*
X32659883Y-195675327D01*
X32542401Y-195503824D01*
X32542370Y-195503778D01*
X32541490Y-195502445D01*
X32425841Y-195320910D01*
X32424359Y-195318427D01*
X32323105Y-195136641D01*
X32322449Y-195135423D01*
X32294992Y-195082678D01*
X32223127Y-194944625D01*
X32221785Y-194941831D01*
X32137580Y-194751122D01*
X32137166Y-194750153D01*
X32054977Y-194551729D01*
X32053789Y-194548555D01*
X31987369Y-194350381D01*
X31987097Y-194349543D01*
X31922695Y-194145285D01*
X31921731Y-194141777D01*
X31873641Y-193937307D01*
X31873518Y-193936771D01*
X31827358Y-193728552D01*
X31826678Y-193724778D01*
X31797277Y-193513992D01*
X31769761Y-193304973D01*
X31769397Y-193300875D01*
X31758996Y-193075873D01*
X31750546Y-192882326D01*
X31750500Y-192880190D01*
X31750500Y-192736860D01*
X36655284Y-192736860D01*
X36655325Y-192736959D01*
X36655442Y-192737243D01*
X36655825Y-192737401D01*
X36655924Y-192737360D01*
X50655216Y-192737360D01*
X50655315Y-192737401D01*
X50655698Y-192737243D01*
X50655815Y-192736959D01*
X50655856Y-192736860D01*
X60466374Y-192736860D01*
X60466415Y-192736959D01*
X60466532Y-192737243D01*
X60466915Y-192737401D01*
X60467014Y-192737360D01*
X74467616Y-192737360D01*
X74467715Y-192737401D01*
X74468098Y-192737243D01*
X74468215Y-192736959D01*
X74468256Y-192736860D01*
X84280374Y-192736860D01*
X84280415Y-192736959D01*
X84280532Y-192737243D01*
X84280915Y-192737401D01*
X84281014Y-192737360D01*
X98280116Y-192737360D01*
X98280215Y-192737401D01*
X98280598Y-192737243D01*
X98280715Y-192736959D01*
X98280756Y-192736860D01*
X98280715Y-192736761D01*
X98280715Y-188022054D01*
X99433266Y-188022054D01*
X99433298Y-188023306D01*
X99433298Y-188023316D01*
X99443189Y-188407326D01*
X99443190Y-188407338D01*
X99443222Y-188408581D01*
X99443384Y-188409832D01*
X99468287Y-188602186D01*
X99492867Y-188792035D01*
X99493154Y-188793254D01*
X99493156Y-188793261D01*
X99581388Y-189167131D01*
X99581392Y-189167146D01*
X99581677Y-189168352D01*
X99582083Y-189169520D01*
X99582088Y-189169536D01*
X99708296Y-189532355D01*
X99708710Y-189533544D01*
X99872618Y-189883738D01*
X99873260Y-189884808D01*
X99873268Y-189884822D01*
X99974316Y-190053102D01*
X100071665Y-190215223D01*
X100072423Y-190216233D01*
X100190676Y-190373816D01*
X100303741Y-190524484D01*
X100566385Y-190808245D01*
X100856814Y-191063495D01*
X100857837Y-191064222D01*
X100857838Y-191064223D01*
X101170916Y-191286797D01*
X101170921Y-191286800D01*
X101171949Y-191287531D01*
X101508449Y-191477977D01*
X101862747Y-191632815D01*
X102231088Y-191750402D01*
X102609567Y-191829493D01*
X102994173Y-191869250D01*
X103283448Y-191869250D01*
X103284089Y-191869250D01*
X103573642Y-191854324D01*
X103955691Y-191794822D01*
X104329597Y-191696352D01*
X104691396Y-191559959D01*
X105037254Y-191387088D01*
X105363504Y-191179572D01*
X105666687Y-190939610D01*
X105943591Y-190669747D01*
X106191279Y-190372842D01*
X106407127Y-190052044D01*
X106588846Y-189710752D01*
X106734509Y-189352584D01*
X106842574Y-188981337D01*
X106911894Y-188600947D01*
X106941734Y-188215446D01*
X106931778Y-187828919D01*
X106882133Y-187445465D01*
X106793323Y-187069148D01*
X106666290Y-186703956D01*
X106502382Y-186353762D01*
X106501734Y-186352684D01*
X106501731Y-186352677D01*
X106432066Y-186236660D01*
X108517274Y-186236660D01*
X108517315Y-186236759D01*
X108517432Y-186237043D01*
X108517815Y-186237201D01*
X108517914Y-186237160D01*
X109292415Y-186237160D01*
X109327063Y-186251512D01*
X109341415Y-186286160D01*
X109341415Y-192506631D01*
X109341374Y-192506730D01*
X109341415Y-192506829D01*
X109341532Y-192507113D01*
X109341915Y-192507271D01*
X109342014Y-192507230D01*
X111017415Y-192507230D01*
X111052063Y-192521582D01*
X111066415Y-192556230D01*
X111066415Y-193706901D01*
X111066374Y-193707000D01*
X111066415Y-193707099D01*
X111066532Y-193707383D01*
X111066915Y-193707541D01*
X111067014Y-193707500D01*
X114367416Y-193707500D01*
X114367515Y-193707541D01*
X114367898Y-193707383D01*
X114368015Y-193707099D01*
X114368056Y-193707000D01*
X114368015Y-193706901D01*
X114368015Y-192556230D01*
X114382367Y-192521582D01*
X114417015Y-192507230D01*
X116092916Y-192507230D01*
X116093015Y-192507271D01*
X116093398Y-192507113D01*
X116093515Y-192506829D01*
X116093556Y-192506730D01*
X116093515Y-192506631D01*
X116093515Y-188087270D01*
X116107867Y-188052622D01*
X116142515Y-188038270D01*
X155667415Y-188038270D01*
X155702063Y-188052622D01*
X155716415Y-188087270D01*
X155716415Y-192736761D01*
X155716374Y-192736860D01*
X155716415Y-192736959D01*
X155716532Y-192737243D01*
X155716915Y-192737401D01*
X155717014Y-192737360D01*
X169717816Y-192737360D01*
X169717915Y-192737401D01*
X169718298Y-192737243D01*
X169718415Y-192736959D01*
X169718456Y-192736860D01*
X169718415Y-192736761D01*
X169718415Y-188087270D01*
X169732767Y-188052622D01*
X169767415Y-188038270D01*
X209292415Y-188038270D01*
X209327063Y-188052622D01*
X209341415Y-188087270D01*
X209341415Y-192506631D01*
X209341374Y-192506730D01*
X209341415Y-192506829D01*
X209341532Y-192507113D01*
X209341915Y-192507271D01*
X209342014Y-192507230D01*
X211017415Y-192507230D01*
X211052063Y-192521582D01*
X211066415Y-192556230D01*
X211066415Y-193706901D01*
X211066374Y-193707000D01*
X211066415Y-193707099D01*
X211066532Y-193707383D01*
X211066915Y-193707541D01*
X211067014Y-193707500D01*
X214367816Y-193707500D01*
X214367915Y-193707541D01*
X214368298Y-193707383D01*
X214368415Y-193707099D01*
X214368456Y-193707000D01*
X214368415Y-193706901D01*
X214368415Y-192736860D01*
X227155374Y-192736860D01*
X227155415Y-192736959D01*
X227155532Y-192737243D01*
X227155915Y-192737401D01*
X227156014Y-192737360D01*
X241154816Y-192737360D01*
X241154915Y-192737401D01*
X241155298Y-192737243D01*
X241155415Y-192736959D01*
X241155456Y-192736860D01*
X250966374Y-192736860D01*
X250966415Y-192736959D01*
X250966532Y-192737243D01*
X250966915Y-192737401D01*
X250967014Y-192737360D01*
X264967816Y-192737360D01*
X264967915Y-192737401D01*
X264968298Y-192737243D01*
X264968415Y-192736959D01*
X264968456Y-192736860D01*
X274780374Y-192736860D01*
X274780415Y-192736959D01*
X274780532Y-192737243D01*
X274780915Y-192737401D01*
X274781014Y-192737360D01*
X288779816Y-192737360D01*
X288779915Y-192737401D01*
X288780298Y-192737243D01*
X288780415Y-192736959D01*
X288780456Y-192736860D01*
X298591374Y-192736860D01*
X298591415Y-192736959D01*
X298591532Y-192737243D01*
X298591915Y-192737401D01*
X298592014Y-192737360D01*
X312592816Y-192737360D01*
X312592915Y-192737401D01*
X312593298Y-192737243D01*
X312593415Y-192736959D01*
X312593456Y-192736860D01*
X324786374Y-192736860D01*
X324786415Y-192736959D01*
X324786532Y-192737243D01*
X324786915Y-192737401D01*
X324787014Y-192737360D01*
X338786816Y-192737360D01*
X338786915Y-192737401D01*
X338787298Y-192737243D01*
X338787415Y-192736959D01*
X338787456Y-192736860D01*
X343836374Y-192736860D01*
X343836415Y-192736959D01*
X343836532Y-192737243D01*
X343836915Y-192737401D01*
X343837014Y-192737360D01*
X357836816Y-192737360D01*
X357836915Y-192737401D01*
X357837298Y-192737243D01*
X357837415Y-192736959D01*
X357837456Y-192736860D01*
X357837415Y-192736761D01*
X357837415Y-191000943D01*
X357851031Y-190967046D01*
X357884313Y-190951988D01*
X357918762Y-190964137D01*
X357985802Y-191023056D01*
X358031814Y-191063495D01*
X358032837Y-191064222D01*
X358032838Y-191064223D01*
X358345916Y-191286797D01*
X358345921Y-191286800D01*
X358346949Y-191287531D01*
X358683449Y-191477977D01*
X359037747Y-191632815D01*
X359406088Y-191750402D01*
X359784567Y-191829493D01*
X360169173Y-191869250D01*
X360458448Y-191869250D01*
X360459089Y-191869250D01*
X360748642Y-191854324D01*
X361130691Y-191794822D01*
X361504597Y-191696352D01*
X361866396Y-191559959D01*
X362212254Y-191387088D01*
X362538504Y-191179572D01*
X362807004Y-190967060D01*
X362841197Y-190956628D01*
X362873375Y-190972198D01*
X362886415Y-191005482D01*
X362886415Y-192736761D01*
X362886374Y-192736860D01*
X362886415Y-192736959D01*
X362886532Y-192737243D01*
X362886915Y-192737401D01*
X362887014Y-192737360D01*
X376886816Y-192737360D01*
X376886915Y-192737401D01*
X376887298Y-192737243D01*
X376887415Y-192736959D01*
X376887456Y-192736860D01*
X376887415Y-192736761D01*
X376887415Y-178737499D01*
X376887456Y-178737400D01*
X376887298Y-178737017D01*
X376887014Y-178736900D01*
X376886915Y-178736859D01*
X376886816Y-178736900D01*
X362887014Y-178736900D01*
X362886915Y-178736859D01*
X362886816Y-178736900D01*
X362886532Y-178737017D01*
X362886374Y-178737400D01*
X362886415Y-178737499D01*
X362886415Y-178751213D01*
X362886415Y-185235529D01*
X362872799Y-185269426D01*
X362839517Y-185284484D01*
X362805068Y-185272335D01*
X362694128Y-185174833D01*
X362694129Y-185174833D01*
X362693186Y-185174005D01*
X362531015Y-185058714D01*
X362379083Y-184950702D01*
X362379074Y-184950696D01*
X362378051Y-184949969D01*
X362041551Y-184759523D01*
X361853961Y-184677541D01*
X361688414Y-184605192D01*
X361688407Y-184605189D01*
X361687253Y-184604685D01*
X361686055Y-184604302D01*
X361686051Y-184604301D01*
X361320113Y-184487481D01*
X361320105Y-184487479D01*
X361318912Y-184487098D01*
X361317680Y-184486840D01*
X361317678Y-184486840D01*
X360941671Y-184408265D01*
X360941657Y-184408262D01*
X360940433Y-184408007D01*
X360939178Y-184407877D01*
X360939170Y-184407876D01*
X360557088Y-184368380D01*
X360557081Y-184368379D01*
X360555827Y-184368250D01*
X360265911Y-184368250D01*
X360265271Y-184368282D01*
X360265270Y-184368283D01*
X359977619Y-184383110D01*
X359977599Y-184383111D01*
X359976358Y-184383176D01*
X359975123Y-184383368D01*
X359975107Y-184383370D01*
X359595565Y-184442482D01*
X359595557Y-184442483D01*
X359594309Y-184442678D01*
X359593085Y-184443000D01*
X359593077Y-184443002D01*
X359221628Y-184540825D01*
X359221621Y-184540827D01*
X359220403Y-184541148D01*
X359219225Y-184541592D01*
X359219219Y-184541594D01*
X358859785Y-184677095D01*
X358859771Y-184677100D01*
X358858604Y-184677541D01*
X358857497Y-184678093D01*
X358857477Y-184678103D01*
X358513868Y-184849851D01*
X358512746Y-184850412D01*
X358511691Y-184851082D01*
X358511684Y-184851087D01*
X358187566Y-185057246D01*
X358187547Y-185057259D01*
X358186496Y-185057928D01*
X358185511Y-185058707D01*
X358185502Y-185058714D01*
X357916825Y-185271366D01*
X357882633Y-185281798D01*
X357850455Y-185266228D01*
X357837415Y-185232944D01*
X357837415Y-178751213D01*
X357837415Y-178737499D01*
X357837456Y-178737400D01*
X357837298Y-178737017D01*
X357837014Y-178736900D01*
X357836915Y-178736859D01*
X357836816Y-178736900D01*
X343837014Y-178736900D01*
X343836915Y-178736859D01*
X343836816Y-178736900D01*
X343836532Y-178737017D01*
X343836374Y-178737400D01*
X343836415Y-178737499D01*
X343836415Y-192736761D01*
X343836374Y-192736860D01*
X338787456Y-192736860D01*
X338787415Y-192736761D01*
X338787415Y-178737499D01*
X338787456Y-178737400D01*
X338787298Y-178737017D01*
X338787014Y-178736900D01*
X338786915Y-178736859D01*
X338786816Y-178736900D01*
X324787014Y-178736900D01*
X324786915Y-178736859D01*
X324786816Y-178736900D01*
X324786532Y-178737017D01*
X324786374Y-178737400D01*
X324786415Y-178737499D01*
X324786415Y-192736761D01*
X324786374Y-192736860D01*
X312593456Y-192736860D01*
X312593415Y-192736761D01*
X312593415Y-178737499D01*
X312593456Y-178737400D01*
X312593298Y-178737017D01*
X312593014Y-178736900D01*
X312592915Y-178736859D01*
X312592816Y-178736900D01*
X298592014Y-178736900D01*
X298591915Y-178736859D01*
X298591816Y-178736900D01*
X298591532Y-178737017D01*
X298591374Y-178737400D01*
X298591415Y-178737499D01*
X298591415Y-192736761D01*
X298591374Y-192736860D01*
X288780456Y-192736860D01*
X288780415Y-192736761D01*
X288780415Y-178737499D01*
X288780456Y-178737400D01*
X288780298Y-178737017D01*
X288780014Y-178736900D01*
X288779915Y-178736859D01*
X288779816Y-178736900D01*
X274781014Y-178736900D01*
X274780915Y-178736859D01*
X274780816Y-178736900D01*
X274780532Y-178737017D01*
X274780374Y-178737400D01*
X274780415Y-178737499D01*
X274780415Y-192736761D01*
X274780374Y-192736860D01*
X264968456Y-192736860D01*
X264968415Y-192736761D01*
X264968415Y-178737499D01*
X264968456Y-178737400D01*
X264968298Y-178737017D01*
X264968014Y-178736900D01*
X264967915Y-178736859D01*
X264967816Y-178736900D01*
X250967014Y-178736900D01*
X250966915Y-178736859D01*
X250966816Y-178736900D01*
X250966532Y-178737017D01*
X250966374Y-178737400D01*
X250966415Y-178737499D01*
X250966415Y-192736761D01*
X250966374Y-192736860D01*
X241155456Y-192736860D01*
X241155415Y-192736761D01*
X241155415Y-188022054D01*
X242308266Y-188022054D01*
X242308298Y-188023306D01*
X242308298Y-188023316D01*
X242318189Y-188407326D01*
X242318190Y-188407338D01*
X242318222Y-188408581D01*
X242318384Y-188409832D01*
X242343287Y-188602186D01*
X242367867Y-188792035D01*
X242368154Y-188793254D01*
X242368156Y-188793261D01*
X242456388Y-189167131D01*
X242456392Y-189167146D01*
X242456677Y-189168352D01*
X242457083Y-189169520D01*
X242457088Y-189169536D01*
X242583296Y-189532355D01*
X242583710Y-189533544D01*
X242747618Y-189883738D01*
X242748260Y-189884808D01*
X242748268Y-189884822D01*
X242849316Y-190053102D01*
X242946665Y-190215223D01*
X242947423Y-190216233D01*
X243065676Y-190373816D01*
X243178741Y-190524484D01*
X243441385Y-190808245D01*
X243731814Y-191063495D01*
X243732837Y-191064222D01*
X243732838Y-191064223D01*
X244045916Y-191286797D01*
X244045921Y-191286800D01*
X244046949Y-191287531D01*
X244383449Y-191477977D01*
X244737747Y-191632815D01*
X245106088Y-191750402D01*
X245484567Y-191829493D01*
X245869173Y-191869250D01*
X246158448Y-191869250D01*
X246159089Y-191869250D01*
X246448642Y-191854324D01*
X246830691Y-191794822D01*
X247204597Y-191696352D01*
X247566396Y-191559959D01*
X247912254Y-191387088D01*
X248238504Y-191179572D01*
X248541687Y-190939610D01*
X248818591Y-190669747D01*
X249066279Y-190372842D01*
X249282127Y-190052044D01*
X249463846Y-189710752D01*
X249609509Y-189352584D01*
X249717574Y-188981337D01*
X249786894Y-188600947D01*
X249816734Y-188215446D01*
X249806778Y-187828919D01*
X249757133Y-187445465D01*
X249668323Y-187069148D01*
X249541290Y-186703956D01*
X249377382Y-186353762D01*
X249376734Y-186352684D01*
X249376731Y-186352677D01*
X249178987Y-186023363D01*
X249178335Y-186022277D01*
X248946259Y-185713016D01*
X248683615Y-185429255D01*
X248587414Y-185344707D01*
X248394128Y-185174833D01*
X248394129Y-185174833D01*
X248393186Y-185174005D01*
X248231015Y-185058714D01*
X248079083Y-184950702D01*
X248079074Y-184950696D01*
X248078051Y-184949969D01*
X247741551Y-184759523D01*
X247553961Y-184677541D01*
X247388414Y-184605192D01*
X247388407Y-184605189D01*
X247387253Y-184604685D01*
X247386055Y-184604302D01*
X247386051Y-184604301D01*
X247020113Y-184487481D01*
X247020105Y-184487479D01*
X247018912Y-184487098D01*
X247017680Y-184486840D01*
X247017678Y-184486840D01*
X246641671Y-184408265D01*
X246641657Y-184408262D01*
X246640433Y-184408007D01*
X246639178Y-184407877D01*
X246639170Y-184407876D01*
X246257088Y-184368380D01*
X246257081Y-184368379D01*
X246255827Y-184368250D01*
X245965911Y-184368250D01*
X245965271Y-184368282D01*
X245965270Y-184368283D01*
X245677619Y-184383110D01*
X245677599Y-184383111D01*
X245676358Y-184383176D01*
X245675123Y-184383368D01*
X245675107Y-184383370D01*
X245295565Y-184442482D01*
X245295557Y-184442483D01*
X245294309Y-184442678D01*
X245293085Y-184443000D01*
X245293077Y-184443002D01*
X244921628Y-184540825D01*
X244921621Y-184540827D01*
X244920403Y-184541148D01*
X244919225Y-184541592D01*
X244919219Y-184541594D01*
X244559785Y-184677095D01*
X244559771Y-184677100D01*
X244558604Y-184677541D01*
X244557497Y-184678093D01*
X244557477Y-184678103D01*
X244213868Y-184849851D01*
X244212746Y-184850412D01*
X244211691Y-184851082D01*
X244211684Y-184851087D01*
X243887566Y-185057246D01*
X243887547Y-185057259D01*
X243886496Y-185057928D01*
X243885511Y-185058707D01*
X243885502Y-185058714D01*
X243584301Y-185297107D01*
X243584289Y-185297117D01*
X243583313Y-185297890D01*
X243582420Y-185298759D01*
X243582410Y-185298769D01*
X243307315Y-185566869D01*
X243307305Y-185566879D01*
X243306409Y-185567753D01*
X243305600Y-185568721D01*
X243305596Y-185568727D01*
X243059533Y-185863683D01*
X243059520Y-185863699D01*
X243058721Y-185864658D01*
X243058023Y-185865694D01*
X243058012Y-185865710D01*
X242843585Y-186184397D01*
X242843580Y-186184404D01*
X242842873Y-186185456D01*
X242842277Y-186186575D01*
X242842273Y-186186582D01*
X242661752Y-186525624D01*
X242661154Y-186526748D01*
X242660683Y-186527904D01*
X242660675Y-186527923D01*
X242515968Y-186883741D01*
X242515962Y-186883755D01*
X242515491Y-186884916D01*
X242515136Y-186886132D01*
X242515135Y-186886138D01*
X242407777Y-187254954D01*
X242407773Y-187254970D01*
X242407426Y-187256163D01*
X242407204Y-187257380D01*
X242407200Y-187257398D01*
X242338331Y-187635313D01*
X242338328Y-187635331D01*
X242338106Y-187636553D01*
X242338010Y-187637789D01*
X242338008Y-187637807D01*
X242308363Y-188020794D01*
X242308362Y-188020804D01*
X242308266Y-188022054D01*
X241155415Y-188022054D01*
X241155415Y-178737499D01*
X241155456Y-178737400D01*
X241155298Y-178737017D01*
X241155014Y-178736900D01*
X241154915Y-178736859D01*
X241154816Y-178736900D01*
X227156014Y-178736900D01*
X227155915Y-178736859D01*
X227155816Y-178736900D01*
X227155532Y-178737017D01*
X227155374Y-178737400D01*
X227155415Y-178737499D01*
X227155415Y-192736761D01*
X227155374Y-192736860D01*
X214368415Y-192736860D01*
X214368415Y-192556230D01*
X214382767Y-192521582D01*
X214417415Y-192507230D01*
X216092816Y-192507230D01*
X216092915Y-192507271D01*
X216093298Y-192507113D01*
X216093415Y-192506829D01*
X216093456Y-192506730D01*
X216093415Y-192506631D01*
X216093415Y-186286160D01*
X216107767Y-186251512D01*
X216142415Y-186237160D01*
X216916816Y-186237160D01*
X216916915Y-186237201D01*
X216917298Y-186237043D01*
X216917415Y-186236759D01*
X216917456Y-186236660D01*
X216917415Y-186236561D01*
X216917415Y-183437999D01*
X216917456Y-183437900D01*
X216917298Y-183437517D01*
X216917014Y-183437400D01*
X216916915Y-183437359D01*
X216916816Y-183437400D01*
X216142415Y-183437400D01*
X216107767Y-183423048D01*
X216093415Y-183388400D01*
X216093415Y-180221513D01*
X216093415Y-180207799D01*
X216093456Y-180207700D01*
X216093298Y-180207317D01*
X216093014Y-180207200D01*
X216092915Y-180207159D01*
X216092816Y-180207200D01*
X209342014Y-180207200D01*
X209341915Y-180207159D01*
X209341816Y-180207200D01*
X209341532Y-180207317D01*
X209341374Y-180207700D01*
X209341415Y-180207799D01*
X209341415Y-180221513D01*
X209341415Y-183388400D01*
X209327063Y-183423048D01*
X209292415Y-183437400D01*
X169767415Y-183437400D01*
X169732767Y-183423048D01*
X169718415Y-183388400D01*
X169718415Y-178751213D01*
X169718415Y-178737499D01*
X169718456Y-178737400D01*
X169718298Y-178737017D01*
X169718014Y-178736900D01*
X169717915Y-178736859D01*
X169717816Y-178736900D01*
X155717014Y-178736900D01*
X155716915Y-178736859D01*
X155716816Y-178736900D01*
X155716532Y-178737017D01*
X155716374Y-178737400D01*
X155716415Y-178737499D01*
X155716415Y-178751213D01*
X155716415Y-183388400D01*
X155702063Y-183423048D01*
X155667415Y-183437400D01*
X116142515Y-183437400D01*
X116107867Y-183423048D01*
X116093515Y-183388400D01*
X116093515Y-180221513D01*
X116093515Y-180207799D01*
X116093556Y-180207700D01*
X116093398Y-180207317D01*
X116093114Y-180207200D01*
X116093015Y-180207159D01*
X116092916Y-180207200D01*
X109342014Y-180207200D01*
X109341915Y-180207159D01*
X109341816Y-180207200D01*
X109341532Y-180207317D01*
X109341374Y-180207700D01*
X109341415Y-180207799D01*
X109341415Y-180221513D01*
X109341415Y-183388400D01*
X109327063Y-183423048D01*
X109292415Y-183437400D01*
X108517914Y-183437400D01*
X108517815Y-183437359D01*
X108517716Y-183437400D01*
X108517432Y-183437517D01*
X108517274Y-183437900D01*
X108517315Y-183437999D01*
X108517315Y-186236561D01*
X108517274Y-186236660D01*
X106432066Y-186236660D01*
X106303987Y-186023363D01*
X106303335Y-186022277D01*
X106071259Y-185713016D01*
X105808615Y-185429255D01*
X105712414Y-185344707D01*
X105519128Y-185174833D01*
X105519129Y-185174833D01*
X105518186Y-185174005D01*
X105356015Y-185058714D01*
X105204083Y-184950702D01*
X105204074Y-184950696D01*
X105203051Y-184949969D01*
X104866551Y-184759523D01*
X104678961Y-184677541D01*
X104513414Y-184605192D01*
X104513407Y-184605189D01*
X104512253Y-184604685D01*
X104511055Y-184604302D01*
X104511051Y-184604301D01*
X104145113Y-184487481D01*
X104145105Y-184487479D01*
X104143912Y-184487098D01*
X104142680Y-184486840D01*
X104142678Y-184486840D01*
X103766671Y-184408265D01*
X103766657Y-184408262D01*
X103765433Y-184408007D01*
X103764178Y-184407877D01*
X103764170Y-184407876D01*
X103382088Y-184368380D01*
X103382081Y-184368379D01*
X103380827Y-184368250D01*
X103090911Y-184368250D01*
X103090271Y-184368282D01*
X103090270Y-184368283D01*
X102802619Y-184383110D01*
X102802599Y-184383111D01*
X102801358Y-184383176D01*
X102800123Y-184383368D01*
X102800107Y-184383370D01*
X102420565Y-184442482D01*
X102420557Y-184442483D01*
X102419309Y-184442678D01*
X102418085Y-184443000D01*
X102418077Y-184443002D01*
X102046628Y-184540825D01*
X102046621Y-184540827D01*
X102045403Y-184541148D01*
X102044225Y-184541592D01*
X102044219Y-184541594D01*
X101684785Y-184677095D01*
X101684771Y-184677100D01*
X101683604Y-184677541D01*
X101682497Y-184678093D01*
X101682477Y-184678103D01*
X101338868Y-184849851D01*
X101337746Y-184850412D01*
X101336691Y-184851082D01*
X101336684Y-184851087D01*
X101012566Y-185057246D01*
X101012547Y-185057259D01*
X101011496Y-185057928D01*
X101010511Y-185058707D01*
X101010502Y-185058714D01*
X100709301Y-185297107D01*
X100709289Y-185297117D01*
X100708313Y-185297890D01*
X100707420Y-185298759D01*
X100707410Y-185298769D01*
X100432315Y-185566869D01*
X100432305Y-185566879D01*
X100431409Y-185567753D01*
X100430600Y-185568721D01*
X100430596Y-185568727D01*
X100184533Y-185863683D01*
X100184520Y-185863699D01*
X100183721Y-185864658D01*
X100183023Y-185865694D01*
X100183012Y-185865710D01*
X99968585Y-186184397D01*
X99968580Y-186184404D01*
X99967873Y-186185456D01*
X99967277Y-186186575D01*
X99967273Y-186186582D01*
X99786752Y-186525624D01*
X99786154Y-186526748D01*
X99785683Y-186527904D01*
X99785675Y-186527923D01*
X99640968Y-186883741D01*
X99640962Y-186883755D01*
X99640491Y-186884916D01*
X99640136Y-186886132D01*
X99640135Y-186886138D01*
X99532777Y-187254954D01*
X99532773Y-187254970D01*
X99532426Y-187256163D01*
X99532204Y-187257380D01*
X99532200Y-187257398D01*
X99463331Y-187635313D01*
X99463328Y-187635331D01*
X99463106Y-187636553D01*
X99463010Y-187637789D01*
X99463008Y-187637807D01*
X99433363Y-188020794D01*
X99433362Y-188020804D01*
X99433266Y-188022054D01*
X98280715Y-188022054D01*
X98280715Y-178737499D01*
X98280756Y-178737400D01*
X98280598Y-178737017D01*
X98280314Y-178736900D01*
X98280215Y-178736859D01*
X98280116Y-178736900D01*
X84281014Y-178736900D01*
X84280915Y-178736859D01*
X84280816Y-178736900D01*
X84280532Y-178737017D01*
X84280374Y-178737400D01*
X84280415Y-178737499D01*
X84280415Y-192736761D01*
X84280374Y-192736860D01*
X74468256Y-192736860D01*
X74468215Y-192736761D01*
X74468215Y-178737499D01*
X74468256Y-178737400D01*
X74468098Y-178737017D01*
X74467814Y-178736900D01*
X74467715Y-178736859D01*
X74467616Y-178736900D01*
X60467014Y-178736900D01*
X60466915Y-178736859D01*
X60466816Y-178736900D01*
X60466532Y-178737017D01*
X60466374Y-178737400D01*
X60466415Y-178737499D01*
X60466415Y-192736761D01*
X60466374Y-192736860D01*
X50655856Y-192736860D01*
X50655815Y-192736761D01*
X50655815Y-178737499D01*
X50655856Y-178737400D01*
X50655698Y-178737017D01*
X50655414Y-178736900D01*
X50655315Y-178736859D01*
X50655216Y-178736900D01*
X36655924Y-178736900D01*
X36655825Y-178736859D01*
X36655726Y-178736900D01*
X36655442Y-178737017D01*
X36655284Y-178737400D01*
X36655325Y-178737499D01*
X36655325Y-192736761D01*
X36655284Y-192736860D01*
X31750500Y-192736860D01*
X31750500Y-173686900D01*
X36655284Y-173686900D01*
X36655325Y-173686999D01*
X36655442Y-173687283D01*
X36655825Y-173687441D01*
X36655924Y-173687400D01*
X39581505Y-173687400D01*
X39616153Y-173701752D01*
X39630505Y-173736400D01*
X39630505Y-174656901D01*
X39630464Y-174657000D01*
X39630505Y-174657099D01*
X39630622Y-174657383D01*
X39631005Y-174657541D01*
X39631104Y-174657500D01*
X42929916Y-174657500D01*
X42930015Y-174657541D01*
X42930398Y-174657383D01*
X42930515Y-174657099D01*
X42930556Y-174657000D01*
X42930515Y-174656901D01*
X42930515Y-173736400D01*
X42944867Y-173701752D01*
X42979515Y-173687400D01*
X63380215Y-173687400D01*
X63414863Y-173701752D01*
X63429215Y-173736400D01*
X63429215Y-174656901D01*
X63429174Y-174657000D01*
X63429215Y-174657099D01*
X63429332Y-174657383D01*
X63429715Y-174657541D01*
X63429814Y-174657500D01*
X66730016Y-174657500D01*
X66730115Y-174657541D01*
X66730498Y-174657383D01*
X66730615Y-174657099D01*
X66730656Y-174657000D01*
X66730615Y-174656901D01*
X66730615Y-173736400D01*
X66744967Y-173701752D01*
X66779615Y-173687400D01*
X72086316Y-173687400D01*
X72086415Y-173687441D01*
X72086798Y-173687283D01*
X72086915Y-173686999D01*
X72086956Y-173686900D01*
X77136574Y-173686900D01*
X77136615Y-173686999D01*
X77136732Y-173687283D01*
X77137115Y-173687441D01*
X77137214Y-173687400D01*
X91136316Y-173687400D01*
X91136415Y-173687441D01*
X91136798Y-173687283D01*
X91136915Y-173686999D01*
X91136956Y-173686900D01*
X96186574Y-173686900D01*
X96186615Y-173686999D01*
X96186732Y-173687283D01*
X96187115Y-173687441D01*
X96187214Y-173687400D01*
X110186316Y-173687400D01*
X110186415Y-173687441D01*
X110186798Y-173687283D01*
X110186915Y-173686999D01*
X110186956Y-173686900D01*
X115236574Y-173686900D01*
X115236615Y-173686999D01*
X115236732Y-173687283D01*
X115237115Y-173687441D01*
X115237214Y-173687400D01*
X129236316Y-173687400D01*
X129236415Y-173687441D01*
X129236798Y-173687283D01*
X129236915Y-173686999D01*
X129236956Y-173686900D01*
X134286374Y-173686900D01*
X134286415Y-173686999D01*
X134286532Y-173687283D01*
X134286915Y-173687441D01*
X134287014Y-173687400D01*
X148286816Y-173687400D01*
X148286915Y-173687441D01*
X148287298Y-173687283D01*
X148287415Y-173686999D01*
X148287456Y-173686900D01*
X153336374Y-173686900D01*
X153336415Y-173686999D01*
X153336532Y-173687283D01*
X153336915Y-173687441D01*
X153337014Y-173687400D01*
X167336816Y-173687400D01*
X167336915Y-173687441D01*
X167337298Y-173687283D01*
X167337415Y-173686999D01*
X167337456Y-173686900D01*
X172386374Y-173686900D01*
X172386415Y-173686999D01*
X172386532Y-173687283D01*
X172386915Y-173687441D01*
X172387014Y-173687400D01*
X186386816Y-173687400D01*
X186386915Y-173687441D01*
X186387298Y-173687283D01*
X186387415Y-173686999D01*
X186387456Y-173686900D01*
X191436374Y-173686900D01*
X191436415Y-173686999D01*
X191436532Y-173687283D01*
X191436915Y-173687441D01*
X191437014Y-173687400D01*
X205436816Y-173687400D01*
X205436915Y-173687441D01*
X205437298Y-173687283D01*
X205437415Y-173686999D01*
X205437456Y-173686900D01*
X210486374Y-173686900D01*
X210486415Y-173686999D01*
X210486532Y-173687283D01*
X210486915Y-173687441D01*
X210487014Y-173687400D01*
X224486816Y-173687400D01*
X224486915Y-173687441D01*
X224487298Y-173687283D01*
X224487415Y-173686999D01*
X224487456Y-173686900D01*
X229536374Y-173686900D01*
X229536415Y-173686999D01*
X229536532Y-173687283D01*
X229536915Y-173687441D01*
X229537014Y-173687400D01*
X243536816Y-173687400D01*
X243536915Y-173687441D01*
X243537298Y-173687283D01*
X243537415Y-173686999D01*
X243537456Y-173686900D01*
X248586374Y-173686900D01*
X248586415Y-173686999D01*
X248586532Y-173687283D01*
X248586915Y-173687441D01*
X248587014Y-173687400D01*
X262586816Y-173687400D01*
X262586915Y-173687441D01*
X262587298Y-173687283D01*
X262587415Y-173686999D01*
X262587456Y-173686900D01*
X262587415Y-173686801D01*
X262587415Y-167186700D01*
X275204374Y-167186700D01*
X275204415Y-167186799D01*
X275204532Y-167187083D01*
X275204915Y-167187241D01*
X275205014Y-167187200D01*
X275981415Y-167187200D01*
X276016063Y-167201552D01*
X276030415Y-167236200D01*
X276030415Y-173456601D01*
X276030374Y-173456700D01*
X276030415Y-173456799D01*
X276030532Y-173457083D01*
X276030915Y-173457241D01*
X276031014Y-173457200D01*
X277706415Y-173457200D01*
X277741063Y-173471552D01*
X277755415Y-173506200D01*
X277755415Y-174656901D01*
X277755374Y-174657000D01*
X277755415Y-174657099D01*
X277755532Y-174657383D01*
X277755915Y-174657541D01*
X277756014Y-174657500D01*
X281054816Y-174657500D01*
X281054915Y-174657541D01*
X281055298Y-174657383D01*
X281055415Y-174657099D01*
X281055456Y-174657000D01*
X281055415Y-174656901D01*
X281055415Y-173506200D01*
X281069767Y-173471552D01*
X281104415Y-173457200D01*
X282780816Y-173457200D01*
X282780915Y-173457241D01*
X282781298Y-173457083D01*
X282781415Y-173456799D01*
X282781456Y-173456700D01*
X282781415Y-173456601D01*
X282781415Y-169037300D01*
X282795767Y-169002652D01*
X282830415Y-168988300D01*
X284255415Y-168988300D01*
X284290063Y-169002652D01*
X284304415Y-169037300D01*
X284304415Y-173686801D01*
X284304374Y-173686900D01*
X284304415Y-173686999D01*
X284304532Y-173687283D01*
X284304915Y-173687441D01*
X284305014Y-173687400D01*
X298304816Y-173687400D01*
X298304915Y-173687441D01*
X298305298Y-173687283D01*
X298305415Y-173686999D01*
X298305456Y-173686900D01*
X298305415Y-173686801D01*
X298305415Y-169037300D01*
X298319767Y-169002652D01*
X298354415Y-168988300D01*
X299781415Y-168988300D01*
X299816063Y-169002652D01*
X299830415Y-169037300D01*
X299830415Y-173456601D01*
X299830374Y-173456700D01*
X299830415Y-173456799D01*
X299830532Y-173457083D01*
X299830915Y-173457241D01*
X299831014Y-173457200D01*
X301506415Y-173457200D01*
X301541063Y-173471552D01*
X301555415Y-173506200D01*
X301555415Y-174656901D01*
X301555374Y-174657000D01*
X301555415Y-174657099D01*
X301555532Y-174657383D01*
X301555915Y-174657541D01*
X301556014Y-174657500D01*
X304854816Y-174657500D01*
X304854915Y-174657541D01*
X304855298Y-174657383D01*
X304855415Y-174657099D01*
X304855456Y-174657000D01*
X304855415Y-174656901D01*
X304855415Y-173686900D01*
X343836374Y-173686900D01*
X343836415Y-173686999D01*
X343836532Y-173687283D01*
X343836915Y-173687441D01*
X343837014Y-173687400D01*
X357836816Y-173687400D01*
X357836915Y-173687441D01*
X357837298Y-173687283D01*
X357837415Y-173686999D01*
X357837456Y-173686900D01*
X357837415Y-173686801D01*
X357837415Y-159687599D01*
X357837456Y-159687500D01*
X357837298Y-159687117D01*
X357837014Y-159687000D01*
X357836915Y-159686959D01*
X357836816Y-159687000D01*
X343837014Y-159687000D01*
X343836915Y-159686959D01*
X343836816Y-159687000D01*
X343836532Y-159687117D01*
X343836374Y-159687500D01*
X343836415Y-159687599D01*
X343836415Y-173686801D01*
X343836374Y-173686900D01*
X304855415Y-173686900D01*
X304855415Y-173506200D01*
X304869767Y-173471552D01*
X304904415Y-173457200D01*
X306579816Y-173457200D01*
X306579915Y-173457241D01*
X306580298Y-173457083D01*
X306580415Y-173456799D01*
X306580456Y-173456700D01*
X306580415Y-173456601D01*
X306580415Y-167236200D01*
X306594767Y-167201552D01*
X306629415Y-167187200D01*
X307405816Y-167187200D01*
X307405915Y-167187241D01*
X307406298Y-167187083D01*
X307406415Y-167186799D01*
X307406456Y-167186700D01*
X307406415Y-167186601D01*
X307406415Y-164387999D01*
X307406456Y-164387900D01*
X307406298Y-164387517D01*
X307406014Y-164387400D01*
X307405915Y-164387359D01*
X307405816Y-164387400D01*
X306629415Y-164387400D01*
X306594767Y-164373048D01*
X306580415Y-164338400D01*
X306580415Y-161171513D01*
X306580415Y-161157799D01*
X306580456Y-161157700D01*
X306580298Y-161157317D01*
X306580014Y-161157200D01*
X306579915Y-161157159D01*
X306579816Y-161157200D01*
X299831014Y-161157200D01*
X299830915Y-161157159D01*
X299830816Y-161157200D01*
X299830532Y-161157317D01*
X299830374Y-161157700D01*
X299830415Y-161157799D01*
X299830415Y-161171513D01*
X299830415Y-164338400D01*
X299816063Y-164373048D01*
X299781415Y-164387400D01*
X298354415Y-164387400D01*
X298319767Y-164373048D01*
X298305415Y-164338400D01*
X298305415Y-159701313D01*
X298305415Y-159687599D01*
X298305456Y-159687500D01*
X298305298Y-159687117D01*
X298305014Y-159687000D01*
X298304915Y-159686959D01*
X298304816Y-159687000D01*
X284305014Y-159687000D01*
X284304915Y-159686959D01*
X284304816Y-159687000D01*
X284304532Y-159687117D01*
X284304374Y-159687500D01*
X284304415Y-159687599D01*
X284304415Y-159701313D01*
X284304415Y-164338400D01*
X284290063Y-164373048D01*
X284255415Y-164387400D01*
X282830415Y-164387400D01*
X282795767Y-164373048D01*
X282781415Y-164338400D01*
X282781415Y-161171513D01*
X282781415Y-161157799D01*
X282781456Y-161157700D01*
X282781298Y-161157317D01*
X282781014Y-161157200D01*
X282780915Y-161157159D01*
X282780816Y-161157200D01*
X276031014Y-161157200D01*
X276030915Y-161157159D01*
X276030816Y-161157200D01*
X276030532Y-161157317D01*
X276030374Y-161157700D01*
X276030415Y-161157799D01*
X276030415Y-161171513D01*
X276030415Y-164338400D01*
X276016063Y-164373048D01*
X275981415Y-164387400D01*
X275205014Y-164387400D01*
X275204915Y-164387359D01*
X275204816Y-164387400D01*
X275204532Y-164387517D01*
X275204374Y-164387900D01*
X275204415Y-164387999D01*
X275204415Y-167186601D01*
X275204374Y-167186700D01*
X262587415Y-167186700D01*
X262587415Y-159687599D01*
X262587456Y-159687500D01*
X262587298Y-159687117D01*
X262587014Y-159687000D01*
X262586915Y-159686959D01*
X262586816Y-159687000D01*
X248587014Y-159687000D01*
X248586915Y-159686959D01*
X248586816Y-159687000D01*
X248586532Y-159687117D01*
X248586374Y-159687500D01*
X248586415Y-159687599D01*
X248586415Y-173686801D01*
X248586374Y-173686900D01*
X243537456Y-173686900D01*
X243537415Y-173686801D01*
X243537415Y-159687599D01*
X243537456Y-159687500D01*
X243537298Y-159687117D01*
X243537014Y-159687000D01*
X243536915Y-159686959D01*
X243536816Y-159687000D01*
X229537014Y-159687000D01*
X229536915Y-159686959D01*
X229536816Y-159687000D01*
X229536532Y-159687117D01*
X229536374Y-159687500D01*
X229536415Y-159687599D01*
X229536415Y-173686801D01*
X229536374Y-173686900D01*
X224487456Y-173686900D01*
X224487415Y-173686801D01*
X224487415Y-159687599D01*
X224487456Y-159687500D01*
X224487298Y-159687117D01*
X224487014Y-159687000D01*
X224486915Y-159686959D01*
X224486816Y-159687000D01*
X210487014Y-159687000D01*
X210486915Y-159686959D01*
X210486816Y-159687000D01*
X210486532Y-159687117D01*
X210486374Y-159687500D01*
X210486415Y-159687599D01*
X210486415Y-173686801D01*
X210486374Y-173686900D01*
X205437456Y-173686900D01*
X205437415Y-173686801D01*
X205437415Y-159687599D01*
X205437456Y-159687500D01*
X205437298Y-159687117D01*
X205437014Y-159687000D01*
X205436915Y-159686959D01*
X205436816Y-159687000D01*
X191437014Y-159687000D01*
X191436915Y-159686959D01*
X191436816Y-159687000D01*
X191436532Y-159687117D01*
X191436374Y-159687500D01*
X191436415Y-159687599D01*
X191436415Y-173686801D01*
X191436374Y-173686900D01*
X186387456Y-173686900D01*
X186387415Y-173686801D01*
X186387415Y-159687599D01*
X186387456Y-159687500D01*
X186387298Y-159687117D01*
X186387014Y-159687000D01*
X186386915Y-159686959D01*
X186386816Y-159687000D01*
X172387014Y-159687000D01*
X172386915Y-159686959D01*
X172386816Y-159687000D01*
X172386532Y-159687117D01*
X172386374Y-159687500D01*
X172386415Y-159687599D01*
X172386415Y-173686801D01*
X172386374Y-173686900D01*
X167337456Y-173686900D01*
X167337415Y-173686801D01*
X167337415Y-159687599D01*
X167337456Y-159687500D01*
X167337298Y-159687117D01*
X167337014Y-159687000D01*
X167336915Y-159686959D01*
X167336816Y-159687000D01*
X153337014Y-159687000D01*
X153336915Y-159686959D01*
X153336816Y-159687000D01*
X153336532Y-159687117D01*
X153336374Y-159687500D01*
X153336415Y-159687599D01*
X153336415Y-173686801D01*
X153336374Y-173686900D01*
X148287456Y-173686900D01*
X148287415Y-173686801D01*
X148287415Y-159687599D01*
X148287456Y-159687500D01*
X148287298Y-159687117D01*
X148287014Y-159687000D01*
X148286915Y-159686959D01*
X148286816Y-159687000D01*
X134287014Y-159687000D01*
X134286915Y-159686959D01*
X134286816Y-159687000D01*
X134286532Y-159687117D01*
X134286374Y-159687500D01*
X134286415Y-159687599D01*
X134286415Y-173686801D01*
X134286374Y-173686900D01*
X129236956Y-173686900D01*
X129236915Y-173686801D01*
X129236915Y-159687599D01*
X129236956Y-159687500D01*
X129236798Y-159687117D01*
X129236514Y-159687000D01*
X129236415Y-159686959D01*
X129236316Y-159687000D01*
X115237214Y-159687000D01*
X115237115Y-159686959D01*
X115237016Y-159687000D01*
X115236732Y-159687117D01*
X115236574Y-159687500D01*
X115236615Y-159687599D01*
X115236615Y-173686801D01*
X115236574Y-173686900D01*
X110186956Y-173686900D01*
X110186915Y-173686801D01*
X110186915Y-159687599D01*
X110186956Y-159687500D01*
X110186798Y-159687117D01*
X110186514Y-159687000D01*
X110186415Y-159686959D01*
X110186316Y-159687000D01*
X96187214Y-159687000D01*
X96187115Y-159686959D01*
X96187016Y-159687000D01*
X96186732Y-159687117D01*
X96186574Y-159687500D01*
X96186615Y-159687599D01*
X96186615Y-173686801D01*
X96186574Y-173686900D01*
X91136956Y-173686900D01*
X91136915Y-173686801D01*
X91136915Y-159687599D01*
X91136956Y-159687500D01*
X91136798Y-159687117D01*
X91136514Y-159687000D01*
X91136415Y-159686959D01*
X91136316Y-159687000D01*
X77137214Y-159687000D01*
X77137115Y-159686959D01*
X77137016Y-159687000D01*
X77136732Y-159687117D01*
X77136574Y-159687500D01*
X77136615Y-159687599D01*
X77136615Y-173686801D01*
X77136574Y-173686900D01*
X72086956Y-173686900D01*
X72086915Y-173686801D01*
X72086915Y-159687599D01*
X72086956Y-159687500D01*
X72086798Y-159687117D01*
X72086514Y-159687000D01*
X72086415Y-159686959D01*
X72086316Y-159687000D01*
X36655924Y-159687000D01*
X36655825Y-159686959D01*
X36655726Y-159687000D01*
X36655442Y-159687117D01*
X36655284Y-159687500D01*
X36655325Y-159687599D01*
X36655325Y-173686801D01*
X36655284Y-173686900D01*
X31750500Y-173686900D01*
X31750500Y-154636700D01*
X36655284Y-154636700D01*
X36655325Y-154636799D01*
X36655442Y-154637083D01*
X36655825Y-154637241D01*
X36655924Y-154637200D01*
X55417716Y-154637200D01*
X55417815Y-154637241D01*
X55418198Y-154637083D01*
X55418315Y-154636799D01*
X55418356Y-154636700D01*
X67611574Y-154636700D01*
X67611615Y-154636799D01*
X67611732Y-154637083D01*
X67612115Y-154637241D01*
X67612214Y-154637200D01*
X81611316Y-154637200D01*
X81611415Y-154637241D01*
X81611798Y-154637083D01*
X81611915Y-154636799D01*
X81611956Y-154636700D01*
X86661574Y-154636700D01*
X86661615Y-154636799D01*
X86661732Y-154637083D01*
X86662115Y-154637241D01*
X86662214Y-154637200D01*
X100661316Y-154637200D01*
X100661415Y-154637241D01*
X100661798Y-154637083D01*
X100661915Y-154636799D01*
X100661956Y-154636700D01*
X105711574Y-154636700D01*
X105711615Y-154636799D01*
X105711732Y-154637083D01*
X105712115Y-154637241D01*
X105712214Y-154637200D01*
X119711316Y-154637200D01*
X119711415Y-154637241D01*
X119711798Y-154637083D01*
X119711915Y-154636799D01*
X119711956Y-154636700D01*
X124761574Y-154636700D01*
X124761615Y-154636799D01*
X124761732Y-154637083D01*
X124762115Y-154637241D01*
X124762214Y-154637200D01*
X138761816Y-154637200D01*
X138761915Y-154637241D01*
X138762298Y-154637083D01*
X138762415Y-154636799D01*
X138762456Y-154636700D01*
X138762415Y-154636601D01*
X138762415Y-140637499D01*
X138762456Y-140637400D01*
X138762298Y-140637017D01*
X138762014Y-140636900D01*
X138761915Y-140636859D01*
X138761816Y-140636900D01*
X124762214Y-140636900D01*
X124762115Y-140636859D01*
X124762016Y-140636900D01*
X124761732Y-140637017D01*
X124761574Y-140637400D01*
X124761615Y-140637499D01*
X124761615Y-154636601D01*
X124761574Y-154636700D01*
X119711956Y-154636700D01*
X119711915Y-154636601D01*
X119711915Y-140637499D01*
X119711956Y-140637400D01*
X119711798Y-140637017D01*
X119711514Y-140636900D01*
X119711415Y-140636859D01*
X119711316Y-140636900D01*
X105712214Y-140636900D01*
X105712115Y-140636859D01*
X105712016Y-140636900D01*
X105711732Y-140637017D01*
X105711574Y-140637400D01*
X105711615Y-140637499D01*
X105711615Y-154636601D01*
X105711574Y-154636700D01*
X100661956Y-154636700D01*
X100661915Y-154636601D01*
X100661915Y-140637499D01*
X100661956Y-140637400D01*
X100661798Y-140637017D01*
X100661514Y-140636900D01*
X100661415Y-140636859D01*
X100661316Y-140636900D01*
X86662214Y-140636900D01*
X86662115Y-140636859D01*
X86662016Y-140636900D01*
X86661732Y-140637017D01*
X86661574Y-140637400D01*
X86661615Y-140637499D01*
X86661615Y-154636601D01*
X86661574Y-154636700D01*
X81611956Y-154636700D01*
X81611915Y-154636601D01*
X81611915Y-140637499D01*
X81611956Y-140637400D01*
X81611798Y-140637017D01*
X81611514Y-140636900D01*
X81611415Y-140636859D01*
X81611316Y-140636900D01*
X67612214Y-140636900D01*
X67612115Y-140636859D01*
X67612016Y-140636900D01*
X67611732Y-140637017D01*
X67611574Y-140637400D01*
X67611615Y-140637499D01*
X67611615Y-154636601D01*
X67611574Y-154636700D01*
X55418356Y-154636700D01*
X55418315Y-154636601D01*
X55418315Y-140637499D01*
X55418356Y-140637400D01*
X55418198Y-140637017D01*
X55417914Y-140636900D01*
X55417815Y-140636859D01*
X55417716Y-140636900D01*
X44157968Y-140636900D01*
X44124376Y-140623573D01*
X44109056Y-140590842D01*
X44120342Y-140556511D01*
X44277966Y-140367566D01*
X44278779Y-140366592D01*
X44494627Y-140045794D01*
X44676346Y-139704502D01*
X44822009Y-139346334D01*
X44930074Y-138975087D01*
X44999394Y-138594697D01*
X45029234Y-138209196D01*
X45019278Y-137822669D01*
X44969633Y-137439215D01*
X44880823Y-137062898D01*
X44857050Y-136994557D01*
X44783124Y-136782036D01*
X44753790Y-136697706D01*
X44589882Y-136347512D01*
X44589234Y-136346434D01*
X44589231Y-136346427D01*
X44391487Y-136017113D01*
X44390835Y-136016027D01*
X44158759Y-135706766D01*
X44124250Y-135669482D01*
X44111227Y-135634939D01*
X44126012Y-135601109D01*
X44160211Y-135587200D01*
X53036516Y-135587200D01*
X53036615Y-135587241D01*
X53036998Y-135587083D01*
X53037115Y-135586799D01*
X53037156Y-135586700D01*
X62849074Y-135586700D01*
X62849115Y-135586799D01*
X62849232Y-135587083D01*
X62849615Y-135587241D01*
X62849714Y-135587200D01*
X76848816Y-135587200D01*
X76848915Y-135587241D01*
X76849298Y-135587083D01*
X76849415Y-135586799D01*
X76849456Y-135586700D01*
X81899074Y-135586700D01*
X81899115Y-135586799D01*
X81899232Y-135587083D01*
X81899615Y-135587241D01*
X81899714Y-135587200D01*
X95898816Y-135587200D01*
X95898915Y-135587241D01*
X95899298Y-135587083D01*
X95899415Y-135586799D01*
X95899456Y-135586700D01*
X100949074Y-135586700D01*
X100949115Y-135586799D01*
X100949232Y-135587083D01*
X100949615Y-135587241D01*
X100949714Y-135587200D01*
X114948816Y-135587200D01*
X114948915Y-135587241D01*
X114949298Y-135587083D01*
X114949415Y-135586799D01*
X114949456Y-135586700D01*
X119999074Y-135586700D01*
X119999115Y-135586799D01*
X119999232Y-135587083D01*
X119999615Y-135587241D01*
X119999714Y-135587200D01*
X133998816Y-135587200D01*
X133998915Y-135587241D01*
X133999298Y-135587083D01*
X133999415Y-135586799D01*
X133999456Y-135586700D01*
X139049374Y-135586700D01*
X139049415Y-135586799D01*
X139049532Y-135587083D01*
X139049915Y-135587241D01*
X139050014Y-135587200D01*
X152056172Y-135587200D01*
X152089252Y-135600051D01*
X152104980Y-135631864D01*
X152095106Y-135665951D01*
X152073543Y-135694168D01*
X152073534Y-135694180D01*
X152072818Y-135695118D01*
X152072198Y-135696115D01*
X152072187Y-135696132D01*
X151965316Y-135868189D01*
X151855856Y-136044413D01*
X151855337Y-136045461D01*
X151855334Y-136045468D01*
X151674143Y-136411955D01*
X151674138Y-136411964D01*
X151673619Y-136413016D01*
X151673208Y-136414099D01*
X151673200Y-136414118D01*
X151528225Y-136796386D01*
X151528219Y-136796403D01*
X151527808Y-136797488D01*
X151527500Y-136798616D01*
X151527498Y-136798625D01*
X151420093Y-137193103D01*
X151420089Y-137193117D01*
X151419785Y-137194237D01*
X151419589Y-137195381D01*
X151419587Y-137195393D01*
X151350758Y-137598388D01*
X151350558Y-137599560D01*
X151350472Y-137600743D01*
X151350471Y-137600752D01*
X151320860Y-138008478D01*
X151320859Y-138008492D01*
X151320774Y-138009672D01*
X151320953Y-138017066D01*
X151330680Y-138419570D01*
X151330680Y-138419582D01*
X151330709Y-138420744D01*
X151330849Y-138421899D01*
X151330850Y-138421909D01*
X151375879Y-138792753D01*
X151380273Y-138828938D01*
X151380527Y-138830091D01*
X151380528Y-138830092D01*
X151468746Y-139229288D01*
X151468749Y-139229302D01*
X151469002Y-139230443D01*
X151469365Y-139231563D01*
X151469367Y-139231567D01*
X151550613Y-139481619D01*
X151596067Y-139621510D01*
X151596536Y-139622587D01*
X151596540Y-139622597D01*
X151759807Y-139997397D01*
X151759813Y-139997409D01*
X151760283Y-139998488D01*
X151760858Y-139999523D01*
X151760864Y-139999534D01*
X151877888Y-140209983D01*
X151960116Y-140357857D01*
X151960789Y-140358832D01*
X151960794Y-140358840D01*
X152055474Y-140496008D01*
X152078155Y-140528867D01*
X152099690Y-140560065D01*
X152108007Y-140593806D01*
X152091857Y-140624577D01*
X152059364Y-140636900D01*
X143812014Y-140636900D01*
X143811915Y-140636859D01*
X143811816Y-140636900D01*
X143811532Y-140637017D01*
X143811374Y-140637400D01*
X143811415Y-140637499D01*
X143811415Y-154636601D01*
X143811374Y-154636700D01*
X143811415Y-154636799D01*
X143811532Y-154637083D01*
X143811915Y-154637241D01*
X143812014Y-154637200D01*
X157811816Y-154637200D01*
X157811915Y-154637241D01*
X157812298Y-154637083D01*
X157812415Y-154636799D01*
X157812456Y-154636700D01*
X162861374Y-154636700D01*
X162861415Y-154636799D01*
X162861532Y-154637083D01*
X162861915Y-154637241D01*
X162862014Y-154637200D01*
X176861816Y-154637200D01*
X176861915Y-154637241D01*
X176862298Y-154637083D01*
X176862415Y-154636799D01*
X176862456Y-154636700D01*
X181911374Y-154636700D01*
X181911415Y-154636799D01*
X181911532Y-154637083D01*
X181911915Y-154637241D01*
X181912014Y-154637200D01*
X195911816Y-154637200D01*
X195911915Y-154637241D01*
X195912298Y-154637083D01*
X195912415Y-154636799D01*
X195912456Y-154636700D01*
X200961374Y-154636700D01*
X200961415Y-154636799D01*
X200961532Y-154637083D01*
X200961915Y-154637241D01*
X200962014Y-154637200D01*
X214961816Y-154637200D01*
X214961915Y-154637241D01*
X214962298Y-154637083D01*
X214962415Y-154636799D01*
X214962456Y-154636700D01*
X220011374Y-154636700D01*
X220011415Y-154636799D01*
X220011532Y-154637083D01*
X220011915Y-154637241D01*
X220012014Y-154637200D01*
X234011816Y-154637200D01*
X234011915Y-154637241D01*
X234012298Y-154637083D01*
X234012415Y-154636799D01*
X234012456Y-154636700D01*
X239061374Y-154636700D01*
X239061415Y-154636799D01*
X239061532Y-154637083D01*
X239061915Y-154637241D01*
X239062014Y-154637200D01*
X253061816Y-154637200D01*
X253061915Y-154637241D01*
X253062298Y-154637083D01*
X253062415Y-154636799D01*
X253062456Y-154636700D01*
X258111374Y-154636700D01*
X258111415Y-154636799D01*
X258111532Y-154637083D01*
X258111915Y-154637241D01*
X258112014Y-154637200D01*
X272111816Y-154637200D01*
X272111915Y-154637241D01*
X272112298Y-154637083D01*
X272112415Y-154636799D01*
X272112456Y-154636700D01*
X277161374Y-154636700D01*
X277161415Y-154636799D01*
X277161532Y-154637083D01*
X277161915Y-154637241D01*
X277162014Y-154637200D01*
X282467415Y-154637200D01*
X282502063Y-154651552D01*
X282516415Y-154686200D01*
X282516415Y-155606801D01*
X282516374Y-155606900D01*
X282516415Y-155606999D01*
X282516532Y-155607283D01*
X282516915Y-155607441D01*
X282517014Y-155607400D01*
X285815816Y-155607400D01*
X285815915Y-155607441D01*
X285816298Y-155607283D01*
X285816415Y-155606999D01*
X285816456Y-155606900D01*
X285816415Y-155606801D01*
X285816415Y-154686200D01*
X285830767Y-154651552D01*
X285865415Y-154637200D01*
X303067816Y-154637200D01*
X303067915Y-154637241D01*
X303068298Y-154637083D01*
X303068415Y-154636799D01*
X303068456Y-154636700D01*
X303068415Y-154636601D01*
X303068415Y-154261800D01*
X303082767Y-154227152D01*
X303117415Y-154212800D01*
X304542415Y-154212800D01*
X304577063Y-154227152D01*
X304591415Y-154261800D01*
X304591415Y-154406601D01*
X304591374Y-154406700D01*
X304591415Y-154406799D01*
X304591532Y-154407083D01*
X304591915Y-154407241D01*
X304592014Y-154407200D01*
X306267415Y-154407200D01*
X306302063Y-154421552D01*
X306316415Y-154456200D01*
X306316415Y-155606801D01*
X306316374Y-155606900D01*
X306316415Y-155606999D01*
X306316532Y-155607283D01*
X306316915Y-155607441D01*
X306317014Y-155607400D01*
X309617816Y-155607400D01*
X309617915Y-155607441D01*
X309618298Y-155607283D01*
X309618415Y-155606999D01*
X309618456Y-155606900D01*
X309618415Y-155606801D01*
X309618415Y-154456200D01*
X309632767Y-154421552D01*
X309667415Y-154407200D01*
X311342816Y-154407200D01*
X311342915Y-154407241D01*
X311343298Y-154407083D01*
X311343415Y-154406799D01*
X311343456Y-154406700D01*
X311343415Y-154406601D01*
X311343415Y-153436300D01*
X311357767Y-153401652D01*
X311392415Y-153387300D01*
X312362816Y-153387300D01*
X312362915Y-153387341D01*
X312363298Y-153387183D01*
X312363415Y-153386899D01*
X312363456Y-153386800D01*
X312363415Y-153386701D01*
X312363415Y-151711300D01*
X312377767Y-151676652D01*
X312412415Y-151662300D01*
X313562816Y-151662300D01*
X313562915Y-151662341D01*
X313563298Y-151662183D01*
X313563415Y-151661899D01*
X313563456Y-151661800D01*
X313563415Y-151661701D01*
X313563415Y-148362699D01*
X313563456Y-148362600D01*
X313563298Y-148362217D01*
X313563014Y-148362100D01*
X313562915Y-148362059D01*
X313562816Y-148362100D01*
X312412415Y-148362100D01*
X312377767Y-148347748D01*
X312363415Y-148313100D01*
X312363415Y-146651313D01*
X312363415Y-146637599D01*
X312363456Y-146637500D01*
X312363298Y-146637117D01*
X312363014Y-146637000D01*
X312362915Y-146636959D01*
X312362816Y-146637000D01*
X312216415Y-146637000D01*
X312181767Y-146622648D01*
X312167415Y-146588000D01*
X312167415Y-145161200D01*
X312181767Y-145126552D01*
X312216415Y-145112200D01*
X312592816Y-145112200D01*
X312592915Y-145112241D01*
X312593298Y-145112083D01*
X312593415Y-145111799D01*
X312593456Y-145111700D01*
X312593415Y-145111601D01*
X312593415Y-135586700D01*
X324786374Y-135586700D01*
X324786415Y-135586799D01*
X324786532Y-135587083D01*
X324786915Y-135587241D01*
X324787014Y-135587200D01*
X338786816Y-135587200D01*
X338786915Y-135587241D01*
X338787298Y-135587083D01*
X338787415Y-135586799D01*
X338787456Y-135586700D01*
X343836374Y-135586700D01*
X343836415Y-135586799D01*
X343836532Y-135587083D01*
X343836915Y-135587241D01*
X343837014Y-135587200D01*
X357836816Y-135587200D01*
X357836915Y-135587241D01*
X357837298Y-135587083D01*
X357837415Y-135586799D01*
X357837456Y-135586700D01*
X362886374Y-135586700D01*
X362886415Y-135586799D01*
X362886532Y-135587083D01*
X362886915Y-135587241D01*
X362887014Y-135587200D01*
X376886816Y-135587200D01*
X376886915Y-135587241D01*
X376887298Y-135587083D01*
X376887415Y-135586799D01*
X376887456Y-135586700D01*
X376887415Y-135586601D01*
X376887415Y-121587499D01*
X376887456Y-121587400D01*
X376887298Y-121587017D01*
X376887014Y-121586900D01*
X376886915Y-121586859D01*
X376886816Y-121586900D01*
X362887014Y-121586900D01*
X362886915Y-121586859D01*
X362886816Y-121586900D01*
X362886532Y-121587017D01*
X362886374Y-121587400D01*
X362886415Y-121587499D01*
X362886415Y-135586601D01*
X362886374Y-135586700D01*
X357837456Y-135586700D01*
X357837415Y-135586601D01*
X357837415Y-121587499D01*
X357837456Y-121587400D01*
X357837298Y-121587017D01*
X357837014Y-121586900D01*
X357836915Y-121586859D01*
X357836816Y-121586900D01*
X343837014Y-121586900D01*
X343836915Y-121586859D01*
X343836816Y-121586900D01*
X343836532Y-121587017D01*
X343836374Y-121587400D01*
X343836415Y-121587499D01*
X343836415Y-135586601D01*
X343836374Y-135586700D01*
X338787456Y-135586700D01*
X338787415Y-135586601D01*
X338787415Y-121587499D01*
X338787456Y-121587400D01*
X338787298Y-121587017D01*
X338787014Y-121586900D01*
X338786915Y-121586859D01*
X338786816Y-121586900D01*
X324787014Y-121586900D01*
X324786915Y-121586859D01*
X324786816Y-121586900D01*
X324786532Y-121587017D01*
X324786374Y-121587400D01*
X324786415Y-121587499D01*
X324786415Y-135586601D01*
X324786374Y-135586700D01*
X312593415Y-135586700D01*
X312593415Y-131112499D01*
X312593456Y-131112400D01*
X312593298Y-131112017D01*
X312593014Y-131111900D01*
X312592915Y-131111859D01*
X312592816Y-131111900D01*
X310261415Y-131111900D01*
X310226767Y-131097548D01*
X310212415Y-131062900D01*
X310212415Y-129636500D01*
X310226767Y-129601852D01*
X310261415Y-129587500D01*
X312362816Y-129587500D01*
X312362915Y-129587541D01*
X312363298Y-129587383D01*
X312363415Y-129587099D01*
X312363456Y-129587000D01*
X312363415Y-129586901D01*
X312363415Y-127911100D01*
X312377767Y-127876452D01*
X312412415Y-127862100D01*
X313562816Y-127862100D01*
X313562915Y-127862141D01*
X313563298Y-127861983D01*
X313563415Y-127861699D01*
X313563456Y-127861600D01*
X313563415Y-127861501D01*
X313563415Y-124562499D01*
X313563456Y-124562400D01*
X313563298Y-124562017D01*
X313563014Y-124561900D01*
X313562915Y-124561859D01*
X313562816Y-124561900D01*
X312412415Y-124561900D01*
X312377767Y-124547548D01*
X312363415Y-124512900D01*
X312363415Y-122851113D01*
X312363415Y-122837399D01*
X312363456Y-122837300D01*
X312363298Y-122836917D01*
X312363014Y-122836800D01*
X312362915Y-122836759D01*
X312362816Y-122836800D01*
X310261415Y-122836800D01*
X310226767Y-122822448D01*
X310212415Y-122787800D01*
X310212415Y-121601213D01*
X310212415Y-121587499D01*
X310212456Y-121587400D01*
X310212298Y-121587017D01*
X310212014Y-121586900D01*
X310211915Y-121586859D01*
X310211816Y-121586900D01*
X296212014Y-121586900D01*
X296211915Y-121586859D01*
X296211816Y-121586900D01*
X296211532Y-121587017D01*
X296211374Y-121587400D01*
X296211415Y-121587499D01*
X296211415Y-135586601D01*
X296211374Y-135586700D01*
X296211415Y-135586799D01*
X296211532Y-135587083D01*
X296211915Y-135587241D01*
X296212014Y-135587200D01*
X298542415Y-135587200D01*
X298577063Y-135601552D01*
X298591415Y-135636200D01*
X298591415Y-140587900D01*
X298577063Y-140622548D01*
X298542415Y-140636900D01*
X277162014Y-140636900D01*
X277161915Y-140636859D01*
X277161816Y-140636900D01*
X277161532Y-140637017D01*
X277161374Y-140637400D01*
X277161415Y-140637499D01*
X277161415Y-154636601D01*
X277161374Y-154636700D01*
X272112456Y-154636700D01*
X272112415Y-154636601D01*
X272112415Y-140637499D01*
X272112456Y-140637400D01*
X272112298Y-140637017D01*
X272112014Y-140636900D01*
X272111915Y-140636859D01*
X272111816Y-140636900D01*
X258112014Y-140636900D01*
X258111915Y-140636859D01*
X258111816Y-140636900D01*
X258111532Y-140637017D01*
X258111374Y-140637400D01*
X258111415Y-140637499D01*
X258111415Y-154636601D01*
X258111374Y-154636700D01*
X253062456Y-154636700D01*
X253062415Y-154636601D01*
X253062415Y-140637499D01*
X253062456Y-140637400D01*
X253062298Y-140637017D01*
X253062014Y-140636900D01*
X253061915Y-140636859D01*
X253061816Y-140636900D01*
X239062014Y-140636900D01*
X239061915Y-140636859D01*
X239061816Y-140636900D01*
X239061532Y-140637017D01*
X239061374Y-140637400D01*
X239061415Y-140637499D01*
X239061415Y-154636601D01*
X239061374Y-154636700D01*
X234012456Y-154636700D01*
X234012415Y-154636601D01*
X234012415Y-140637499D01*
X234012456Y-140637400D01*
X234012298Y-140637017D01*
X234012014Y-140636900D01*
X234011915Y-140636859D01*
X234011816Y-140636900D01*
X220012014Y-140636900D01*
X220011915Y-140636859D01*
X220011816Y-140636900D01*
X220011532Y-140637017D01*
X220011374Y-140637400D01*
X220011415Y-140637499D01*
X220011415Y-154636601D01*
X220011374Y-154636700D01*
X214962456Y-154636700D01*
X214962415Y-154636601D01*
X214962415Y-140637499D01*
X214962456Y-140637400D01*
X214962298Y-140637017D01*
X214962014Y-140636900D01*
X214961915Y-140636859D01*
X214961816Y-140636900D01*
X200962014Y-140636900D01*
X200961915Y-140636859D01*
X200961816Y-140636900D01*
X200961532Y-140637017D01*
X200961374Y-140637400D01*
X200961415Y-140637499D01*
X200961415Y-154636601D01*
X200961374Y-154636700D01*
X195912456Y-154636700D01*
X195912415Y-154636601D01*
X195912415Y-140637499D01*
X195912456Y-140637400D01*
X195912298Y-140637017D01*
X195912014Y-140636900D01*
X195911915Y-140636859D01*
X195911816Y-140636900D01*
X181912014Y-140636900D01*
X181911915Y-140636859D01*
X181911816Y-140636900D01*
X181911532Y-140637017D01*
X181911374Y-140637400D01*
X181911415Y-140637499D01*
X181911415Y-154636601D01*
X181911374Y-154636700D01*
X176862456Y-154636700D01*
X176862415Y-154636601D01*
X176862415Y-140637499D01*
X176862456Y-140637400D01*
X176862298Y-140637017D01*
X176862014Y-140636900D01*
X176861915Y-140636859D01*
X176861816Y-140636900D01*
X162862014Y-140636900D01*
X162861915Y-140636859D01*
X162861816Y-140636900D01*
X162861532Y-140637017D01*
X162861374Y-140637400D01*
X162861415Y-140637499D01*
X162861415Y-154636601D01*
X162861374Y-154636700D01*
X157812456Y-154636700D01*
X157812415Y-154636601D01*
X157812415Y-141755759D01*
X157818881Y-141731430D01*
X157836574Y-141713523D01*
X157907050Y-141672073D01*
X158239712Y-141430380D01*
X158547493Y-141157709D01*
X158827522Y-140856606D01*
X159077182Y-140529882D01*
X159294144Y-140180587D01*
X159476381Y-139811984D01*
X159622192Y-139427512D01*
X159730215Y-139030763D01*
X159799442Y-138625440D01*
X159829226Y-138215328D01*
X159819291Y-137804256D01*
X159769727Y-137396062D01*
X159680998Y-136994557D01*
X159553933Y-136603490D01*
X159389717Y-136226512D01*
X159189884Y-135867143D01*
X159163697Y-135829205D01*
X159114900Y-135758510D01*
X159049688Y-135664034D01*
X159042422Y-135634554D01*
X287552016Y-135634554D01*
X287552048Y-135635806D01*
X287552048Y-135635816D01*
X287561939Y-136019826D01*
X287561940Y-136019838D01*
X287561972Y-136021081D01*
X287562134Y-136022332D01*
X287604382Y-136348657D01*
X287611617Y-136404535D01*
X287611904Y-136405754D01*
X287611906Y-136405761D01*
X287700138Y-136779631D01*
X287700142Y-136779646D01*
X287700427Y-136780852D01*
X287700833Y-136782020D01*
X287700838Y-136782036D01*
X287827046Y-137144855D01*
X287827460Y-137146044D01*
X287827992Y-137147180D01*
X287827995Y-137147188D01*
X287875510Y-137248704D01*
X287991368Y-137496238D01*
X287992010Y-137497308D01*
X287992018Y-137497322D01*
X288177028Y-137805429D01*
X288190415Y-137827723D01*
X288191173Y-137828733D01*
X288309426Y-137986316D01*
X288422491Y-138136984D01*
X288685135Y-138420745D01*
X288975564Y-138675995D01*
X288976587Y-138676722D01*
X288976588Y-138676723D01*
X289289666Y-138899297D01*
X289289671Y-138899300D01*
X289290699Y-138900031D01*
X289627199Y-139090477D01*
X289981497Y-139245315D01*
X290349838Y-139362902D01*
X290728317Y-139441993D01*
X291112923Y-139481750D01*
X291402198Y-139481750D01*
X291402839Y-139481750D01*
X291692392Y-139466824D01*
X292074441Y-139407322D01*
X292448347Y-139308852D01*
X292810146Y-139172459D01*
X293156004Y-138999588D01*
X293482254Y-138792072D01*
X293785437Y-138552110D01*
X294062341Y-138282247D01*
X294310029Y-137985342D01*
X294525877Y-137664544D01*
X294707596Y-137323252D01*
X294853259Y-136965084D01*
X294961324Y-136593837D01*
X295030644Y-136213447D01*
X295060484Y-135827946D01*
X295050528Y-135441419D01*
X295000883Y-135057965D01*
X294912073Y-134681648D01*
X294867538Y-134553621D01*
X294829358Y-134443861D01*
X294785040Y-134316456D01*
X294621132Y-133966262D01*
X294620484Y-133965184D01*
X294620481Y-133965177D01*
X294422737Y-133635863D01*
X294422085Y-133634777D01*
X294190009Y-133325516D01*
X293927365Y-133041755D01*
X293636936Y-132786505D01*
X293474765Y-132671214D01*
X293322833Y-132563202D01*
X293322824Y-132563196D01*
X293321801Y-132562469D01*
X292985301Y-132372023D01*
X292797711Y-132290041D01*
X292632164Y-132217692D01*
X292632157Y-132217689D01*
X292631003Y-132217185D01*
X292629805Y-132216802D01*
X292629801Y-132216801D01*
X292263863Y-132099981D01*
X292263855Y-132099979D01*
X292262662Y-132099598D01*
X292261430Y-132099340D01*
X292261428Y-132099340D01*
X291885421Y-132020765D01*
X291885407Y-132020762D01*
X291884183Y-132020507D01*
X291882928Y-132020377D01*
X291882920Y-132020376D01*
X291500838Y-131980880D01*
X291500831Y-131980879D01*
X291499577Y-131980750D01*
X291209661Y-131980750D01*
X291209021Y-131980782D01*
X291209020Y-131980783D01*
X290921369Y-131995610D01*
X290921349Y-131995611D01*
X290920108Y-131995676D01*
X290918873Y-131995868D01*
X290918857Y-131995870D01*
X290539315Y-132054982D01*
X290539307Y-132054983D01*
X290538059Y-132055178D01*
X290536835Y-132055500D01*
X290536827Y-132055502D01*
X290165378Y-132153325D01*
X290165371Y-132153327D01*
X290164153Y-132153648D01*
X290162975Y-132154092D01*
X290162969Y-132154094D01*
X289803535Y-132289595D01*
X289803521Y-132289600D01*
X289802354Y-132290041D01*
X289801247Y-132290593D01*
X289801227Y-132290603D01*
X289457618Y-132462351D01*
X289456496Y-132462912D01*
X289455441Y-132463582D01*
X289455434Y-132463587D01*
X289131316Y-132669746D01*
X289131297Y-132669759D01*
X289130246Y-132670428D01*
X289129261Y-132671207D01*
X289129252Y-132671214D01*
X288828051Y-132909607D01*
X288828039Y-132909617D01*
X288827063Y-132910390D01*
X288826170Y-132911259D01*
X288826160Y-132911269D01*
X288551065Y-133179369D01*
X288551055Y-133179379D01*
X288550159Y-133180253D01*
X288549350Y-133181221D01*
X288549346Y-133181227D01*
X288303283Y-133476183D01*
X288303270Y-133476199D01*
X288302471Y-133477158D01*
X288301773Y-133478194D01*
X288301762Y-133478210D01*
X288087335Y-133796897D01*
X288087330Y-133796904D01*
X288086623Y-133797956D01*
X288086027Y-133799075D01*
X288086023Y-133799082D01*
X287905502Y-134138124D01*
X287904904Y-134139248D01*
X287904433Y-134140404D01*
X287904425Y-134140423D01*
X287759718Y-134496241D01*
X287759712Y-134496255D01*
X287759241Y-134497416D01*
X287758886Y-134498632D01*
X287758885Y-134498638D01*
X287651527Y-134867454D01*
X287651523Y-134867470D01*
X287651176Y-134868663D01*
X287650954Y-134869880D01*
X287650950Y-134869898D01*
X287582081Y-135247813D01*
X287582078Y-135247831D01*
X287581856Y-135249053D01*
X287581760Y-135250289D01*
X287581758Y-135250307D01*
X287552113Y-135633294D01*
X287552112Y-135633304D01*
X287552016Y-135634554D01*
X159042422Y-135634554D01*
X159041372Y-135630294D01*
X159057522Y-135599523D01*
X159090015Y-135587200D01*
X172098816Y-135587200D01*
X172098915Y-135587241D01*
X172099298Y-135587083D01*
X172099415Y-135586799D01*
X172099456Y-135586700D01*
X177149374Y-135586700D01*
X177149415Y-135586799D01*
X177149532Y-135587083D01*
X177149915Y-135587241D01*
X177150014Y-135587200D01*
X191148816Y-135587200D01*
X191148915Y-135587241D01*
X191149298Y-135587083D01*
X191149415Y-135586799D01*
X191149456Y-135586700D01*
X196199374Y-135586700D01*
X196199415Y-135586799D01*
X196199532Y-135587083D01*
X196199915Y-135587241D01*
X196200014Y-135587200D01*
X210198816Y-135587200D01*
X210198915Y-135587241D01*
X210199298Y-135587083D01*
X210199415Y-135586799D01*
X210199456Y-135586700D01*
X215249374Y-135586700D01*
X215249415Y-135586799D01*
X215249532Y-135587083D01*
X215249915Y-135587241D01*
X215250014Y-135587200D01*
X229248816Y-135587200D01*
X229248915Y-135587241D01*
X229249298Y-135587083D01*
X229249415Y-135586799D01*
X229249456Y-135586700D01*
X234299374Y-135586700D01*
X234299415Y-135586799D01*
X234299532Y-135587083D01*
X234299915Y-135587241D01*
X234300014Y-135587200D01*
X248298816Y-135587200D01*
X248298915Y-135587241D01*
X248299298Y-135587083D01*
X248299415Y-135586799D01*
X248299456Y-135586700D01*
X253349374Y-135586700D01*
X253349415Y-135586799D01*
X253349532Y-135587083D01*
X253349915Y-135587241D01*
X253350014Y-135587200D01*
X267348816Y-135587200D01*
X267348915Y-135587241D01*
X267349298Y-135587083D01*
X267349415Y-135586799D01*
X267349456Y-135586700D01*
X272399374Y-135586700D01*
X272399415Y-135586799D01*
X272399532Y-135587083D01*
X272399915Y-135587241D01*
X272400014Y-135587200D01*
X286398816Y-135587200D01*
X286398915Y-135587241D01*
X286399298Y-135587083D01*
X286399415Y-135586799D01*
X286399456Y-135586700D01*
X286399415Y-135586601D01*
X286399415Y-121587499D01*
X286399456Y-121587400D01*
X286399298Y-121587017D01*
X286399014Y-121586900D01*
X286398915Y-121586859D01*
X286398816Y-121586900D01*
X272400014Y-121586900D01*
X272399915Y-121586859D01*
X272399816Y-121586900D01*
X272399532Y-121587017D01*
X272399374Y-121587400D01*
X272399415Y-121587499D01*
X272399415Y-135586601D01*
X272399374Y-135586700D01*
X267349456Y-135586700D01*
X267349415Y-135586601D01*
X267349415Y-121587499D01*
X267349456Y-121587400D01*
X267349298Y-121587017D01*
X267349014Y-121586900D01*
X267348915Y-121586859D01*
X267348816Y-121586900D01*
X253350014Y-121586900D01*
X253349915Y-121586859D01*
X253349816Y-121586900D01*
X253349532Y-121587017D01*
X253349374Y-121587400D01*
X253349415Y-121587499D01*
X253349415Y-135586601D01*
X253349374Y-135586700D01*
X248299456Y-135586700D01*
X248299415Y-135586601D01*
X248299415Y-121587499D01*
X248299456Y-121587400D01*
X248299298Y-121587017D01*
X248299014Y-121586900D01*
X248298915Y-121586859D01*
X248298816Y-121586900D01*
X234300014Y-121586900D01*
X234299915Y-121586859D01*
X234299816Y-121586900D01*
X234299532Y-121587017D01*
X234299374Y-121587400D01*
X234299415Y-121587499D01*
X234299415Y-135586601D01*
X234299374Y-135586700D01*
X229249456Y-135586700D01*
X229249415Y-135586601D01*
X229249415Y-121587499D01*
X229249456Y-121587400D01*
X229249298Y-121587017D01*
X229249014Y-121586900D01*
X229248915Y-121586859D01*
X229248816Y-121586900D01*
X215250014Y-121586900D01*
X215249915Y-121586859D01*
X215249816Y-121586900D01*
X215249532Y-121587017D01*
X215249374Y-121587400D01*
X215249415Y-121587499D01*
X215249415Y-135586601D01*
X215249374Y-135586700D01*
X210199456Y-135586700D01*
X210199415Y-135586601D01*
X210199415Y-121587499D01*
X210199456Y-121587400D01*
X210199298Y-121587017D01*
X210199014Y-121586900D01*
X210198915Y-121586859D01*
X210198816Y-121586900D01*
X196200014Y-121586900D01*
X196199915Y-121586859D01*
X196199816Y-121586900D01*
X196199532Y-121587017D01*
X196199374Y-121587400D01*
X196199415Y-121587499D01*
X196199415Y-135586601D01*
X196199374Y-135586700D01*
X191149456Y-135586700D01*
X191149415Y-135586601D01*
X191149415Y-121587499D01*
X191149456Y-121587400D01*
X191149298Y-121587017D01*
X191149014Y-121586900D01*
X191148915Y-121586859D01*
X191148816Y-121586900D01*
X177150014Y-121586900D01*
X177149915Y-121586859D01*
X177149816Y-121586900D01*
X177149532Y-121587017D01*
X177149374Y-121587400D01*
X177149415Y-121587499D01*
X177149415Y-135586601D01*
X177149374Y-135586700D01*
X172099456Y-135586700D01*
X172099415Y-135586601D01*
X172099415Y-121587499D01*
X172099456Y-121587400D01*
X172099298Y-121587017D01*
X172099014Y-121586900D01*
X172098915Y-121586859D01*
X172098816Y-121586900D01*
X158100014Y-121586900D01*
X158099915Y-121586859D01*
X158099816Y-121586900D01*
X158099532Y-121587017D01*
X158099374Y-121587400D01*
X158099415Y-121587499D01*
X158099415Y-121601213D01*
X158099415Y-134594214D01*
X158087353Y-134626411D01*
X158057104Y-134642755D01*
X158023563Y-134635201D01*
X157732352Y-134444415D01*
X157731301Y-134443863D01*
X157731297Y-134443861D01*
X157369303Y-134253872D01*
X157369304Y-134253872D01*
X157368259Y-134253324D01*
X156987424Y-134098266D01*
X156986298Y-134097930D01*
X156986281Y-134097924D01*
X156594532Y-133981024D01*
X156594516Y-133981020D01*
X156593400Y-133980687D01*
X156592252Y-133980462D01*
X156592239Y-133980459D01*
X156191036Y-133901914D01*
X156191026Y-133901912D01*
X156189869Y-133901686D01*
X156188685Y-133901571D01*
X156188684Y-133901571D01*
X155781786Y-133862115D01*
X155781777Y-133862114D01*
X155780596Y-133862000D01*
X155472270Y-133862000D01*
X155471705Y-133862027D01*
X155471676Y-133862028D01*
X155165461Y-133876840D01*
X155165455Y-133876840D01*
X155164288Y-133876897D01*
X155163141Y-133877064D01*
X155163125Y-133877066D01*
X154758577Y-133936139D01*
X154758562Y-133936141D01*
X154757411Y-133936310D01*
X154756266Y-133936592D01*
X154756262Y-133936593D01*
X154359331Y-134034427D01*
X154359309Y-134034433D01*
X154358167Y-134034715D01*
X154357046Y-134035109D01*
X154357034Y-134035113D01*
X153971402Y-134170798D01*
X153971384Y-134170805D01*
X153970285Y-134171192D01*
X153969221Y-134171686D01*
X153969217Y-134171688D01*
X153598451Y-134343973D01*
X153598440Y-134343978D01*
X153597385Y-134344469D01*
X153596384Y-134345057D01*
X153596372Y-134345064D01*
X153243963Y-134552330D01*
X153243945Y-134552341D01*
X153242950Y-134552927D01*
X153242002Y-134553615D01*
X153241994Y-134553621D01*
X153127216Y-134637012D01*
X153093293Y-134646102D01*
X153062001Y-134630157D01*
X153049415Y-134597370D01*
X153049415Y-121601213D01*
X153049415Y-121587499D01*
X153049456Y-121587400D01*
X153049298Y-121587017D01*
X153049014Y-121586900D01*
X153048915Y-121586859D01*
X153048816Y-121586900D01*
X139050014Y-121586900D01*
X139049915Y-121586859D01*
X139049816Y-121586900D01*
X139049532Y-121587017D01*
X139049374Y-121587400D01*
X139049415Y-121587499D01*
X139049415Y-135586601D01*
X139049374Y-135586700D01*
X133999456Y-135586700D01*
X133999415Y-135586601D01*
X133999415Y-121587499D01*
X133999456Y-121587400D01*
X133999298Y-121587017D01*
X133999014Y-121586900D01*
X133998915Y-121586859D01*
X133998816Y-121586900D01*
X119999714Y-121586900D01*
X119999615Y-121586859D01*
X119999516Y-121586900D01*
X119999232Y-121587017D01*
X119999074Y-121587400D01*
X119999115Y-121587499D01*
X119999115Y-135586601D01*
X119999074Y-135586700D01*
X114949456Y-135586700D01*
X114949415Y-135586601D01*
X114949415Y-121587499D01*
X114949456Y-121587400D01*
X114949298Y-121587017D01*
X114949014Y-121586900D01*
X114948915Y-121586859D01*
X114948816Y-121586900D01*
X100949714Y-121586900D01*
X100949615Y-121586859D01*
X100949516Y-121586900D01*
X100949232Y-121587017D01*
X100949074Y-121587400D01*
X100949115Y-121587499D01*
X100949115Y-135586601D01*
X100949074Y-135586700D01*
X95899456Y-135586700D01*
X95899415Y-135586601D01*
X95899415Y-121587499D01*
X95899456Y-121587400D01*
X95899298Y-121587017D01*
X95899014Y-121586900D01*
X95898915Y-121586859D01*
X95898816Y-121586900D01*
X81899714Y-121586900D01*
X81899615Y-121586859D01*
X81899516Y-121586900D01*
X81899232Y-121587017D01*
X81899074Y-121587400D01*
X81899115Y-121587499D01*
X81899115Y-135586601D01*
X81899074Y-135586700D01*
X76849456Y-135586700D01*
X76849415Y-135586601D01*
X76849415Y-121587499D01*
X76849456Y-121587400D01*
X76849298Y-121587017D01*
X76849014Y-121586900D01*
X76848915Y-121586859D01*
X76848816Y-121586900D01*
X62849714Y-121586900D01*
X62849615Y-121586859D01*
X62849516Y-121586900D01*
X62849232Y-121587017D01*
X62849074Y-121587400D01*
X62849115Y-121587499D01*
X62849115Y-135586601D01*
X62849074Y-135586700D01*
X53037156Y-135586700D01*
X53037115Y-135586601D01*
X53037115Y-121587499D01*
X53037156Y-121587400D01*
X53036998Y-121587017D01*
X53036714Y-121586900D01*
X53036615Y-121586859D01*
X53036516Y-121586900D01*
X39037174Y-121586900D01*
X39037075Y-121586859D01*
X39036976Y-121586900D01*
X39036692Y-121587017D01*
X39036534Y-121587400D01*
X39036575Y-121587499D01*
X39036575Y-121601213D01*
X39036575Y-135077375D01*
X39031683Y-135098716D01*
X39017986Y-135115795D01*
X38952337Y-135167755D01*
X38796801Y-135290857D01*
X38796789Y-135290867D01*
X38795813Y-135291640D01*
X38794920Y-135292509D01*
X38794910Y-135292519D01*
X38519815Y-135560619D01*
X38519805Y-135560629D01*
X38518909Y-135561503D01*
X38518100Y-135562471D01*
X38518096Y-135562477D01*
X38272033Y-135857433D01*
X38272020Y-135857449D01*
X38271221Y-135858408D01*
X38270523Y-135859444D01*
X38270512Y-135859460D01*
X38056085Y-136178147D01*
X38056080Y-136178154D01*
X38055373Y-136179206D01*
X38054777Y-136180325D01*
X38054773Y-136180332D01*
X37934745Y-136405761D01*
X37873654Y-136520498D01*
X37873183Y-136521654D01*
X37873175Y-136521673D01*
X37728468Y-136877491D01*
X37728462Y-136877505D01*
X37727991Y-136878666D01*
X37727636Y-136879882D01*
X37727635Y-136879888D01*
X37620277Y-137248704D01*
X37620273Y-137248720D01*
X37619926Y-137249913D01*
X37619704Y-137251130D01*
X37619700Y-137251148D01*
X37550831Y-137629063D01*
X37550828Y-137629081D01*
X37550606Y-137630303D01*
X37550510Y-137631539D01*
X37550508Y-137631557D01*
X37520863Y-138014544D01*
X37520862Y-138014554D01*
X37520766Y-138015804D01*
X37520798Y-138017056D01*
X37520798Y-138017066D01*
X37530689Y-138401076D01*
X37530690Y-138401088D01*
X37530722Y-138402331D01*
X37530884Y-138403582D01*
X37566152Y-138675995D01*
X37580367Y-138785785D01*
X37580654Y-138787004D01*
X37580656Y-138787011D01*
X37668888Y-139160881D01*
X37668892Y-139160896D01*
X37669177Y-139162102D01*
X37669583Y-139163270D01*
X37669588Y-139163286D01*
X37780367Y-139481750D01*
X37796210Y-139527294D01*
X37796742Y-139528430D01*
X37796745Y-139528438D01*
X37840816Y-139622597D01*
X37960118Y-139877488D01*
X37960760Y-139878558D01*
X37960768Y-139878572D01*
X38061816Y-140046852D01*
X38159165Y-140208973D01*
X38159923Y-140209983D01*
X38278176Y-140367566D01*
X38391241Y-140518234D01*
X38424916Y-140554616D01*
X38437939Y-140589162D01*
X38423154Y-140622992D01*
X38388955Y-140636900D01*
X36655924Y-140636900D01*
X36655825Y-140636859D01*
X36655726Y-140636900D01*
X36655442Y-140637017D01*
X36655284Y-140637400D01*
X36655325Y-140637499D01*
X36655325Y-154636601D01*
X36655284Y-154636700D01*
X31750500Y-154636700D01*
X31750500Y-116536700D01*
X34274024Y-116536700D01*
X34274065Y-116536799D01*
X34274182Y-116537083D01*
X34274565Y-116537241D01*
X34274664Y-116537200D01*
X48274016Y-116537200D01*
X48274115Y-116537241D01*
X48274498Y-116537083D01*
X48274615Y-116536799D01*
X48274656Y-116536700D01*
X53324074Y-116536700D01*
X53324115Y-116536799D01*
X53324232Y-116537083D01*
X53324615Y-116537241D01*
X53324714Y-116537200D01*
X67323816Y-116537200D01*
X67323915Y-116537241D01*
X67324298Y-116537083D01*
X67324415Y-116536799D01*
X67324456Y-116536700D01*
X72374074Y-116536700D01*
X72374115Y-116536799D01*
X72374232Y-116537083D01*
X72374615Y-116537241D01*
X72374714Y-116537200D01*
X86373816Y-116537200D01*
X86373915Y-116537241D01*
X86374298Y-116537083D01*
X86374415Y-116536799D01*
X86374456Y-116536700D01*
X91424074Y-116536700D01*
X91424115Y-116536799D01*
X91424232Y-116537083D01*
X91424615Y-116537241D01*
X91424714Y-116537200D01*
X105423816Y-116537200D01*
X105423915Y-116537241D01*
X105424298Y-116537083D01*
X105424415Y-116536799D01*
X105424456Y-116536700D01*
X110474074Y-116536700D01*
X110474115Y-116536799D01*
X110474232Y-116537083D01*
X110474615Y-116537241D01*
X110474714Y-116537200D01*
X124473816Y-116537200D01*
X124473915Y-116537241D01*
X124474298Y-116537083D01*
X124474415Y-116536799D01*
X124474456Y-116536700D01*
X129522674Y-116536700D01*
X129522715Y-116536799D01*
X129522832Y-116537083D01*
X129523215Y-116537241D01*
X129523314Y-116537200D01*
X143523816Y-116537200D01*
X143523915Y-116537241D01*
X143524298Y-116537083D01*
X143524415Y-116536799D01*
X143524456Y-116536700D01*
X148572374Y-116536700D01*
X148572415Y-116536799D01*
X148572532Y-116537083D01*
X148572915Y-116537241D01*
X148573014Y-116537200D01*
X162573816Y-116537200D01*
X162573915Y-116537241D01*
X162574298Y-116537083D01*
X162574415Y-116536799D01*
X162574456Y-116536700D01*
X167624374Y-116536700D01*
X167624415Y-116536799D01*
X167624532Y-116537083D01*
X167624915Y-116537241D01*
X167625014Y-116537200D01*
X181623816Y-116537200D01*
X181623915Y-116537241D01*
X181624298Y-116537083D01*
X181624415Y-116536799D01*
X181624456Y-116536700D01*
X186674374Y-116536700D01*
X186674415Y-116536799D01*
X186674532Y-116537083D01*
X186674915Y-116537241D01*
X186675014Y-116537200D01*
X200673816Y-116537200D01*
X200673915Y-116537241D01*
X200674298Y-116537083D01*
X200674415Y-116536799D01*
X200674456Y-116536700D01*
X205724374Y-116536700D01*
X205724415Y-116536799D01*
X205724532Y-116537083D01*
X205724915Y-116537241D01*
X205725014Y-116537200D01*
X219723816Y-116537200D01*
X219723915Y-116537241D01*
X219724298Y-116537083D01*
X219724415Y-116536799D01*
X219724456Y-116536700D01*
X224774374Y-116536700D01*
X224774415Y-116536799D01*
X224774532Y-116537083D01*
X224774915Y-116537241D01*
X224775014Y-116537200D01*
X238773816Y-116537200D01*
X238773915Y-116537241D01*
X238774298Y-116537083D01*
X238774415Y-116536799D01*
X238774456Y-116536700D01*
X243824374Y-116536700D01*
X243824415Y-116536799D01*
X243824532Y-116537083D01*
X243824915Y-116537241D01*
X243825014Y-116537200D01*
X257823816Y-116537200D01*
X257823915Y-116537241D01*
X257824298Y-116537083D01*
X257824415Y-116536799D01*
X257824456Y-116536700D01*
X262874374Y-116536700D01*
X262874415Y-116536799D01*
X262874532Y-116537083D01*
X262874915Y-116537241D01*
X262875014Y-116537200D01*
X276873816Y-116537200D01*
X276873915Y-116537241D01*
X276874298Y-116537083D01*
X276874415Y-116536799D01*
X276874456Y-116536700D01*
X276874415Y-116536601D01*
X276874415Y-110036800D01*
X282348374Y-110036800D01*
X282348415Y-110036899D01*
X282348532Y-110037183D01*
X282348915Y-110037341D01*
X282349014Y-110037300D01*
X283125415Y-110037300D01*
X283160063Y-110051652D01*
X283174415Y-110086300D01*
X283174415Y-116306601D01*
X283174374Y-116306700D01*
X283174415Y-116306799D01*
X283174532Y-116307083D01*
X283174915Y-116307241D01*
X283175014Y-116307200D01*
X284848415Y-116307200D01*
X284883063Y-116321552D01*
X284897415Y-116356200D01*
X284897415Y-117506801D01*
X284897374Y-117506900D01*
X284897415Y-117506999D01*
X284897532Y-117507283D01*
X284897915Y-117507441D01*
X284898014Y-117507400D01*
X288198816Y-117507400D01*
X288198915Y-117507441D01*
X288199298Y-117507283D01*
X288199415Y-117506999D01*
X288199456Y-117506900D01*
X288199415Y-117506801D01*
X288199415Y-116356200D01*
X288213767Y-116321552D01*
X288248415Y-116307200D01*
X289923816Y-116307200D01*
X289923915Y-116307241D01*
X289924298Y-116307083D01*
X289924415Y-116306799D01*
X289924456Y-116306700D01*
X289924415Y-116306601D01*
X289924415Y-111887200D01*
X289938767Y-111852552D01*
X289973415Y-111838200D01*
X291400415Y-111838200D01*
X291435063Y-111852552D01*
X291449415Y-111887200D01*
X291449415Y-116536601D01*
X291449374Y-116536700D01*
X291449415Y-116536799D01*
X291449532Y-116537083D01*
X291449915Y-116537241D01*
X291450014Y-116537200D01*
X305448816Y-116537200D01*
X305448915Y-116537241D01*
X305449298Y-116537083D01*
X305449415Y-116536799D01*
X305449456Y-116536700D01*
X305449415Y-116536601D01*
X305449415Y-111887200D01*
X305463767Y-111852552D01*
X305498415Y-111838200D01*
X306925415Y-111838200D01*
X306960063Y-111852552D01*
X306974415Y-111887200D01*
X306974415Y-116306601D01*
X306974374Y-116306700D01*
X306974415Y-116306799D01*
X306974532Y-116307083D01*
X306974915Y-116307241D01*
X306975014Y-116307200D01*
X308650415Y-116307200D01*
X308685063Y-116321552D01*
X308699415Y-116356200D01*
X308699415Y-117506801D01*
X308699374Y-117506900D01*
X308699415Y-117506999D01*
X308699532Y-117507283D01*
X308699915Y-117507441D01*
X308700014Y-117507400D01*
X311998816Y-117507400D01*
X311998915Y-117507441D01*
X311999298Y-117507283D01*
X311999415Y-117506999D01*
X311999456Y-117506900D01*
X311999415Y-117506801D01*
X311999415Y-116536700D01*
X324786374Y-116536700D01*
X324786415Y-116536799D01*
X324786532Y-116537083D01*
X324786915Y-116537241D01*
X324787014Y-116537200D01*
X338786816Y-116537200D01*
X338786915Y-116537241D01*
X338787298Y-116537083D01*
X338787415Y-116536799D01*
X338787456Y-116536700D01*
X343836374Y-116536700D01*
X343836415Y-116536799D01*
X343836532Y-116537083D01*
X343836915Y-116537241D01*
X343837014Y-116537200D01*
X357836816Y-116537200D01*
X357836915Y-116537241D01*
X357837298Y-116537083D01*
X357837415Y-116536799D01*
X357837456Y-116536700D01*
X362886374Y-116536700D01*
X362886415Y-116536799D01*
X362886532Y-116537083D01*
X362886915Y-116537241D01*
X362887014Y-116537200D01*
X376886816Y-116537200D01*
X376886915Y-116537241D01*
X376887298Y-116537083D01*
X376887415Y-116536799D01*
X376887456Y-116536700D01*
X376887415Y-116536601D01*
X376887415Y-102537499D01*
X376887456Y-102537400D01*
X376887298Y-102537017D01*
X376887014Y-102536900D01*
X376886915Y-102536859D01*
X376886816Y-102536900D01*
X362887014Y-102536900D01*
X362886915Y-102536859D01*
X362886816Y-102536900D01*
X362886532Y-102537017D01*
X362886374Y-102537400D01*
X362886415Y-102537499D01*
X362886415Y-116536601D01*
X362886374Y-116536700D01*
X357837456Y-116536700D01*
X357837415Y-116536601D01*
X357837415Y-102537499D01*
X357837456Y-102537400D01*
X357837298Y-102537017D01*
X357837014Y-102536900D01*
X357836915Y-102536859D01*
X357836816Y-102536900D01*
X343837014Y-102536900D01*
X343836915Y-102536859D01*
X343836816Y-102536900D01*
X343836532Y-102537017D01*
X343836374Y-102537400D01*
X343836415Y-102537499D01*
X343836415Y-116536601D01*
X343836374Y-116536700D01*
X338787456Y-116536700D01*
X338787415Y-116536601D01*
X338787415Y-102537499D01*
X338787456Y-102537400D01*
X338787298Y-102537017D01*
X338787014Y-102536900D01*
X338786915Y-102536859D01*
X338786816Y-102536900D01*
X324787014Y-102536900D01*
X324786915Y-102536859D01*
X324786816Y-102536900D01*
X324786532Y-102537017D01*
X324786374Y-102537400D01*
X324786415Y-102537499D01*
X324786415Y-116536601D01*
X324786374Y-116536700D01*
X311999415Y-116536700D01*
X311999415Y-116356200D01*
X312013767Y-116321552D01*
X312048415Y-116307200D01*
X313723816Y-116307200D01*
X313723915Y-116307241D01*
X313724298Y-116307083D01*
X313724415Y-116306799D01*
X313724456Y-116306700D01*
X313724415Y-116306601D01*
X313724415Y-110086300D01*
X313738767Y-110051652D01*
X313773415Y-110037300D01*
X314549816Y-110037300D01*
X314549915Y-110037341D01*
X314550298Y-110037183D01*
X314550415Y-110036899D01*
X314550456Y-110036800D01*
X314550415Y-110036701D01*
X314550415Y-107237999D01*
X314550456Y-107237900D01*
X314550298Y-107237517D01*
X314550014Y-107237400D01*
X314549915Y-107237359D01*
X314549816Y-107237400D01*
X313773415Y-107237400D01*
X313738767Y-107223048D01*
X313724415Y-107188400D01*
X313724415Y-104021613D01*
X313724415Y-104007899D01*
X313724456Y-104007800D01*
X313724298Y-104007417D01*
X313724014Y-104007300D01*
X313723915Y-104007259D01*
X313723816Y-104007300D01*
X306975014Y-104007300D01*
X306974915Y-104007259D01*
X306974816Y-104007300D01*
X306974532Y-104007417D01*
X306974374Y-104007800D01*
X306974415Y-104007899D01*
X306974415Y-104021613D01*
X306974415Y-107188400D01*
X306960063Y-107223048D01*
X306925415Y-107237400D01*
X305498415Y-107237400D01*
X305463767Y-107223048D01*
X305449415Y-107188400D01*
X305449415Y-102551213D01*
X305449415Y-102537499D01*
X305449456Y-102537400D01*
X305449298Y-102537017D01*
X305449014Y-102536900D01*
X305448915Y-102536859D01*
X305448816Y-102536900D01*
X291450014Y-102536900D01*
X291449915Y-102536859D01*
X291449816Y-102536900D01*
X291449532Y-102537017D01*
X291449374Y-102537400D01*
X291449415Y-102537499D01*
X291449415Y-102551213D01*
X291449415Y-107188400D01*
X291435063Y-107223048D01*
X291400415Y-107237400D01*
X289973415Y-107237400D01*
X289938767Y-107223048D01*
X289924415Y-107188400D01*
X289924415Y-104021613D01*
X289924415Y-104007899D01*
X289924456Y-104007800D01*
X289924298Y-104007417D01*
X289924014Y-104007300D01*
X289923915Y-104007259D01*
X289923816Y-104007300D01*
X283175014Y-104007300D01*
X283174915Y-104007259D01*
X283174816Y-104007300D01*
X283174532Y-104007417D01*
X283174374Y-104007800D01*
X283174415Y-104007899D01*
X283174415Y-104021613D01*
X283174415Y-107188400D01*
X283160063Y-107223048D01*
X283125415Y-107237400D01*
X282349014Y-107237400D01*
X282348915Y-107237359D01*
X282348816Y-107237400D01*
X282348532Y-107237517D01*
X282348374Y-107237900D01*
X282348415Y-107237999D01*
X282348415Y-110036701D01*
X282348374Y-110036800D01*
X276874415Y-110036800D01*
X276874415Y-102537499D01*
X276874456Y-102537400D01*
X276874298Y-102537017D01*
X276874014Y-102536900D01*
X276873915Y-102536859D01*
X276873816Y-102536900D01*
X262875014Y-102536900D01*
X262874915Y-102536859D01*
X262874816Y-102536900D01*
X262874532Y-102537017D01*
X262874374Y-102537400D01*
X262874415Y-102537499D01*
X262874415Y-116536601D01*
X262874374Y-116536700D01*
X257824456Y-116536700D01*
X257824415Y-116536601D01*
X257824415Y-102537499D01*
X257824456Y-102537400D01*
X257824298Y-102537017D01*
X257824014Y-102536900D01*
X257823915Y-102536859D01*
X257823816Y-102536900D01*
X243825014Y-102536900D01*
X243824915Y-102536859D01*
X243824816Y-102536900D01*
X243824532Y-102537017D01*
X243824374Y-102537400D01*
X243824415Y-102537499D01*
X243824415Y-116536601D01*
X243824374Y-116536700D01*
X238774456Y-116536700D01*
X238774415Y-116536601D01*
X238774415Y-102537499D01*
X238774456Y-102537400D01*
X238774298Y-102537017D01*
X238774014Y-102536900D01*
X238773915Y-102536859D01*
X238773816Y-102536900D01*
X224775014Y-102536900D01*
X224774915Y-102536859D01*
X224774816Y-102536900D01*
X224774532Y-102537017D01*
X224774374Y-102537400D01*
X224774415Y-102537499D01*
X224774415Y-116536601D01*
X224774374Y-116536700D01*
X219724456Y-116536700D01*
X219724415Y-116536601D01*
X219724415Y-102537499D01*
X219724456Y-102537400D01*
X219724298Y-102537017D01*
X219724014Y-102536900D01*
X219723915Y-102536859D01*
X219723816Y-102536900D01*
X205725014Y-102536900D01*
X205724915Y-102536859D01*
X205724816Y-102536900D01*
X205724532Y-102537017D01*
X205724374Y-102537400D01*
X205724415Y-102537499D01*
X205724415Y-116536601D01*
X205724374Y-116536700D01*
X200674456Y-116536700D01*
X200674415Y-116536601D01*
X200674415Y-102537499D01*
X200674456Y-102537400D01*
X200674298Y-102537017D01*
X200674014Y-102536900D01*
X200673915Y-102536859D01*
X200673816Y-102536900D01*
X186675014Y-102536900D01*
X186674915Y-102536859D01*
X186674816Y-102536900D01*
X186674532Y-102537017D01*
X186674374Y-102537400D01*
X186674415Y-102537499D01*
X186674415Y-116536601D01*
X186674374Y-116536700D01*
X181624456Y-116536700D01*
X181624415Y-116536601D01*
X181624415Y-102537499D01*
X181624456Y-102537400D01*
X181624298Y-102537017D01*
X181624014Y-102536900D01*
X181623915Y-102536859D01*
X181623816Y-102536900D01*
X167625014Y-102536900D01*
X167624915Y-102536859D01*
X167624816Y-102536900D01*
X167624532Y-102537017D01*
X167624374Y-102537400D01*
X167624415Y-102537499D01*
X167624415Y-116536601D01*
X167624374Y-116536700D01*
X162574456Y-116536700D01*
X162574415Y-116536601D01*
X162574415Y-102537499D01*
X162574456Y-102537400D01*
X162574298Y-102537017D01*
X162574014Y-102536900D01*
X162573915Y-102536859D01*
X162573816Y-102536900D01*
X148573014Y-102536900D01*
X148572915Y-102536859D01*
X148572816Y-102536900D01*
X148572532Y-102537017D01*
X148572374Y-102537400D01*
X148572415Y-102537499D01*
X148572415Y-116536601D01*
X148572374Y-116536700D01*
X143524456Y-116536700D01*
X143524415Y-116536601D01*
X143524415Y-102537499D01*
X143524456Y-102537400D01*
X143524298Y-102537017D01*
X143524014Y-102536900D01*
X143523915Y-102536859D01*
X143523816Y-102536900D01*
X129523314Y-102536900D01*
X129523215Y-102536859D01*
X129523116Y-102536900D01*
X129522832Y-102537017D01*
X129522674Y-102537400D01*
X129522715Y-102537499D01*
X129522715Y-116536601D01*
X129522674Y-116536700D01*
X124474456Y-116536700D01*
X124474415Y-116536601D01*
X124474415Y-102537499D01*
X124474456Y-102537400D01*
X124474298Y-102537017D01*
X124474014Y-102536900D01*
X124473915Y-102536859D01*
X124473816Y-102536900D01*
X110474714Y-102536900D01*
X110474615Y-102536859D01*
X110474516Y-102536900D01*
X110474232Y-102537017D01*
X110474074Y-102537400D01*
X110474115Y-102537499D01*
X110474115Y-116536601D01*
X110474074Y-116536700D01*
X105424456Y-116536700D01*
X105424415Y-116536601D01*
X105424415Y-102537499D01*
X105424456Y-102537400D01*
X105424298Y-102537017D01*
X105424014Y-102536900D01*
X105423915Y-102536859D01*
X105423816Y-102536900D01*
X91424714Y-102536900D01*
X91424615Y-102536859D01*
X91424516Y-102536900D01*
X91424232Y-102537017D01*
X91424074Y-102537400D01*
X91424115Y-102537499D01*
X91424115Y-116536601D01*
X91424074Y-116536700D01*
X86374456Y-116536700D01*
X86374415Y-116536601D01*
X86374415Y-102537499D01*
X86374456Y-102537400D01*
X86374298Y-102537017D01*
X86374014Y-102536900D01*
X86373915Y-102536859D01*
X86373816Y-102536900D01*
X72374714Y-102536900D01*
X72374615Y-102536859D01*
X72374516Y-102536900D01*
X72374232Y-102537017D01*
X72374074Y-102537400D01*
X72374115Y-102537499D01*
X72374115Y-116536601D01*
X72374074Y-116536700D01*
X67324456Y-116536700D01*
X67324415Y-116536601D01*
X67324415Y-102537499D01*
X67324456Y-102537400D01*
X67324298Y-102537017D01*
X67324014Y-102536900D01*
X67323915Y-102536859D01*
X67323816Y-102536900D01*
X53324714Y-102536900D01*
X53324615Y-102536859D01*
X53324516Y-102536900D01*
X53324232Y-102537017D01*
X53324074Y-102537400D01*
X53324115Y-102537499D01*
X53324115Y-116536601D01*
X53324074Y-116536700D01*
X48274656Y-116536700D01*
X48274615Y-116536601D01*
X48274615Y-102537499D01*
X48274656Y-102537400D01*
X48274498Y-102537017D01*
X48274214Y-102536900D01*
X48274115Y-102536859D01*
X48274016Y-102536900D01*
X34274664Y-102536900D01*
X34274565Y-102536859D01*
X34274466Y-102536900D01*
X34274182Y-102537017D01*
X34274024Y-102537400D01*
X34274065Y-102537499D01*
X34274065Y-116536601D01*
X34274024Y-116536700D01*
X31750500Y-116536700D01*
X31750500Y-87961500D01*
X34274024Y-87961500D01*
X34274065Y-87961599D01*
X34274182Y-87961883D01*
X34274565Y-87962041D01*
X34274664Y-87962000D01*
X48274016Y-87962000D01*
X48274115Y-87962041D01*
X48274498Y-87961883D01*
X48274615Y-87961599D01*
X48274656Y-87961500D01*
X72374074Y-87961500D01*
X72374115Y-87961599D01*
X72374232Y-87961883D01*
X72374615Y-87962041D01*
X72374714Y-87962000D01*
X86373816Y-87962000D01*
X86373915Y-87962041D01*
X86374298Y-87961883D01*
X86374415Y-87961599D01*
X86374456Y-87961500D01*
X86374415Y-87961401D01*
X86374415Y-81463003D01*
X86388031Y-81429106D01*
X86421313Y-81414048D01*
X86455762Y-81426198D01*
X86568359Y-81525157D01*
X86568374Y-81525168D01*
X86569314Y-81525995D01*
X86570337Y-81526722D01*
X86570338Y-81526723D01*
X86883416Y-81749297D01*
X86883421Y-81749300D01*
X86884449Y-81750031D01*
X87220949Y-81940477D01*
X87575247Y-82095315D01*
X87943588Y-82212902D01*
X88322067Y-82291993D01*
X88706673Y-82331750D01*
X88995948Y-82331750D01*
X88996589Y-82331750D01*
X89286142Y-82316824D01*
X89668191Y-82257322D01*
X90042097Y-82158852D01*
X90403896Y-82022459D01*
X90749754Y-81849588D01*
X91076004Y-81642072D01*
X91302251Y-81463003D01*
X91344705Y-81429402D01*
X91378897Y-81418970D01*
X91411075Y-81434540D01*
X91424115Y-81467824D01*
X91424115Y-87961401D01*
X91424074Y-87961500D01*
X91424115Y-87961599D01*
X91424232Y-87961883D01*
X91424615Y-87962041D01*
X91424714Y-87962000D01*
X105423816Y-87962000D01*
X105423915Y-87962041D01*
X105424298Y-87961883D01*
X105424415Y-87961599D01*
X105424456Y-87961500D01*
X110474074Y-87961500D01*
X110474115Y-87961599D01*
X110474232Y-87961883D01*
X110474615Y-87962041D01*
X110474714Y-87962000D01*
X124473816Y-87962000D01*
X124473915Y-87962041D01*
X124474298Y-87961883D01*
X124474415Y-87961599D01*
X124474456Y-87961500D01*
X129522674Y-87961500D01*
X129522715Y-87961599D01*
X129522832Y-87961883D01*
X129523215Y-87962041D01*
X129523314Y-87962000D01*
X143523816Y-87962000D01*
X143523915Y-87962041D01*
X143524298Y-87961883D01*
X143524415Y-87961599D01*
X143524456Y-87961500D01*
X158099374Y-87961500D01*
X158099415Y-87961599D01*
X158099532Y-87961883D01*
X158099915Y-87962041D01*
X158100014Y-87962000D01*
X172098816Y-87962000D01*
X172098915Y-87962041D01*
X172099298Y-87961883D01*
X172099415Y-87961599D01*
X172099456Y-87961500D01*
X177149374Y-87961500D01*
X177149415Y-87961599D01*
X177149532Y-87961883D01*
X177149915Y-87962041D01*
X177150014Y-87962000D01*
X191148816Y-87962000D01*
X191148915Y-87962041D01*
X191149298Y-87961883D01*
X191149415Y-87961599D01*
X191149456Y-87961500D01*
X196199374Y-87961500D01*
X196199415Y-87961599D01*
X196199532Y-87961883D01*
X196199915Y-87962041D01*
X196200014Y-87962000D01*
X210198816Y-87962000D01*
X210198915Y-87962041D01*
X210199298Y-87961883D01*
X210199415Y-87961599D01*
X210199456Y-87961500D01*
X210199415Y-87961401D01*
X210199415Y-81463003D01*
X210213031Y-81429106D01*
X210246313Y-81414048D01*
X210280762Y-81426198D01*
X210393359Y-81525157D01*
X210393374Y-81525168D01*
X210394314Y-81525995D01*
X210395337Y-81526722D01*
X210395338Y-81526723D01*
X210708416Y-81749297D01*
X210708421Y-81749300D01*
X210709449Y-81750031D01*
X211045949Y-81940477D01*
X211400247Y-82095315D01*
X211768588Y-82212902D01*
X212147067Y-82291993D01*
X212531673Y-82331750D01*
X212820948Y-82331750D01*
X212821589Y-82331750D01*
X213111142Y-82316824D01*
X213493191Y-82257322D01*
X213867097Y-82158852D01*
X214228896Y-82022459D01*
X214574754Y-81849588D01*
X214901004Y-81642072D01*
X215170005Y-81429163D01*
X215204197Y-81418732D01*
X215236375Y-81434302D01*
X215249415Y-81467586D01*
X215249415Y-87961401D01*
X215249374Y-87961500D01*
X215249415Y-87961599D01*
X215249532Y-87961883D01*
X215249915Y-87962041D01*
X215250014Y-87962000D01*
X229248816Y-87962000D01*
X229248915Y-87962041D01*
X229249298Y-87961883D01*
X229249415Y-87961599D01*
X229249456Y-87961500D01*
X243824374Y-87961500D01*
X243824415Y-87961599D01*
X243824532Y-87961883D01*
X243824915Y-87962041D01*
X243825014Y-87962000D01*
X257823816Y-87962000D01*
X257823915Y-87962041D01*
X257824298Y-87961883D01*
X257824415Y-87961599D01*
X257824456Y-87961500D01*
X262874374Y-87961500D01*
X262874415Y-87961599D01*
X262874532Y-87961883D01*
X262874915Y-87962041D01*
X262875014Y-87962000D01*
X276873816Y-87962000D01*
X276873915Y-87962041D01*
X276874298Y-87961883D01*
X276874415Y-87961599D01*
X276874456Y-87961500D01*
X281924374Y-87961500D01*
X281924415Y-87961599D01*
X281924532Y-87961883D01*
X281924915Y-87962041D01*
X281925014Y-87962000D01*
X295923816Y-87962000D01*
X295923915Y-87962041D01*
X295924298Y-87961883D01*
X295924415Y-87961599D01*
X295924456Y-87961500D01*
X300974374Y-87961500D01*
X300974415Y-87961599D01*
X300974532Y-87961883D01*
X300974915Y-87962041D01*
X300975014Y-87962000D01*
X314973816Y-87962000D01*
X314973915Y-87962041D01*
X314974298Y-87961883D01*
X314974415Y-87961599D01*
X314974456Y-87961500D01*
X324786374Y-87961500D01*
X324786415Y-87961599D01*
X324786532Y-87961883D01*
X324786915Y-87962041D01*
X324787014Y-87962000D01*
X338786816Y-87962000D01*
X338786915Y-87962041D01*
X338787298Y-87961883D01*
X338787415Y-87961599D01*
X338787456Y-87961500D01*
X343836374Y-87961500D01*
X343836415Y-87961599D01*
X343836532Y-87961883D01*
X343836915Y-87962041D01*
X343837014Y-87962000D01*
X357836816Y-87962000D01*
X357836915Y-87962041D01*
X357837298Y-87961883D01*
X357837415Y-87961599D01*
X357837456Y-87961500D01*
X357837415Y-87961401D01*
X357837415Y-81463443D01*
X357851031Y-81429546D01*
X357884313Y-81414488D01*
X357918762Y-81426637D01*
X357985802Y-81485556D01*
X358031814Y-81525995D01*
X358032837Y-81526722D01*
X358032838Y-81526723D01*
X358345916Y-81749297D01*
X358345921Y-81749300D01*
X358346949Y-81750031D01*
X358683449Y-81940477D01*
X359037747Y-82095315D01*
X359406088Y-82212902D01*
X359784567Y-82291993D01*
X360169173Y-82331750D01*
X360458448Y-82331750D01*
X360459089Y-82331750D01*
X360748642Y-82316824D01*
X361130691Y-82257322D01*
X361504597Y-82158852D01*
X361866396Y-82022459D01*
X362212254Y-81849588D01*
X362538504Y-81642072D01*
X362807004Y-81429560D01*
X362841197Y-81419128D01*
X362873375Y-81434698D01*
X362886415Y-81467982D01*
X362886415Y-87961401D01*
X362886374Y-87961500D01*
X362886415Y-87961599D01*
X362886532Y-87961883D01*
X362886915Y-87962041D01*
X362887014Y-87962000D01*
X376886816Y-87962000D01*
X376886915Y-87962041D01*
X376887298Y-87961883D01*
X376887415Y-87961599D01*
X376887456Y-87961500D01*
X376887415Y-87961401D01*
X376887415Y-73962599D01*
X376887456Y-73962500D01*
X376887298Y-73962117D01*
X376887014Y-73962000D01*
X376886915Y-73961959D01*
X376886816Y-73962000D01*
X362887014Y-73962000D01*
X362886915Y-73961959D01*
X362886816Y-73962000D01*
X362886532Y-73962117D01*
X362886374Y-73962500D01*
X362886415Y-73962599D01*
X362886415Y-73976313D01*
X362886415Y-75698029D01*
X362872799Y-75731926D01*
X362839517Y-75746984D01*
X362805068Y-75734835D01*
X362694128Y-75637333D01*
X362694129Y-75637333D01*
X362693186Y-75636505D01*
X362596011Y-75567421D01*
X362379083Y-75413202D01*
X362379074Y-75413196D01*
X362378051Y-75412469D01*
X362041551Y-75222023D01*
X361853961Y-75140041D01*
X361688414Y-75067692D01*
X361688407Y-75067689D01*
X361687253Y-75067185D01*
X361686055Y-75066802D01*
X361686051Y-75066801D01*
X361320113Y-74949981D01*
X361320105Y-74949979D01*
X361318912Y-74949598D01*
X361317680Y-74949340D01*
X361317678Y-74949340D01*
X360941671Y-74870765D01*
X360941657Y-74870762D01*
X360940433Y-74870507D01*
X360939178Y-74870377D01*
X360939170Y-74870376D01*
X360557088Y-74830880D01*
X360557081Y-74830879D01*
X360555827Y-74830750D01*
X360265911Y-74830750D01*
X360265271Y-74830782D01*
X360265270Y-74830783D01*
X359977619Y-74845610D01*
X359977599Y-74845611D01*
X359976358Y-74845676D01*
X359975123Y-74845868D01*
X359975107Y-74845870D01*
X359595565Y-74904982D01*
X359595557Y-74904983D01*
X359594309Y-74905178D01*
X359593085Y-74905500D01*
X359593077Y-74905502D01*
X359221628Y-75003325D01*
X359221621Y-75003327D01*
X359220403Y-75003648D01*
X359219225Y-75004092D01*
X359219219Y-75004094D01*
X358859785Y-75139595D01*
X358859771Y-75139600D01*
X358858604Y-75140041D01*
X358857497Y-75140593D01*
X358857477Y-75140603D01*
X358513868Y-75312351D01*
X358512746Y-75312912D01*
X358511691Y-75313582D01*
X358511684Y-75313587D01*
X358187566Y-75519746D01*
X358187547Y-75519759D01*
X358186496Y-75520428D01*
X358185511Y-75521207D01*
X358185502Y-75521214D01*
X357916825Y-75733866D01*
X357882633Y-75744298D01*
X357850455Y-75728728D01*
X357837415Y-75695444D01*
X357837415Y-73976313D01*
X357837415Y-73962599D01*
X357837456Y-73962500D01*
X357837298Y-73962117D01*
X357837014Y-73962000D01*
X357836915Y-73961959D01*
X357836816Y-73962000D01*
X343837014Y-73962000D01*
X343836915Y-73961959D01*
X343836816Y-73962000D01*
X343836532Y-73962117D01*
X343836374Y-73962500D01*
X343836415Y-73962599D01*
X343836415Y-87961401D01*
X343836374Y-87961500D01*
X338787456Y-87961500D01*
X338787415Y-87961401D01*
X338787415Y-73962599D01*
X338787456Y-73962500D01*
X338787298Y-73962117D01*
X338787014Y-73962000D01*
X338786915Y-73961959D01*
X338786816Y-73962000D01*
X324787014Y-73962000D01*
X324786915Y-73961959D01*
X324786816Y-73962000D01*
X324786532Y-73962117D01*
X324786374Y-73962500D01*
X324786415Y-73962599D01*
X324786415Y-87961401D01*
X324786374Y-87961500D01*
X314974456Y-87961500D01*
X314974415Y-87961401D01*
X314974415Y-73962599D01*
X314974456Y-73962500D01*
X314974298Y-73962117D01*
X314974014Y-73962000D01*
X314973915Y-73961959D01*
X314973816Y-73962000D01*
X300975014Y-73962000D01*
X300974915Y-73961959D01*
X300974816Y-73962000D01*
X300974532Y-73962117D01*
X300974374Y-73962500D01*
X300974415Y-73962599D01*
X300974415Y-87961401D01*
X300974374Y-87961500D01*
X295924456Y-87961500D01*
X295924415Y-87961401D01*
X295924415Y-73962599D01*
X295924456Y-73962500D01*
X295924298Y-73962117D01*
X295924014Y-73962000D01*
X295923915Y-73961959D01*
X295923816Y-73962000D01*
X281925014Y-73962000D01*
X281924915Y-73961959D01*
X281924816Y-73962000D01*
X281924532Y-73962117D01*
X281924374Y-73962500D01*
X281924415Y-73962599D01*
X281924415Y-87961401D01*
X281924374Y-87961500D01*
X276874456Y-87961500D01*
X276874415Y-87961401D01*
X276874415Y-73962599D01*
X276874456Y-73962500D01*
X276874298Y-73962117D01*
X276874014Y-73962000D01*
X276873915Y-73961959D01*
X276873816Y-73962000D01*
X262875014Y-73962000D01*
X262874915Y-73961959D01*
X262874816Y-73962000D01*
X262874532Y-73962117D01*
X262874374Y-73962500D01*
X262874415Y-73962599D01*
X262874415Y-87961401D01*
X262874374Y-87961500D01*
X257824456Y-87961500D01*
X257824415Y-87961401D01*
X257824415Y-73962599D01*
X257824456Y-73962500D01*
X257824298Y-73962117D01*
X257824014Y-73962000D01*
X257823915Y-73961959D01*
X257823816Y-73962000D01*
X243825014Y-73962000D01*
X243824915Y-73961959D01*
X243824816Y-73962000D01*
X243824532Y-73962117D01*
X243824374Y-73962500D01*
X243824415Y-73962599D01*
X243824415Y-87961401D01*
X243824374Y-87961500D01*
X229249456Y-87961500D01*
X229249415Y-87961401D01*
X229249415Y-73962599D01*
X229249456Y-73962500D01*
X229249298Y-73962117D01*
X229249014Y-73962000D01*
X229248915Y-73961959D01*
X229248816Y-73962000D01*
X215250014Y-73962000D01*
X215249915Y-73961959D01*
X215249816Y-73962000D01*
X215249532Y-73962117D01*
X215249374Y-73962500D01*
X215249415Y-73962599D01*
X215249415Y-73976313D01*
X215249415Y-75698468D01*
X215235799Y-75732365D01*
X215202517Y-75747423D01*
X215168068Y-75735274D01*
X215056628Y-75637333D01*
X215056629Y-75637333D01*
X215055686Y-75636505D01*
X214958511Y-75567421D01*
X214741583Y-75413202D01*
X214741574Y-75413196D01*
X214740551Y-75412469D01*
X214404051Y-75222023D01*
X214216461Y-75140041D01*
X214050914Y-75067692D01*
X214050907Y-75067689D01*
X214049753Y-75067185D01*
X214048555Y-75066802D01*
X214048551Y-75066801D01*
X213682613Y-74949981D01*
X213682605Y-74949979D01*
X213681412Y-74949598D01*
X213680180Y-74949340D01*
X213680178Y-74949340D01*
X213304171Y-74870765D01*
X213304157Y-74870762D01*
X213302933Y-74870507D01*
X213301678Y-74870377D01*
X213301670Y-74870376D01*
X212919588Y-74830880D01*
X212919581Y-74830879D01*
X212918327Y-74830750D01*
X212628411Y-74830750D01*
X212627771Y-74830782D01*
X212627770Y-74830783D01*
X212340119Y-74845610D01*
X212340099Y-74845611D01*
X212338858Y-74845676D01*
X212337623Y-74845868D01*
X212337607Y-74845870D01*
X211958065Y-74904982D01*
X211958057Y-74904983D01*
X211956809Y-74905178D01*
X211955585Y-74905500D01*
X211955577Y-74905502D01*
X211584128Y-75003325D01*
X211584121Y-75003327D01*
X211582903Y-75003648D01*
X211581725Y-75004092D01*
X211581719Y-75004094D01*
X211222285Y-75139595D01*
X211222271Y-75139600D01*
X211221104Y-75140041D01*
X211219997Y-75140593D01*
X211219977Y-75140603D01*
X210876368Y-75312351D01*
X210875246Y-75312912D01*
X210874191Y-75313582D01*
X210874184Y-75313587D01*
X210550066Y-75519746D01*
X210550047Y-75519759D01*
X210548996Y-75520428D01*
X210548011Y-75521207D01*
X210548002Y-75521214D01*
X210403258Y-75635776D01*
X210285317Y-75729124D01*
X210278825Y-75734262D01*
X210244633Y-75744694D01*
X210212455Y-75729124D01*
X210199415Y-75695840D01*
X210199415Y-73976313D01*
X210199415Y-73962599D01*
X210199456Y-73962500D01*
X210199298Y-73962117D01*
X210199014Y-73962000D01*
X210198915Y-73961959D01*
X210198816Y-73962000D01*
X196200014Y-73962000D01*
X196199915Y-73961959D01*
X196199816Y-73962000D01*
X196199532Y-73962117D01*
X196199374Y-73962500D01*
X196199415Y-73962599D01*
X196199415Y-87961401D01*
X196199374Y-87961500D01*
X191149456Y-87961500D01*
X191149415Y-87961401D01*
X191149415Y-73962599D01*
X191149456Y-73962500D01*
X191149298Y-73962117D01*
X191149014Y-73962000D01*
X191148915Y-73961959D01*
X191148816Y-73962000D01*
X177150014Y-73962000D01*
X177149915Y-73961959D01*
X177149816Y-73962000D01*
X177149532Y-73962117D01*
X177149374Y-73962500D01*
X177149415Y-73962599D01*
X177149415Y-87961401D01*
X177149374Y-87961500D01*
X172099456Y-87961500D01*
X172099415Y-87961401D01*
X172099415Y-73962599D01*
X172099456Y-73962500D01*
X172099298Y-73962117D01*
X172099014Y-73962000D01*
X172098915Y-73961959D01*
X172098816Y-73962000D01*
X158100014Y-73962000D01*
X158099915Y-73961959D01*
X158099816Y-73962000D01*
X158099532Y-73962117D01*
X158099374Y-73962500D01*
X158099415Y-73962599D01*
X158099415Y-87961401D01*
X158099374Y-87961500D01*
X143524456Y-87961500D01*
X143524415Y-87961401D01*
X143524415Y-73962599D01*
X143524456Y-73962500D01*
X143524298Y-73962117D01*
X143524014Y-73962000D01*
X143523915Y-73961959D01*
X143523816Y-73962000D01*
X129523314Y-73962000D01*
X129523215Y-73961959D01*
X129523116Y-73962000D01*
X129522832Y-73962117D01*
X129522674Y-73962500D01*
X129522715Y-73962599D01*
X129522715Y-87961401D01*
X129522674Y-87961500D01*
X124474456Y-87961500D01*
X124474415Y-87961401D01*
X124474415Y-73962599D01*
X124474456Y-73962500D01*
X124474298Y-73962117D01*
X124474014Y-73962000D01*
X124473915Y-73961959D01*
X124473816Y-73962000D01*
X110474714Y-73962000D01*
X110474615Y-73961959D01*
X110474516Y-73962000D01*
X110474232Y-73962117D01*
X110474074Y-73962500D01*
X110474115Y-73962599D01*
X110474115Y-87961401D01*
X110474074Y-87961500D01*
X105424456Y-87961500D01*
X105424415Y-87961401D01*
X105424415Y-73962599D01*
X105424456Y-73962500D01*
X105424298Y-73962117D01*
X105424014Y-73962000D01*
X105423915Y-73961959D01*
X105423816Y-73962000D01*
X91424714Y-73962000D01*
X91424615Y-73961959D01*
X91424516Y-73962000D01*
X91424232Y-73962117D01*
X91424074Y-73962500D01*
X91424115Y-73962599D01*
X91424115Y-73976313D01*
X91424115Y-75698205D01*
X91410499Y-75732102D01*
X91377217Y-75747160D01*
X91342768Y-75735011D01*
X91230686Y-75636505D01*
X91133511Y-75567421D01*
X90916583Y-75413202D01*
X90916574Y-75413196D01*
X90915551Y-75412469D01*
X90579051Y-75222023D01*
X90391461Y-75140041D01*
X90225914Y-75067692D01*
X90225907Y-75067689D01*
X90224753Y-75067185D01*
X90223555Y-75066802D01*
X90223551Y-75066801D01*
X89857613Y-74949981D01*
X89857605Y-74949979D01*
X89856412Y-74949598D01*
X89855180Y-74949340D01*
X89855178Y-74949340D01*
X89479171Y-74870765D01*
X89479157Y-74870762D01*
X89477933Y-74870507D01*
X89476678Y-74870377D01*
X89476670Y-74870376D01*
X89094588Y-74830880D01*
X89094581Y-74830879D01*
X89093327Y-74830750D01*
X88803411Y-74830750D01*
X88802771Y-74830782D01*
X88802770Y-74830783D01*
X88515119Y-74845610D01*
X88515099Y-74845611D01*
X88513858Y-74845676D01*
X88512623Y-74845868D01*
X88512607Y-74845870D01*
X88133065Y-74904982D01*
X88133057Y-74904983D01*
X88131809Y-74905178D01*
X88130585Y-74905500D01*
X88130577Y-74905502D01*
X87759128Y-75003325D01*
X87759121Y-75003327D01*
X87757903Y-75003648D01*
X87756725Y-75004092D01*
X87756719Y-75004094D01*
X87397285Y-75139595D01*
X87397271Y-75139600D01*
X87396104Y-75140041D01*
X87394997Y-75140593D01*
X87394977Y-75140603D01*
X87051368Y-75312351D01*
X87050246Y-75312912D01*
X87049191Y-75313582D01*
X87049184Y-75313587D01*
X86725066Y-75519746D01*
X86725047Y-75519759D01*
X86723996Y-75520428D01*
X86723011Y-75521207D01*
X86723002Y-75521214D01*
X86578258Y-75635776D01*
X86460317Y-75729124D01*
X86453825Y-75734262D01*
X86419633Y-75744694D01*
X86387455Y-75729124D01*
X86374415Y-75695840D01*
X86374415Y-73976313D01*
X86374415Y-73962599D01*
X86374456Y-73962500D01*
X86374298Y-73962117D01*
X86374014Y-73962000D01*
X86373915Y-73961959D01*
X86373816Y-73962000D01*
X72374714Y-73962000D01*
X72374615Y-73961959D01*
X72374516Y-73962000D01*
X72374232Y-73962117D01*
X72374074Y-73962500D01*
X72374115Y-73962599D01*
X72374115Y-87961401D01*
X72374074Y-87961500D01*
X48274656Y-87961500D01*
X48274615Y-87961401D01*
X48274615Y-73962599D01*
X48274656Y-73962500D01*
X48274498Y-73962117D01*
X48274214Y-73962000D01*
X48274115Y-73961959D01*
X48274016Y-73962000D01*
X34274664Y-73962000D01*
X34274565Y-73961959D01*
X34274466Y-73962000D01*
X34274182Y-73962117D01*
X34274024Y-73962500D01*
X34274065Y-73962599D01*
X34274065Y-87961401D01*
X34274024Y-87961500D01*
X31750500Y-87961500D01*
X31750500Y-76201060D01*
X31750547Y-76198923D01*
X31751569Y-76175516D01*
X31758984Y-76005685D01*
X31759039Y-76005567D01*
X31758989Y-76005565D01*
X31758992Y-76005511D01*
X31758994Y-76005456D01*
X31769400Y-75780382D01*
X31769764Y-75776276D01*
X31797286Y-75567226D01*
X31826685Y-75356478D01*
X31827370Y-75352673D01*
X31873589Y-75144198D01*
X31921743Y-74939460D01*
X31922696Y-74935993D01*
X31987176Y-74731489D01*
X31987331Y-74731011D01*
X32053809Y-74532668D01*
X32054977Y-74529550D01*
X32137195Y-74331057D01*
X32137567Y-74330188D01*
X32221811Y-74139393D01*
X32223127Y-74136651D01*
X32322513Y-73945733D01*
X32323095Y-73944656D01*
X32424380Y-73762813D01*
X32425831Y-73760381D01*
X32541577Y-73578696D01*
X32542323Y-73577567D01*
X32659921Y-73405895D01*
X32661426Y-73403821D01*
X32792570Y-73232911D01*
X32793695Y-73231501D01*
X32926492Y-73071580D01*
X32927995Y-73069857D01*
X33073628Y-72910927D01*
X33075016Y-72909477D01*
X33221977Y-72762516D01*
X33223441Y-72761116D01*
X33382357Y-72615495D01*
X33384080Y-72613992D01*
X33544001Y-72481195D01*
X33545411Y-72480070D01*
X33716321Y-72348926D01*
X33718395Y-72347421D01*
X33890067Y-72229823D01*
X33891196Y-72229077D01*
X34072883Y-72113329D01*
X34075313Y-72111880D01*
X34257187Y-72010577D01*
X34258225Y-72010017D01*
X34449151Y-71910627D01*
X34451893Y-71909311D01*
X34642688Y-71825067D01*
X34643557Y-71824695D01*
X34842055Y-71742474D01*
X34845168Y-71741309D01*
X35043511Y-71674831D01*
X35043989Y-71674676D01*
X35248499Y-71610194D01*
X35251960Y-71609243D01*
X35456698Y-71561089D01*
X35456752Y-71561076D01*
X35665173Y-71514870D01*
X35668978Y-71514185D01*
X35879720Y-71484787D01*
X36088776Y-71457264D01*
X36092882Y-71456900D01*
X36317956Y-71446494D01*
X36318065Y-71446489D01*
X36318067Y-71446539D01*
X36318185Y-71446484D01*
X36511424Y-71438046D01*
X36513560Y-71438000D01*
X374648938Y-71438000D01*
X374651075Y-71438046D01*
G37*
G04 #@! TD.AperFunction*
M02*
